<svg width="560" height="140" viewBox="0 0 560 140" fill="none" xmlns="http://www.w3.org/2000/svg">
<rect width="35" height="35" fill="#CAA46F"/>
<rect x="35" width="35" height="35" fill="#E0CBA2"/>
<rect x="70" width="35" height="35" fill="#CAA46F"/>
<rect x="105" width="35" height="35" fill="#E0CBA2"/>
<rect x="140" width="35" height="35" fill="#CAA46F"/>
<rect x="175" width="35" height="35" fill="#E0CBA2"/>
<rect x="210" width="35" height="35" fill="#CAA46F"/>
<rect x="245" width="35" height="35" fill="#E0CBA2"/>
<rect x="280" width="35" height="35" fill="#CAA46F"/>
<rect x="315" width="35" height="35" fill="#E0CBA2"/>
<rect x="350" width="35" height="35" fill="#CAA46F"/>
<rect x="385" width="35" height="35" fill="#E0CBA2"/>
<rect x="420" width="35" height="35" fill="#CAA46F"/>
<rect x="455" width="35" height="35" fill="#E0CBA2"/>
<rect x="490" width="35" height="35" fill="#CAA46F"/>
<rect x="525" width="35" height="35" fill="#E0CBA2"/>
<rect x="525" y="35" width="35" height="35" fill="#CAA46F"/>
<rect y="35" width="35" height="35" fill="#E0CBA2"/>
<rect x="35" y="35" width="35" height="35" fill="#CAA46F"/>
<rect x="70" y="35" width="35" height="35" fill="#E0CBA2"/>
<rect x="105" y="35" width="35" height="35" fill="#CAA46F"/>
<rect x="140" y="35" width="35" height="35" fill="#E0CBA2"/>
<rect x="175" y="35" width="35" height="35" fill="#CAA46F"/>
<rect x="210" y="35" width="35" height="35" fill="#E0CBA2"/>
<rect x="245" y="35" width="35" height="35" fill="#CAA46F"/>
<rect x="280" y="35" width="35" height="35" fill="#E0CBA2"/>
<rect x="315" y="35" width="35" height="35" fill="#CAA46F"/>
<rect x="350" y="35" width="35" height="35" fill="#E0CBA2"/>
<rect x="385" y="35" width="35" height="35" fill="#CAA46F"/>
<rect x="420" y="35" width="35" height="35" fill="#E0CBA2"/>
<rect x="455" y="35" width="35" height="35" fill="#CAA46F"/>
<rect x="490" y="35" width="35" height="35" fill="#E0CBA2"/>
<rect y="70" width="35" height="35" fill="#CAA46F"/>
<rect x="35" y="70" width="35" height="35" fill="#E0CBA2"/>
<rect x="70" y="70" width="35" height="35" fill="#CAA46F"/>
<rect x="105" y="70" width="35" height="35" fill="#E0CBA2"/>
<rect x="140" y="70" width="35" height="35" fill="#CAA46F"/>
<rect x="175" y="70" width="35" height="35" fill="#E0CBA2"/>
<rect x="210" y="70" width="35" height="35" fill="#CAA46F"/>
<rect x="245" y="70" width="35" height="35" fill="#E0CBA2"/>
<rect x="280" y="70" width="35" height="35" fill="#CAA46F"/>
<rect x="315" y="70" width="35" height="35" fill="#E0CBA2"/>
<rect x="350" y="70" width="35" height="35" fill="#CAA46F"/>
<rect x="385" y="70" width="35" height="35" fill="#E0CBA2"/>
<rect x="420" y="70" width="35" height="35" fill="#CAA46F"/>
<rect x="455" y="70" width="35" height="35" fill="#E0CBA2"/>
<rect x="490" y="70" width="35" height="35" fill="#CAA46F"/>
<rect x="525" y="70" width="35" height="35" fill="#E0CBA2"/>
<rect x="525" y="105" width="35" height="35" fill="#CAA46F"/>
<rect y="105" width="35" height="35" fill="#E0CBA2"/>
<rect x="35" y="105" width="35" height="35" fill="#CAA46F"/>
<rect x="70" y="105" width="35" height="35" fill="#E0CBA2"/>
<rect x="105" y="105" width="35" height="35" fill="#CAA46F"/>
<rect x="140" y="105" width="35" height="35" fill="#E0CBA2"/>
<rect x="175" y="105" width="35" height="35" fill="#CAA46F"/>
<rect x="210" y="105" width="35" height="35" fill="#E0CBA2"/>
<rect x="245" y="105" width="35" height="35" fill="#CAA46F"/>
<rect x="280" y="105" width="35" height="35" fill="#E0CBA2"/>
<rect x="315" y="105" width="35" height="35" fill="#CAA46F"/>
<rect x="350" y="105" width="35" height="35" fill="#E0CBA2"/>
<rect x="385" y="105" width="35" height="35" fill="#CAA46F"/>
<rect x="420" y="105" width="35" height="35" fill="#E0CBA2"/>
<rect x="455" y="105" width="35" height="35" fill="#CAA46F"/>
<rect x="490" y="105" width="35" height="35" fill="#E0CBA2"/>
</svg>
