<svg width="37" height="24" viewBox="0 0 37 24" fill="none" xmlns="http://www.w3.org/2000/svg">
<path d="M35.9687 11.2039L30.8197 3.11178C29.5881 1.17783 27.4291 0 25.0995 0H4.49609C2.01063 0 0 1.97031 0 4.40594V18.8234C0 19.7976 0.808703 20.5901 1.80289 20.5901H2.64127C3.47223 22.5895 5.46802 24 7.79767 24C10.1273 24 12.1231 22.5895 12.9541 20.5901H23.4153C24.2462 22.5895 26.242 24 28.5717 24C30.9013 24 32.9046 22.5895 33.7281 20.5901H35.1971C36.1913 20.5901 37 19.7976 37 18.8234V14.701C37 13.465 36.6439 12.2581 35.9761 11.2039H35.9687ZM30.8346 8.93547C30.6788 9.21902 30.3746 9.38625 30.0481 9.38625H21.4195C20.9224 9.38625 20.5218 8.99364 20.5218 8.50651V3.2063C20.5218 2.71918 20.9224 2.32657 21.4195 2.32657H24.313C26.1085 2.32657 27.7407 3.21357 28.6904 4.70403L30.8123 8.0412C30.983 8.31021 30.9904 8.65192 30.8346 8.93547Z" fill="#CC0000"/>
</svg>
