<svg width="335" height="84" viewBox="0 0 335 84" fill="none" xmlns="http://www.w3.org/2000/svg">
<path d="M328.441 0.501953H157.227C153.717 0.501953 150.872 3.36249 150.872 6.89115C150.872 10.4198 153.717 13.2803 157.227 13.2803H328.441C331.95 13.2803 334.796 10.4198 334.796 6.89115C334.796 3.36249 331.95 0.501953 328.441 0.501953Z" fill="#E0CBA2"/>
<path d="M295.543 23.8037H81.7135C78.2037 23.8037 75.3584 26.6643 75.3584 30.1929C75.3584 33.7216 78.2037 36.5821 81.7135 36.5821H295.543C299.053 36.5821 301.898 33.7216 301.898 30.1929C301.898 26.6643 299.053 23.8037 295.543 23.8037Z" fill="#E0CBA2"/>
<path d="M167.694 47.1055H6.94785C3.43804 47.1055 0.592773 49.966 0.592773 53.4947C0.592773 57.0233 3.43804 59.8839 6.94785 59.8839H167.694C171.204 59.8839 174.049 57.0233 174.049 53.4947C174.049 49.966 171.204 47.1055 167.694 47.1055Z" fill="#E0CBA2"/>
<path d="M252.927 70.4072H54.0504C50.5406 70.4072 47.6953 73.2678 47.6953 76.7964C47.6953 80.3251 50.5406 83.1856 54.0504 83.1856H252.927C256.437 83.1856 259.282 80.3251 259.282 76.7964C259.282 73.2678 256.437 70.4072 252.927 70.4072Z" fill="#E0CBA2"/>
<path d="M148.441 53.1192V29.8174H142.086V53.1192H148.441Z" fill="#E0CBA2"/>
<path d="M103.283 76.6157V53.314H96.9281V76.6157H103.283Z" fill="#E0CBA2"/>
<path d="M226.579 30.103V6.80127H220.224V30.103H226.579Z" fill="#E0CBA2"/>
</svg>
