<svg width="147" height="152" viewBox="0 0 147 152" fill="none" xmlns="http://www.w3.org/2000/svg">
<g filter="url(#filter0_d_1321_2279)">
<path d="M43.598 140.145L43.5968 140.144C28.6165 134.556 19.5512 127.35 14.421 115.168L43.598 140.145ZM43.598 140.145C52.1668 143.339 61.3147 144.42 70.724 143.411C85.3196 141.846 97.1053 135.629 102.443 132.813L102.53 132.767L102.541 132.762M43.598 140.145L102.541 132.762M9.11067 83.2823L9.10965 83.2786C4.09554 65.3077 6.4002 54.7321 9.04058 46.3993L9.04108 46.3977C13.2267 33.2008 23.0685 21.9534 36.3113 14.4502C36.3118 14.45 36.3122 14.4497 36.3127 14.4495C39.2493 12.7847 47.4212 8.1526 59.1089 6.89944C61.1482 6.68079 63.2075 6.57665 65.2506 6.58195L65.2583 6.58197L65.2659 6.58201C70.5556 6.60922 84.078 7.62492 97.1926 16.6343L97.584 16.8972L97.5899 16.9012L97.5959 16.9052C101.48 19.5276 110.365 25.7755 122.579 47.5259L122.582 47.5314C123.504 49.1769 124.002 49.7654 124.932 50.8626L124.981 50.9207C124.982 50.9211 124.982 50.9214 124.982 50.9217C126.663 52.9052 128.901 55.5779 133.207 62.7063L133.208 62.7073C139.339 72.8601 138.496 87.4501 133.046 101.179L9.11067 83.2823ZM9.11067 83.2823C10.9415 89.8283 11.2802 94.9477 11.6047 99.8977L9.11067 83.2823ZM102.541 132.762L102.551 132.756M102.541 132.762L102.551 132.756M102.551 132.756C103.091 132.468 103.619 132.189 104.043 131.973C104.174 131.907 104.28 131.854 104.363 131.813M102.551 132.756L104.363 131.813M11.63 100.289C11.6216 100.159 11.6132 100.029 11.6048 99.8995L11.63 100.289ZM11.63 100.289C11.929 104.924 12.2591 110.038 14.4203 115.167L11.63 100.289ZM104.363 131.813C116.655 128.192 127.199 115.924 133.045 101.181L104.363 131.813Z" stroke="#FFFCFC" stroke-width="12"/>
<path d="M70.0844 137.445C61.5537 138.36 53.3462 137.375 45.6938 134.523C31.6953 129.301 24.2365 123.017 19.95 112.838C18.1839 108.648 17.9102 104.414 17.5919 99.507C17.2649 94.5173 16.9008 88.8593 14.8889 81.6662C10.2513 65.0446 12.3938 55.6803 14.7603 48.2117C18.4172 36.682 27.124 26.5514 39.2703 19.6699C42.0144 18.1142 49.3131 13.9841 59.7486 12.8652C61.5644 12.6706 63.4048 12.5772 65.2351 12.5819C69.9228 12.606 82.0878 13.5264 93.8205 21.5972L94.2387 21.8781C97.3394 23.9713 105.586 29.5188 117.347 50.4637C118.556 52.6212 119.333 53.5359 120.404 54.8003C121.896 56.5601 123.943 58.9743 128.072 65.8088C132.816 73.6655 132.593 86.0607 127.469 98.9675C121.92 112.959 112.295 123.376 102.362 126.146C102.026 126.244 100.806 126.888 99.7306 127.46C94.4697 130.235 83.521 136.004 70.0844 137.445Z" fill="#F64635"/>
<path d="M42.7835 36.9242C32.767 44.4715 29.2708 51.0354 27.3223 62.5968C26.5841 66.9591 26.049 78.6462 34.8681 86.6273C41.6533 92.7681 51.7795 92.32 60.2152 91.3601C74.7104 89.7088 83.6427 83.8788 89.3718 79.4596C95.9657 74.3793 100.481 70.7903 101.813 64.5346C103.242 57.8181 100.164 51.9936 97.4943 46.9432C95.0351 42.3 91.0785 34.8093 82.5869 31.1109C74.8877 27.7572 68.8328 28.0391 61.8292 29.4277C58.3137 30.1234 46.7217 33.9653 42.7972 36.9227L42.7835 36.9242Z" fill="#FEFCFC"/>
<path d="M55.6492 98.6763C56.7303 99.1287 56.4336 99.916 56.7334 100.515C59.6973 106.504 62.8553 112.493 67.8554 116.981C69.1363 118.133 72.2364 119.381 70.8337 121.618C69.4309 123.854 67.2998 122.142 65.908 120.926C60.3683 116.058 55.8289 109.919 53.46 102.952C53.3908 102.758 53.0081 102.938 52.8972 102.485C52.7721 101.965 52.6261 100.539 52.6312 100.005C52.6322 99.9493 53.0393 98.9631 53.076 98.9176C53.4871 98.4854 55.0391 98.416 55.6416 98.6702L55.6492 98.6763Z" fill="#F5CA4A"/>
<path d="M91.8562 87.3721C92.4091 87.6802 93.1629 89.3459 93.4016 90.0203C93.7599 91.0354 94.1606 92.5102 94.3499 93.5642C95.0792 97.6513 96.2644 107.865 95.1228 111.633C94.5694 113.452 91.7217 113.072 91.2774 111.255C90.98 110.032 91.5497 107.525 91.4862 106.028C91.3313 102.385 90.7338 97.6529 90.1969 94.0025C89.9567 92.3441 89.206 90.6434 89.1381 88.9111C89.0675 87.089 90.3162 86.5185 91.8631 87.3714L91.8562 87.3721Z" fill="#F5C849"/>
<path d="M107.143 81.7341C108.108 82.005 109.239 84.9263 109.519 85.8596C110.541 89.3124 110.668 94.8919 110.245 98.5066C110.208 98.8154 109.974 100.053 109.87 100.702C109.8 101.146 108.769 104.785 108.645 104.978C107.783 106.318 105.29 105.497 105.123 104.067C105.052 103.409 105.776 101.952 105.959 101.135C106.503 98.7692 106.907 91.4277 106.449 88.8294C106.147 87.1152 104.574 84.2691 105.142 82.7873C105.441 82.0137 106.293 81.4927 107.137 81.7349L107.143 81.7341Z" fill="#F5C849"/>
<path d="M41.4348 107.146C42.1871 107.439 42.544 108.44 42.9507 108.937C45.2745 111.8 46.9831 114.937 50.1719 117.27C50.7661 117.705 51.8727 118.46 52.5506 118.9C53.0425 119.222 54.1726 119.419 54.5536 119.871C54.6165 119.94 55.4761 121.428 55.4788 121.518C55.4957 121.676 54.921 123.102 54.8515 123.165C54.737 123.261 52.6554 123.498 52.3603 123.46C52.2972 123.453 51.5517 122.965 51.3156 122.831C47.3611 120.531 43.0898 116.311 40.8056 112.46C39.8151 110.785 38.9438 109.381 39.0765 107.322C39.9249 106.961 40.5313 106.799 41.4204 107.14L41.4348 107.146Z" fill="#F5C84A"/>
<path d="M52.5464 68.3205C52.2209 68.2584 51.9708 67.9941 51.9279 67.6591L51.8459 67.4114L65.9825 69.7838C66.2235 69.8342 66.4795 69.7652 66.662 69.5931C70.0667 66.4419 72.5948 62.4838 75.7978 59.1324C76.2767 58.686 76.9758 58.3546 77.4964 58.9434L67.2551 70.7286C67.0762 70.9349 66.8026 71.0335 66.5266 70.9799L52.5403 68.3281L52.5464 68.3205Z" fill="#602423"/>
<path d="M46.8779 59.662C49.1371 59.4198 50.7722 57.392 50.5299 55.1328C50.2877 52.8737 48.2599 51.2386 46.0008 51.4808C43.7416 51.7231 42.1065 53.7509 42.3488 56.01C42.591 58.2692 44.6188 59.9043 46.8779 59.662Z" fill="#5C1E1D"/>
<path d="M73.2744 51.0385C75.5336 50.7963 77.1686 48.7685 76.9264 46.5093C76.6842 44.2501 74.6564 42.6151 72.3972 42.8573C70.1381 43.0995 68.503 45.1273 68.7452 47.3865C68.9875 49.6457 71.0153 51.2807 73.2744 51.0385Z" fill="#5C1E1D"/>
<path d="M39.6233 77.0044C44.5958 76.4713 48.2143 72.1921 47.7054 67.4468C47.1966 62.7014 42.7532 59.2867 37.7808 59.8198C32.8083 60.353 29.1898 64.6321 29.6986 69.3775C30.2074 74.1229 34.6509 77.5376 39.6233 77.0044Z" fill="#FBC5B3"/>
<path d="M88.4192 61.0093C93.3917 60.4761 97.0102 56.197 96.5014 51.4516C95.9925 46.7062 91.5491 43.2915 86.5767 43.8247C81.6042 44.3578 77.9857 48.6369 78.4945 53.3823C79.0033 58.1277 83.4468 61.5424 88.4192 61.0093Z" fill="#FBC5B3"/>
</g>
<defs>
<filter id="filter0_d_1321_2279" x="0.145508" y="0.581543" width="146.333" height="151.194" filterUnits="userSpaceOnUse" color-interpolation-filters="sRGB">
<feFlood flood-opacity="0" result="BackgroundImageFix"/>
<feColorMatrix in="SourceAlpha" type="matrix" values="0 0 0 0 0 0 0 0 0 0 0 0 0 0 0 0 0 0 127 0" result="hardAlpha"/>
<feOffset dx="3" dy="2"/>
<feComposite in2="hardAlpha" operator="out"/>
<feColorMatrix type="matrix" values="0 0 0 0 0 0 0 0 0 0 0 0 0 0 0 0 0 0 0.25 0"/>
<feBlend mode="normal" in2="BackgroundImageFix" result="effect1_dropShadow_1321_2279"/>
<feBlend mode="normal" in="SourceGraphic" in2="effect1_dropShadow_1321_2279" result="shape"/>
</filter>
</defs>
</svg>
