<svg width="284" height="420" viewBox="0 0 284 420" fill="none" xmlns="http://www.w3.org/2000/svg">
<g clip-path="url(#clip0_1315_2205)">
<rect width="283.46" height="419.53" fill="white"/>
<path d="M78.1703 25.3701H24.4203C23.9509 25.3701 23.5703 25.7507 23.5703 26.2201V91.2101C23.5703 91.6796 23.9509 92.0601 24.4203 92.0601H78.1703C78.6398 92.0601 79.0203 91.6796 79.0203 91.2101V26.2201C79.0203 25.7507 78.6398 25.3701 78.1703 25.3701Z" fill="#BF1A20"/>
<path d="M143.3 37.0698C143.52 37.0698 143.7 37.2498 143.7 37.4698V58.4498C143.7 58.6698 143.52 58.8498 143.3 58.8498H129.15C128.93 58.8498 128.75 58.6698 128.75 58.4498V37.4698C128.75 37.2498 128.93 37.0698 129.15 37.0698H143.3ZM143.3 36.0698H129.15C128.37 36.0698 127.75 36.6998 127.75 37.4698V58.4498C127.75 59.2298 128.38 59.8498 129.15 59.8498H143.3C144.08 59.8498 144.7 59.2198 144.7 58.4498V37.4698C144.7 36.6898 144.07 36.0698 143.3 36.0698Z" fill="#BF1A20"/>
<path d="M163.21 37.0698C163.4 37.0698 163.55 37.2198 163.55 37.4098V58.5198C163.55 58.7098 163.4 58.8598 163.21 58.8598H148.93C148.74 58.8598 148.59 58.7098 148.59 58.5198V37.4098C148.59 37.2198 148.74 37.0698 148.93 37.0698H163.21ZM163.21 36.0698H148.93C148.19 36.0698 147.59 36.6698 147.59 37.4098V58.5198C147.59 59.2598 148.19 59.8598 148.93 59.8598H163.21C163.95 59.8598 164.55 59.2598 164.55 58.5198V37.4098C164.55 36.6698 163.95 36.0698 163.21 36.0698Z" fill="#BF1A20"/>
<path d="M182.93 37.0698C183.19 37.0698 183.4 37.2798 183.4 37.5398V58.3898C183.4 58.6498 183.19 58.8598 182.93 58.8598H168.91C168.65 58.8598 168.44 58.6498 168.44 58.3898V37.5398C168.44 37.2798 168.65 37.0698 168.91 37.0698H182.93ZM182.93 36.0698H168.91C168.1 36.0698 167.44 36.7298 167.44 37.5398V58.3898C167.44 59.1998 168.1 59.8598 168.91 59.8598H182.93C183.74 59.8598 184.4 59.1998 184.4 58.3898V37.5398C184.4 36.7298 183.74 36.0698 182.93 36.0698Z" fill="#BF1A20"/>
<path d="M202.2 36.8198C202.91 36.8198 203.5 37.3998 203.5 38.1198V57.8198C203.5 58.5298 202.92 59.1198 202.2 59.1198H189.33C188.62 59.1198 188.03 58.5398 188.03 57.8198V38.1198C188.03 37.4098 188.61 36.8198 189.33 36.8198H202.2ZM202.2 36.0698H189.33C188.2 36.0698 187.28 36.9898 187.28 38.1198V57.8198C187.28 58.9498 188.2 59.8698 189.33 59.8698H202.2C203.33 59.8698 204.25 58.9498 204.25 57.8198V38.1198C204.25 36.9898 203.33 36.0698 202.2 36.0698Z" fill="#BF1A20"/>
<path d="M183.84 48.02H187.56" stroke="#BF1A20" stroke-miterlimit="10"/>
<path d="M136.9 27.59H133.82V29.06C133.82 29.21 133.65 29.38 133.43 29.38C133.19 29.38 133.04 29.21 133.04 29.06V27.59H128.79C128.65 27.59 128.48 27.46 128.48 27.25C128.48 27.04 128.65 26.91 128.79 26.91H129.75V24.82C129.75 24.46 130.05 24.16 130.44 24.16H133.03V22.59H130.41C130.26 22.95 129.46 24.58 128.97 24.58C128.77 24.58 128.59 24.39 128.59 24.18C128.59 24.09 128.63 24.02 128.68 23.96C129.19 23.41 129.75 22.45 129.94 21.48C129.97 21.35 130.12 21.21 130.32 21.21C130.58 21.21 130.71 21.41 130.71 21.56L130.64 21.91H136.65C136.8 21.91 136.96 22.03 136.96 22.25C136.96 22.44 136.8 22.59 136.65 22.59H133.8V24.16H136.5C136.64 24.16 136.82 24.3 136.82 24.51C136.82 24.72 136.64 24.84 136.5 24.84H133.8V26.91H136.88C137.03 26.91 137.19 27.05 137.19 27.25C137.19 27.45 137.03 27.59 136.88 27.59H136.9ZM133.04 24.84H130.75C130.63 24.84 130.52 24.94 130.52 25.06V26.91H133.04V24.84Z" fill="#040000"/>
<path d="M143.01 23.7397H142.4C142.27 23.7397 142.13 23.6197 142.13 23.4597C142.13 23.2797 142.27 23.1697 142.4 23.1697H142.84C143.27 23.1697 143.45 23.0897 143.45 22.6397V22.3997C143.45 22.2697 143.36 22.1897 143.21 22.1897H141.9C141.81 22.9497 141.23 23.8097 140.3 24.0097C140.25 24.0097 140.22 24.0097 140.18 24.0097C139.97 24.0097 139.82 23.8897 139.82 23.7097C139.82 23.5697 139.91 23.4397 140.09 23.3997C140.66 23.2797 141.09 22.8197 141.18 22.1897H140.12C139.99 22.1897 139.85 22.0697 139.85 21.8997C139.85 21.7397 139.99 21.6297 140.12 21.6297H141.19V21.5097C141.19 21.3497 141.33 21.2197 141.55 21.2197C141.77 21.2197 141.91 21.3497 141.91 21.5097V21.6297H143.46C143.86 21.6297 144.16 21.9097 144.16 22.2797V22.7097C144.16 23.4797 143.72 23.7597 143.01 23.7597V23.7397ZM148 29.4097C147.4 29.4097 145.99 28.8997 145.5 28.5697C145.42 28.5197 145.39 28.4497 145.39 28.3597C145.39 28.2997 145.42 28.2397 145.47 28.1797H142.94C142.99 28.2297 143.01 28.2997 143.01 28.3597C143.01 28.4497 142.97 28.5197 142.91 28.5697C142.42 28.9197 141.01 29.4097 140.4 29.4097C140.18 29.4097 140.04 29.2897 140.04 29.0997C140.04 28.9497 140.14 28.8297 140.29 28.8197C141.01 28.7397 141.79 28.4697 142.37 28.1797H141.03C140.64 28.1797 140.34 27.8997 140.34 27.5197V24.6997C140.34 24.3297 140.64 24.0397 141.03 24.0397H147.41C147.79 24.0397 148.1 24.3197 148.1 24.6997V27.5197C148.1 27.8897 147.79 28.1797 147.41 28.1797H146.07C146.64 28.4597 147.42 28.7397 148.14 28.8197C148.28 28.8397 148.39 28.9497 148.39 29.0997C148.39 29.2897 148.25 29.4097 148.02 29.4097H148ZM147.32 24.7797C147.32 24.6597 147.23 24.5697 147.1 24.5697H141.31C141.19 24.5697 141.09 24.6697 141.09 24.7797V25.2597H147.31V24.7797H147.32ZM147.32 25.7697H141.1V26.4597H147.32V25.7697ZM147.32 26.9797H141.1V27.4597C141.1 27.5797 141.19 27.6697 141.32 27.6697H147.11C147.23 27.6697 147.33 27.5697 147.33 27.4597V26.9797H147.32ZM147.53 23.6597H145.61C145.21 23.6597 144.91 23.3797 144.91 23.0097V22.0897C144.91 21.7397 145.21 21.4397 145.61 21.4397H147.53C147.92 21.4397 148.23 21.7297 148.23 22.0897V23.0097C148.23 23.3697 147.92 23.6597 147.53 23.6597ZM147.54 22.1897C147.54 22.0697 147.45 21.9897 147.31 21.9897H145.82C145.69 21.9897 145.58 22.0797 145.58 22.1897V22.9197C145.58 23.0397 145.68 23.1197 145.82 23.1197H147.31C147.44 23.1197 147.54 23.0397 147.54 22.9197V22.1897Z" fill="#040000"/>
<path d="M153.751 29.0999H153.441C151.971 29.0999 151.511 28.3199 151.511 27.1299V21.8399C151.511 21.6599 151.651 21.5499 151.851 21.5499H152.031C152.221 21.5499 152.351 21.6799 152.351 21.8399V27.0999C152.351 27.9299 152.671 28.3299 153.541 28.3299H153.801C153.961 28.3299 154.061 28.4299 154.061 28.6199V28.7999C154.061 28.9999 153.931 29.0899 153.741 29.0899L153.751 29.0999ZM159.391 26.4599H158.601V27.3999C158.601 28.4099 158.101 29.1599 156.651 29.1599H155.961C154.841 29.1599 154.041 28.5399 154.041 27.3799C154.041 26.3499 154.791 25.6299 156.031 25.6299H157.751V23.1199H154.051C153.881 23.1199 153.741 22.9899 153.741 22.8099V22.6199C153.741 22.4499 153.881 22.3199 154.051 22.3199H157.751V21.6799C157.751 21.5399 157.881 21.4399 158.081 21.4399H158.261C158.491 21.4399 158.601 21.5499 158.601 21.6799V22.3199H159.381C159.561 22.3199 159.691 22.4499 159.691 22.6199V22.8099C159.691 22.9899 159.561 23.1199 159.381 23.1199H158.601V25.6599H159.391C159.561 25.6599 159.691 25.7899 159.691 25.9799V26.1399C159.691 26.3199 159.561 26.4499 159.391 26.4499V26.4599ZM157.751 26.3899H156.061C155.191 26.3899 154.821 26.8199 154.821 27.3799C154.821 28.1099 155.261 28.4299 155.981 28.4299H156.591C157.441 28.4299 157.751 28.0299 157.751 27.4099V26.3899Z" fill="#040000"/>
<path d="M167.16 29.1801H166.1C165.93 29.1801 165.8 29.0401 165.8 28.8601V28.7201C165.8 28.5501 165.92 28.4001 166.1 28.4001H167.09C168.03 28.4001 168.37 28.0501 168.37 27.3001V25.0401C168.37 23.8401 168.03 23.3801 166.62 23.3801H164.62L164.31 28.9201C164.31 29.0901 164.17 29.2001 163.98 29.2001H163.81C163.64 29.2001 163.47 29.1101 163.48 28.9301L163.79 23.3701H163C162.84 23.3701 162.74 23.2501 162.74 23.0601V22.8901C162.74 22.7001 162.87 22.5701 163.04 22.5701H163.83L163.89 21.6401C163.89 21.4701 164.02 21.3701 164.21 21.3701H164.38C164.57 21.3701 164.73 21.4601 164.72 21.6201L164.66 22.5701H166.58C168.54 22.5701 169.2 23.2401 169.2 25.0501V27.3401C169.2 28.5201 168.62 29.1601 167.16 29.1601V29.1801ZM171.13 21.9401H169.57C169.46 21.9401 169.36 21.8301 169.36 21.6901C169.36 21.5501 169.45 21.4401 169.57 21.4401H171.13C171.24 21.4401 171.34 21.5501 171.34 21.6901C171.34 21.8301 171.25 21.9401 171.13 21.9401ZM171.13 22.8301H169.57C169.46 22.8301 169.36 22.7301 169.36 22.5801C169.36 22.4401 169.45 22.3401 169.57 22.3401H171.13C171.24 22.3401 171.34 22.4401 171.34 22.5801C171.34 22.7301 171.25 22.8301 171.13 22.8301ZM170.75 27.5101H170.63C170.44 27.5101 170.29 27.4101 170.29 27.2401V23.6301C170.29 23.4501 170.44 23.3401 170.63 23.3401H170.75C170.94 23.3401 171.09 23.4601 171.09 23.6301V27.2401C171.09 27.4201 170.94 27.5101 170.75 27.5101Z" fill="#040000"/>
<path d="M182.111 24.6499H180.521V25.7299C180.521 26.0999 180.211 26.3899 179.811 26.3899H176.091C175.411 26.3899 174.941 26.8199 174.941 27.4199C174.941 28.0899 175.391 28.4499 176.091 28.4499H181.471C181.651 28.4499 181.771 28.5899 181.771 28.7599V28.8699C181.771 29.0599 181.651 29.1899 181.471 29.1899H175.981C174.861 29.1899 174.091 28.5799 174.091 27.4499C174.091 26.4699 174.881 25.7099 175.971 25.7099H179.411C179.551 25.7099 179.671 25.6099 179.671 25.4699V24.6499H174.761C174.591 24.6499 174.471 24.5099 174.471 24.3199V24.2799C174.471 24.0999 174.591 23.9699 174.761 23.9699H179.651L179.631 22.8699H174.761C174.591 22.8699 174.471 22.7399 174.471 22.5499V22.5099C174.471 22.3399 174.591 22.1999 174.761 22.1999H179.621V21.6699C179.621 21.5499 179.751 21.3999 179.961 21.3999H180.151C180.361 21.3999 180.471 21.5499 180.471 21.6599V22.1999H182.101C182.271 22.1999 182.391 22.3299 182.391 22.5099V22.5699C182.391 22.7499 182.271 22.8699 182.101 22.8699H180.491V23.9699H182.101C182.271 23.9699 182.391 24.0999 182.391 24.2799V24.3399C182.391 24.5199 182.271 24.6499 182.101 24.6499H182.111Z" fill="#040000"/>
<path d="M78.5803 94.5898H24.0103C23.7673 94.5898 23.5703 94.7868 23.5703 95.0298V96.9598C23.5703 97.2029 23.7673 97.3998 24.0103 97.3998H78.5803C78.8233 97.3998 79.0203 97.2029 79.0203 96.9598V95.0298C79.0203 94.7868 78.8233 94.5898 78.5803 94.5898Z" fill="#BF1A20"/>
<path d="M79.0205 36.6099H70.3105C69.0205 36.6099 67.9805 35.3799 67.9805 33.8699C67.9805 32.3599 69.0205 31.1299 70.3105 31.1299C73.5505 31.1299 79.0205 31.1299 79.0205 31.1299V36.6099Z" fill="#FFD199"/>
<path d="M74.7904 27.3398H64.4004C63.0197 27.3398 61.9004 28.4591 61.9004 29.8398C61.9004 31.2206 63.0197 32.3398 64.4004 32.3398H74.7904C76.1711 32.3398 77.2904 31.2206 77.2904 29.8398C77.2904 28.4591 76.1711 27.3398 74.7904 27.3398Z" fill="#FFD199"/>
<path d="M23.5703 79.8398H34.3403C35.7203 79.8398 36.8403 80.9598 36.8403 82.3398C36.8403 83.7198 35.7203 84.8398 34.3403 84.8398H23.5703V79.8398Z" fill="#FFD199"/>
<path d="M40.5902 84.25H30.2002C28.8195 84.25 27.7002 85.3693 27.7002 86.75C27.7002 88.1307 28.8195 89.25 30.2002 89.25H40.5902C41.9709 89.25 43.0902 88.1307 43.0902 86.75C43.0902 85.3693 41.9709 84.25 40.5902 84.25Z" fill="#FFD199"/>
<path d="M29.96 49.4198V42.0298H49.38V61.7398H45.06C43.25 61.7398 41.82 63.4198 41.82 65.4298C41.82 67.4398 43.24 69.1198 45.06 69.1198H49.38V76.5098H29.96V56.7998H34.28C36.05 56.7998 37.52 55.1698 37.52 53.1098C37.52 51.0498 36.05 49.4598 34.28 49.4598L29.96 49.4098V49.4198Z" fill="white"/>
<path d="M62.9404 51.9298C62.9404 53.2598 63.9304 54.3898 65.1504 54.3898H71.9504V76.5598H51.6904V69.1698H58.4504C60.3004 69.1698 61.8304 67.4898 61.8304 65.4698C61.8304 63.4498 60.3004 61.7798 58.4504 61.7798H51.6904V42.0698H71.9504V49.4598H65.2004C63.9404 49.4598 62.9504 50.5398 62.9504 51.9198L62.9404 51.9298Z" fill="white"/>
<path d="M261.37 391.8H22.0996V402.55H261.37V391.8Z" fill="#BF1A20"/>
<path d="M222.04 36.8701C222.75 36.8701 223.34 37.4501 223.34 38.1701V57.8701C223.34 58.5801 222.76 59.1701 222.04 59.1701H209.17C208.46 59.1701 207.87 58.5901 207.87 57.8701V38.1701C207.87 37.4601 208.45 36.8701 209.17 36.8701H222.04ZM222.04 36.1201H209.17C208.04 36.1201 207.12 37.0401 207.12 38.1701V57.8701C207.12 59.0001 208.04 59.9201 209.17 59.9201H222.04C223.17 59.9201 224.09 59.0001 224.09 57.8701V38.1701C224.09 37.0401 223.17 36.1201 222.04 36.1201Z" fill="#BF1A20"/>
<path d="M241.89 36.8501C242.6 36.8501 243.19 37.4301 243.19 38.1501V57.8501C243.19 58.5601 242.61 59.1501 241.89 59.1501H229.02C228.31 59.1501 227.72 58.5701 227.72 57.8501V38.1501C227.72 37.4401 228.3 36.8501 229.02 36.8501H241.89ZM241.89 36.1001H229.02C227.89 36.1001 226.97 37.0201 226.97 38.1501V57.8501C226.97 58.9801 227.89 59.9001 229.02 59.9001H241.89C243.02 59.9001 243.94 58.9801 243.94 57.8501V38.1501C243.94 37.0201 243.02 36.1001 241.89 36.1001Z" fill="#BF1A20"/>
<path d="M261.73 36.8999C262.44 36.8999 263.03 37.4799 263.03 38.1999V57.8999C263.03 58.6099 262.45 59.1999 261.73 59.1999H248.86C248.15 59.1999 247.56 58.6199 247.56 57.8999V38.1999C247.56 37.4899 248.14 36.8999 248.86 36.8999H261.73ZM261.73 36.1499H248.86C247.73 36.1499 246.81 37.0699 246.81 38.1999V57.8999C246.81 59.0299 247.73 59.9499 248.86 59.9499H261.73C262.86 59.9499 263.78 59.0299 263.78 57.8999V38.1999C263.78 37.0699 262.86 36.1499 261.73 36.1499Z" fill="#BF1A20"/>
<path d="M51.4004 123.27V133.53" stroke="#BF1A20" stroke-width="23" stroke-miterlimit="10" stroke-linecap="round"/>
<path d="M41.5703 130.42L51.3303 133.59" stroke="#BF1A20" stroke-width="23" stroke-miterlimit="10" stroke-linecap="round"/>
<path d="M51.3496 133.55L61.0196 130.11" stroke="#BF1A20" stroke-width="23" stroke-miterlimit="10" stroke-linecap="round"/>
<path d="M51.0896 134L45.0596 141.79" stroke="#BF1A20" stroke-width="23" stroke-miterlimit="10" stroke-linecap="round"/>
<path d="M51.6699 134.06L58.1399 141.72" stroke="#BF1A20" stroke-width="23" stroke-miterlimit="10" stroke-linecap="round"/>
<path d="M34.0404 165.64H30.7104C30.4604 165.64 30.2704 165.72 30.2704 165.99V168.26C30.2704 168.41 30.4004 168.53 30.5704 168.53H36.5904C36.8504 168.53 36.9804 168.67 36.9804 168.89V169.07C36.9804 169.3 36.8504 169.43 36.5904 169.43H30.0404C29.5504 169.43 29.1904 169.1 29.1904 168.7V165.65C29.1904 165.09 29.6404 164.77 30.2104 164.77H33.9904C35.5004 164.77 35.9704 164.25 35.9704 163.48V163.2C35.9704 162.41 35.3404 161.93 34.0504 161.93H29.5704C29.3104 161.93 29.1904 161.79 29.1904 161.57V161.38C29.1904 161.16 29.3104 161.03 29.5704 161.03H34.0104C36.0004 161.03 37.0704 161.77 37.0704 163.17V163.46C37.0704 164.93 36.1104 165.65 34.0504 165.65L34.0404 165.64Z" fill="#040000"/>
<path d="M45.3502 169.41H44.2902C41.6702 169.41 40.7402 168.18 40.7402 166.36V164.07C40.7402 162.25 41.6702 161.02 44.2902 161.02H45.3502C47.9702 161.02 48.9002 162.26 48.9002 164.07V166.36C48.9002 168.19 47.9702 169.41 45.3502 169.41ZM47.8602 164.08C47.8602 162.57 46.9802 161.91 45.3502 161.91H44.3102C42.6902 161.91 41.8202 162.57 41.8202 164.08V166.36C41.8202 167.87 42.6902 168.52 44.3102 168.52H45.3502C46.9902 168.52 47.8602 167.87 47.8602 166.36V164.08Z" fill="#040000"/>
<path d="M57.5307 165.64H54.2007C53.9507 165.64 53.7607 165.72 53.7607 165.99V168.26C53.7607 168.41 53.8907 168.53 54.0607 168.53H60.0807C60.3407 168.53 60.4707 168.67 60.4707 168.89V169.07C60.4707 169.3 60.3407 169.43 60.0807 169.43H53.5307C53.0407 169.43 52.6807 169.1 52.6807 168.7V165.65C52.6807 165.09 53.1307 164.77 53.7007 164.77H57.4807C58.9907 164.77 59.4607 164.25 59.4607 163.48V163.2C59.4607 162.41 58.8307 161.93 57.5407 161.93H53.0607C52.8007 161.93 52.6807 161.79 52.6807 161.57V161.38C52.6807 161.16 52.8007 161.03 53.0607 161.03H57.5007C59.4907 161.03 60.5607 161.77 60.5607 163.17V163.46C60.5607 164.93 59.6007 165.65 57.5407 165.65L57.5307 165.64Z" fill="#040000"/>
<path d="M69.5205 169.42H64.6105C64.3505 169.42 64.2305 169.28 64.2305 169.06V168.87C64.2305 168.65 64.3505 168.52 64.6105 168.52H69.5905C70.8805 168.52 71.3805 167.81 71.3805 167.09V166.87C71.3805 166.04 70.9405 165.34 69.5305 165.34H65.4005C64.6605 165.34 64.2305 164.92 64.2305 164.28V161.74C64.2305 161.33 64.6005 161 65.0705 161H71.6205C71.8705 161 71.9905 161.14 71.9905 161.35V161.56C71.9905 161.78 71.8605 161.9 71.6105 161.9H65.5705C65.3905 161.9 65.2605 162.02 65.2605 162.18V164.04C65.2605 164.34 65.4305 164.47 65.7505 164.47H69.5205C71.4105 164.47 72.4605 165.16 72.4605 166.88V167.08C72.4605 168.48 71.4505 169.42 69.5205 169.42Z" fill="#040000"/>
<path d="M65.46 255.98C65.2867 255.607 65.0733 255.22 64.82 254.82C64.5667 254.407 64.3267 254.093 64.1 253.88C65.58 253.347 66.98 252.647 68.3 251.78C69.6333 250.913 70.8333 249.92 71.9 248.8C71.5 248.533 71.1067 248.287 70.72 248.06C70.3333 247.833 69.96 247.64 69.6 247.48L70.98 245.64C71.74 245.987 72.5533 246.433 73.42 246.98C73.7667 246.487 74.0933 245.987 74.4 245.48C74.7067 244.96 74.9733 244.433 75.2 243.9C74.64 243.927 74.0333 243.96 73.38 244C72.74 244.027 72.14 244.053 71.58 244.08C71.02 244.093 70.58 244.107 70.26 244.12C69.6733 245.013 69.0133 245.867 68.28 246.68C67.5467 247.48 66.7333 248.22 65.84 248.9C65.6267 248.633 65.3467 248.327 65 247.98C64.6533 247.633 64.3467 247.387 64.08 247.24C65.0133 246.573 65.8867 245.78 66.7 244.86C67.5267 243.94 68.24 242.96 68.84 241.92C69.4533 240.88 69.9133 239.86 70.22 238.86L72.52 239.58C72.3733 239.993 72.2133 240.407 72.04 240.82C71.8667 241.22 71.68 241.613 71.48 242C72.0667 241.987 72.7 241.973 73.38 241.96C74.0733 241.933 74.72 241.907 75.32 241.88C75.92 241.84 76.38 241.8 76.7 241.76L78.26 242.6C77.9133 243.667 77.5 244.68 77.02 245.64C76.54 246.587 76.0067 247.487 75.42 248.34C75.9267 248.713 76.4 249.093 76.84 249.48C77.2933 249.853 77.6667 250.207 77.96 250.54C77.7733 250.673 77.56 250.86 77.32 251.1C77.0933 251.34 76.8733 251.587 76.66 251.84C76.46 252.093 76.3 252.313 76.18 252.5C75.5533 251.793 74.7733 251.053 73.84 250.28C72.72 251.52 71.4533 252.613 70.04 253.56C68.64 254.507 67.1133 255.313 65.46 255.98ZM88.02 255.26C87.9133 254.98 87.7533 254.66 87.54 254.3C87.3267 253.927 87.12 253.64 86.92 253.44C89.2267 252.893 91.0867 251.92 92.5 250.52C93.9267 249.12 94.8067 247.22 95.14 244.82L97.08 245.14C96.7867 247.073 96.2267 248.7 95.4 250.02C94.5867 251.34 93.5533 252.42 92.3 253.26C91.06 254.087 89.6333 254.753 88.02 255.26ZM86.78 249.12C86.74 248.853 86.6533 248.513 86.52 248.1C86.3867 247.687 86.2333 247.28 86.06 246.88C85.9 246.48 85.7533 246.173 85.62 245.96L87.44 245.3C87.5733 245.527 87.72 245.847 87.88 246.26C88.04 246.673 88.1867 247.093 88.32 247.52C88.4667 247.933 88.5733 248.287 88.64 248.58L86.78 249.12ZM90.2 248.36C90.1733 248.093 90.1 247.753 89.98 247.34C89.86 246.913 89.7267 246.5 89.58 246.1C89.4333 245.687 89.2933 245.373 89.16 245.16L90.98 244.56C91.1 244.8 91.2333 245.127 91.38 245.54C91.54 245.953 91.68 246.373 91.8 246.8C91.9333 247.213 92.0267 247.567 92.08 247.86L90.2 248.36ZM106.76 255.02C106.68 254.847 106.547 254.62 106.36 254.34C106.187 254.06 105.993 253.78 105.78 253.5C105.58 253.22 105.387 253 105.2 252.84C107.747 252.013 109.847 250.867 111.5 249.4C113.153 247.92 114.347 246.04 115.08 243.76C114.453 243.773 113.74 243.793 112.94 243.82C112.153 243.847 111.34 243.873 110.5 243.9C109.66 243.927 108.853 243.953 108.08 243.98C107.32 244.007 106.653 244.033 106.08 244.06C105.507 244.073 105.087 244.087 104.82 244.1L104.66 241.42C105.047 241.447 105.553 241.467 106.18 241.48C106.82 241.493 107.52 241.5 108.28 241.5C109.04 241.5 109.827 241.5 110.64 241.5C111.453 241.487 112.233 241.473 112.98 241.46C113.74 241.433 114.427 241.407 115.04 241.38C115.653 241.353 116.14 241.32 116.5 241.28L118.12 242.14C117.68 244.273 116.933 246.187 115.88 247.88C114.84 249.56 113.547 251.007 112 252.22C110.467 253.42 108.72 254.353 106.76 255.02ZM119.5 242.08C118.953 242.08 118.48 241.887 118.08 241.5C117.693 241.1 117.5 240.627 117.5 240.08C117.5 239.533 117.693 239.067 118.08 238.68C118.48 238.293 118.953 238.1 119.5 238.1C120.047 238.1 120.513 238.293 120.9 238.68C121.287 239.067 121.48 239.533 121.48 240.08C121.48 240.627 121.287 241.1 120.9 241.5C120.513 241.887 120.047 242.08 119.5 242.08ZM119.5 241.22C119.807 241.22 120.067 241.113 120.28 240.9C120.507 240.673 120.62 240.4 120.62 240.08C120.62 239.773 120.507 239.513 120.28 239.3C120.067 239.073 119.807 238.96 119.5 238.96C119.18 238.96 118.907 239.073 118.68 239.3C118.467 239.513 118.36 239.773 118.36 240.08C118.36 240.4 118.467 240.673 118.68 240.9C118.907 241.113 119.18 241.22 119.5 241.22ZM130.9 255.62C129.833 255.62 128.967 255.513 128.3 255.3C127.647 255.087 127.167 254.727 126.86 254.22C126.567 253.713 126.42 253.027 126.42 252.16V238.94L129.04 239.1C129.013 239.327 128.987 239.707 128.96 240.24C128.933 240.773 128.913 241.347 128.9 241.96C128.887 242.453 128.873 242.993 128.86 243.58C128.86 244.167 128.86 244.813 128.86 245.52V251.68C128.86 252.267 129.02 252.667 129.34 252.88C129.673 253.093 130.247 253.2 131.06 253.2C132.367 253.2 133.6 252.953 134.76 252.46C135.933 251.967 136.947 251.353 137.8 250.62C137.813 250.873 137.84 251.18 137.88 251.54C137.933 251.887 137.987 252.22 138.04 252.54C138.107 252.847 138.16 253.087 138.2 253.26C137.24 253.953 136.12 254.52 134.84 254.96C133.573 255.4 132.26 255.62 130.9 255.62ZM156.24 255.78C154.853 255.62 153.627 255.22 152.56 254.58C151.493 253.927 150.66 253.08 150.06 252.04C149.46 250.987 149.16 249.793 149.16 248.46C149.16 247.5 149.393 246.527 149.86 245.54C150.327 244.54 151.013 243.653 151.92 242.88C150.853 243.053 149.793 243.24 148.74 243.44C147.687 243.627 146.727 243.807 145.86 243.98C145.007 244.153 144.347 244.307 143.88 244.44L143.34 241.84C143.78 241.813 144.387 241.753 145.16 241.66C145.947 241.567 146.827 241.453 147.8 241.32C148.787 241.173 149.8 241.02 150.84 240.86C151.893 240.687 152.907 240.513 153.88 240.34C154.867 240.167 155.747 240 156.52 239.84C157.307 239.667 157.92 239.513 158.36 239.38L159 241.82C158.8 241.833 158.547 241.867 158.24 241.92C157.947 241.96 157.607 242.007 157.22 242.06C156.5 242.153 155.8 242.38 155.12 242.74C154.453 243.1 153.853 243.567 153.32 244.14C152.8 244.7 152.387 245.347 152.08 246.08C151.773 246.813 151.62 247.607 151.62 248.46C151.62 249.473 151.88 250.32 152.4 251C152.92 251.68 153.627 252.213 154.52 252.6C155.427 252.973 156.44 253.227 157.56 253.36C157.36 253.573 157.167 253.833 156.98 254.14C156.793 254.433 156.633 254.727 156.5 255.02C156.367 255.327 156.28 255.58 156.24 255.78ZM172.38 255.36C172.3 255.053 172.133 254.68 171.88 254.24C171.64 253.8 171.387 253.44 171.12 253.16C173.013 253.053 174.46 252.593 175.46 251.78C176.473 250.967 176.98 249.867 176.98 248.48C176.98 247.627 176.727 246.893 176.22 246.28C175.713 245.667 175.02 245.227 174.14 244.96C173.42 246.52 172.6 247.94 171.68 249.22C172.08 249.513 172.467 249.753 172.84 249.94C172.573 250.14 172.307 250.427 172.04 250.8C171.773 251.16 171.567 251.487 171.42 251.78C171.22 251.673 171.02 251.56 170.82 251.44C170.62 251.307 170.42 251.167 170.22 251.02C169.393 251.94 168.567 252.64 167.74 253.12C166.993 253.56 166.293 253.773 165.64 253.76C165 253.733 164.48 253.487 164.08 253.02C163.693 252.54 163.5 251.833 163.5 250.9C163.5 249.927 163.713 248.98 164.14 248.06C164.567 247.127 165.133 246.293 165.84 245.56C165.44 244.813 165.08 244.073 164.76 243.34C164.453 242.593 164.2 241.9 164 241.26L166.1 240.42C166.193 240.98 166.36 241.58 166.6 242.22C166.84 242.86 167.14 243.513 167.5 244.18C168.207 243.713 168.953 243.353 169.74 243.1C170.54 242.833 171.353 242.7 172.18 242.7H172.62C172.847 242.073 173.04 241.447 173.2 240.82C173.373 240.18 173.493 239.573 173.56 239L175.96 239.6C175.84 240.173 175.693 240.753 175.52 241.34C175.36 241.913 175.167 242.493 174.94 243.08C175.887 243.36 176.687 243.773 177.34 244.32C178.007 244.853 178.513 245.48 178.86 246.2C179.22 246.907 179.4 247.667 179.4 248.48C179.4 249.68 179.133 250.767 178.6 251.74C178.067 252.7 177.28 253.493 176.24 254.12C175.2 254.747 173.913 255.16 172.38 255.36ZM166.7 251.26C167.34 250.913 167.993 250.353 168.66 249.58C168.353 249.247 168.06 248.9 167.78 248.54C167.5 248.167 167.227 247.793 166.96 247.42C166.547 247.927 166.22 248.473 165.98 249.06C165.753 249.647 165.64 250.247 165.64 250.86C165.64 251.5 165.993 251.633 166.7 251.26ZM170.04 247.76C170.667 246.8 171.24 245.787 171.76 244.72C171.2 244.76 170.647 244.887 170.1 245.1C169.553 245.3 169.04 245.573 168.56 245.92C169.013 246.56 169.507 247.173 170.04 247.76ZM193.54 256.5C193.3 256.007 192.973 255.453 192.56 254.84C192.16 254.213 191.713 253.573 191.22 252.92C190.74 252.253 190.247 251.607 189.74 250.98C189.233 250.353 188.753 249.793 188.3 249.3C187.86 248.793 187.48 248.393 187.16 248.1C186.707 247.66 186.48 247.273 186.48 246.94C186.48 246.593 186.7 246.233 187.14 245.86C187.473 245.567 187.867 245.193 188.32 244.74C188.773 244.287 189.247 243.787 189.74 243.24C190.233 242.693 190.713 242.133 191.18 241.56C191.66 240.987 192.087 240.433 192.46 239.9C192.847 239.353 193.147 238.86 193.36 238.42L195.64 239.96C195.347 240.36 194.94 240.853 194.42 241.44C193.913 242.027 193.367 242.64 192.78 243.28C192.207 243.907 191.647 244.507 191.1 245.08C190.553 245.64 190.087 246.107 189.7 246.48C189.393 246.787 189.407 247.113 189.74 247.46C190.033 247.753 190.393 248.147 190.82 248.64C191.26 249.12 191.72 249.66 192.2 250.26C192.693 250.847 193.18 251.44 193.66 252.04C194.14 252.64 194.573 253.207 194.96 253.74C195.347 254.26 195.653 254.693 195.88 255.04C195.667 255.12 195.407 255.247 195.1 255.42C194.793 255.593 194.493 255.773 194.2 255.96C193.92 256.16 193.7 256.34 193.54 256.5ZM212.04 255.64C210.44 255.64 209.26 255.34 208.5 254.74C207.74 254.127 207.36 253.38 207.36 252.5C207.36 251.927 207.5 251.44 207.78 251.04C208.06 250.64 208.427 250.333 208.88 250.12C209.333 249.893 209.82 249.78 210.34 249.78C211.327 249.78 212.12 250.087 212.72 250.7C213.333 251.313 213.727 252.073 213.9 252.98C214.393 252.753 214.793 252.407 215.1 251.94C215.42 251.473 215.58 250.913 215.58 250.26C215.58 249.7 215.447 249.2 215.18 248.76C214.913 248.32 214.533 247.973 214.04 247.72C213.56 247.453 213 247.32 212.36 247.32C211.467 247.32 210.687 247.427 210.02 247.64C209.367 247.853 208.773 248.193 208.24 248.66C208 248.873 207.68 249.147 207.28 249.48C206.893 249.813 206.527 250.113 206.18 250.38L204.54 248.62C205.14 248.273 205.78 247.833 206.46 247.3C207.14 246.767 207.827 246.173 208.52 245.52C209.213 244.867 209.873 244.193 210.5 243.5C211.127 242.793 211.687 242.1 212.18 241.42C211.607 241.553 210.98 241.68 210.3 241.8C209.633 241.92 208.987 242.02 208.36 242.1C207.747 242.18 207.227 242.233 206.8 242.26L206.36 239.98C206.72 240.007 207.167 240.007 207.7 239.98C208.247 239.94 208.833 239.893 209.46 239.84C210.087 239.773 210.693 239.693 211.28 239.6C211.88 239.507 212.413 239.413 212.88 239.32C213.36 239.213 213.713 239.107 213.94 239L215.74 240.2C215.287 241.093 214.66 242.033 213.86 243.02C213.073 243.993 212.227 244.933 211.32 245.84C211.547 245.733 211.8 245.653 212.08 245.6C212.36 245.533 212.633 245.5 212.9 245.5C213.953 245.5 214.867 245.7 215.64 246.1C216.413 246.5 217.013 247.06 217.44 247.78C217.88 248.487 218.1 249.313 218.1 250.26C218.1 251.26 217.847 252.167 217.34 252.98C216.847 253.793 216.147 254.44 215.24 254.92C214.333 255.4 213.267 255.64 212.04 255.64ZM211.78 253.44C211.713 252.933 211.553 252.527 211.3 252.22C211.06 251.913 210.74 251.76 210.34 251.76C210.127 251.76 209.947 251.813 209.8 251.92C209.653 252.027 209.58 252.187 209.58 252.4C209.58 252.68 209.727 252.913 210.02 253.1C210.327 253.287 210.833 253.393 211.54 253.42C211.58 253.433 211.62 253.44 211.66 253.44C211.7 253.44 211.74 253.44 211.78 253.44Z" fill="black"/>
</g>
<defs>
<clipPath id="clip0_1315_2205">
<rect width="283.46" height="419.53" fill="white"/>
</clipPath>
</defs>
</svg>
