<svg width="284" height="420" viewBox="0 0 284 420" fill="none" xmlns="http://www.w3.org/2000/svg">
<g clip-path="url(#clip0_1226_1323)">
<rect width="283.46" height="419.53" fill="white"/>
<path d="M78.1698 25.3701H24.4198C23.9504 25.3701 23.5698 25.7507 23.5698 26.2201V91.2101C23.5698 91.6796 23.9504 92.0601 24.4198 92.0601H78.1698C78.6393 92.0601 79.0198 91.6796 79.0198 91.2101V26.2201C79.0198 25.7507 78.6393 25.3701 78.1698 25.3701Z" fill="#BF1A20"/>
<path d="M143.3 37.0698C143.52 37.0698 143.7 37.2498 143.7 37.4698V58.4498C143.7 58.6698 143.52 58.8498 143.3 58.8498H129.15C128.93 58.8498 128.75 58.6698 128.75 58.4498V37.4698C128.75 37.2498 128.93 37.0698 129.15 37.0698H143.3ZM143.3 36.0698H129.15C128.37 36.0698 127.75 36.6998 127.75 37.4698V58.4498C127.75 59.2298 128.38 59.8498 129.15 59.8498H143.3C144.08 59.8498 144.7 59.2198 144.7 58.4498V37.4698C144.7 36.6898 144.07 36.0698 143.3 36.0698Z" fill="#BF1A20"/>
<path d="M163.21 37.0698C163.4 37.0698 163.55 37.2198 163.55 37.4098V58.5198C163.55 58.7098 163.4 58.8598 163.21 58.8598H148.93C148.74 58.8598 148.59 58.7098 148.59 58.5198V37.4098C148.59 37.2198 148.74 37.0698 148.93 37.0698H163.21ZM163.21 36.0698H148.93C148.19 36.0698 147.59 36.6698 147.59 37.4098V58.5198C147.59 59.2598 148.19 59.8598 148.93 59.8598H163.21C163.95 59.8598 164.55 59.2598 164.55 58.5198V37.4098C164.55 36.6698 163.95 36.0698 163.21 36.0698Z" fill="#BF1A20"/>
<path d="M182.93 37.0698C183.19 37.0698 183.4 37.2798 183.4 37.5398V58.3898C183.4 58.6498 183.19 58.8598 182.93 58.8598H168.91C168.65 58.8598 168.44 58.6498 168.44 58.3898V37.5398C168.44 37.2798 168.65 37.0698 168.91 37.0698H182.93ZM182.93 36.0698H168.91C168.1 36.0698 167.44 36.7298 167.44 37.5398V58.3898C167.44 59.1998 168.1 59.8598 168.91 59.8598H182.93C183.74 59.8598 184.4 59.1998 184.4 58.3898V37.5398C184.4 36.7298 183.74 36.0698 182.93 36.0698Z" fill="#BF1A20"/>
<path d="M202.2 36.8198C202.91 36.8198 203.5 37.3998 203.5 38.1198V57.8198C203.5 58.5298 202.92 59.1198 202.2 59.1198H189.33C188.62 59.1198 188.03 58.5398 188.03 57.8198V38.1198C188.03 37.4098 188.61 36.8198 189.33 36.8198H202.2ZM202.2 36.0698H189.33C188.2 36.0698 187.28 36.9898 187.28 38.1198V57.8198C187.28 58.9498 188.2 59.8698 189.33 59.8698H202.2C203.33 59.8698 204.25 58.9498 204.25 57.8198V38.1198C204.25 36.9898 203.33 36.0698 202.2 36.0698Z" fill="#BF1A20"/>
<path d="M183.84 48.02H187.56" stroke="#BF1A20" stroke-miterlimit="10"/>
<path d="M136.9 27.59H133.82V29.06C133.82 29.21 133.65 29.38 133.43 29.38C133.19 29.38 133.04 29.21 133.04 29.06V27.59H128.79C128.65 27.59 128.48 27.46 128.48 27.25C128.48 27.04 128.65 26.91 128.79 26.91H129.75V24.82C129.75 24.46 130.05 24.16 130.44 24.16H133.03V22.59H130.41C130.26 22.95 129.46 24.58 128.97 24.58C128.77 24.58 128.59 24.39 128.59 24.18C128.59 24.09 128.63 24.02 128.68 23.96C129.19 23.41 129.75 22.45 129.94 21.48C129.97 21.35 130.12 21.21 130.32 21.21C130.58 21.21 130.71 21.41 130.71 21.56L130.64 21.91H136.65C136.8 21.91 136.96 22.03 136.96 22.25C136.96 22.44 136.8 22.59 136.65 22.59H133.8V24.16H136.5C136.64 24.16 136.82 24.3 136.82 24.51C136.82 24.72 136.64 24.84 136.5 24.84H133.8V26.91H136.88C137.03 26.91 137.19 27.05 137.19 27.25C137.19 27.45 137.03 27.59 136.88 27.59H136.9ZM133.04 24.84H130.75C130.63 24.84 130.52 24.94 130.52 25.06V26.91H133.04V24.84Z" fill="#040000"/>
<path d="M143.01 23.7397H142.4C142.27 23.7397 142.13 23.6197 142.13 23.4597C142.13 23.2797 142.27 23.1697 142.4 23.1697H142.84C143.27 23.1697 143.45 23.0897 143.45 22.6397V22.3997C143.45 22.2697 143.36 22.1897 143.21 22.1897H141.9C141.81 22.9497 141.23 23.8097 140.3 24.0097C140.25 24.0097 140.22 24.0097 140.18 24.0097C139.97 24.0097 139.82 23.8897 139.82 23.7097C139.82 23.5697 139.91 23.4397 140.09 23.3997C140.66 23.2797 141.09 22.8197 141.18 22.1897H140.12C139.99 22.1897 139.85 22.0697 139.85 21.8997C139.85 21.7397 139.99 21.6297 140.12 21.6297H141.19V21.5097C141.19 21.3497 141.33 21.2197 141.55 21.2197C141.77 21.2197 141.91 21.3497 141.91 21.5097V21.6297H143.46C143.86 21.6297 144.16 21.9097 144.16 22.2797V22.7097C144.16 23.4797 143.72 23.7597 143.01 23.7597V23.7397ZM148 29.4097C147.4 29.4097 145.99 28.8997 145.5 28.5697C145.42 28.5197 145.39 28.4497 145.39 28.3597C145.39 28.2997 145.42 28.2397 145.47 28.1797H142.94C142.99 28.2297 143.01 28.2997 143.01 28.3597C143.01 28.4497 142.97 28.5197 142.91 28.5697C142.42 28.9197 141.01 29.4097 140.4 29.4097C140.18 29.4097 140.04 29.2897 140.04 29.0997C140.04 28.9497 140.14 28.8297 140.29 28.8197C141.01 28.7397 141.79 28.4697 142.37 28.1797H141.03C140.64 28.1797 140.34 27.8997 140.34 27.5197V24.6997C140.34 24.3297 140.64 24.0397 141.03 24.0397H147.41C147.79 24.0397 148.1 24.3197 148.1 24.6997V27.5197C148.1 27.8897 147.79 28.1797 147.41 28.1797H146.07C146.64 28.4597 147.42 28.7397 148.14 28.8197C148.28 28.8397 148.39 28.9497 148.39 29.0997C148.39 29.2897 148.25 29.4097 148.02 29.4097H148ZM147.32 24.7797C147.32 24.6597 147.23 24.5697 147.1 24.5697H141.31C141.19 24.5697 141.09 24.6697 141.09 24.7797V25.2597H147.31V24.7797H147.32ZM147.32 25.7697H141.1V26.4597H147.32V25.7697ZM147.32 26.9797H141.1V27.4597C141.1 27.5797 141.19 27.6697 141.32 27.6697H147.11C147.23 27.6697 147.33 27.5697 147.33 27.4597V26.9797H147.32ZM147.53 23.6597H145.61C145.21 23.6597 144.91 23.3797 144.91 23.0097V22.0897C144.91 21.7397 145.21 21.4397 145.61 21.4397H147.53C147.92 21.4397 148.23 21.7297 148.23 22.0897V23.0097C148.23 23.3697 147.92 23.6597 147.53 23.6597ZM147.54 22.1897C147.54 22.0697 147.45 21.9897 147.31 21.9897H145.82C145.69 21.9897 145.58 22.0797 145.58 22.1897V22.9197C145.58 23.0397 145.68 23.1197 145.82 23.1197H147.31C147.44 23.1197 147.54 23.0397 147.54 22.9197V22.1897Z" fill="#040000"/>
<path d="M153.751 29.0999H153.441C151.971 29.0999 151.511 28.3199 151.511 27.1299V21.8399C151.511 21.6599 151.651 21.5499 151.851 21.5499H152.031C152.221 21.5499 152.351 21.6799 152.351 21.8399V27.0999C152.351 27.9299 152.671 28.3299 153.541 28.3299H153.801C153.961 28.3299 154.061 28.4299 154.061 28.6199V28.7999C154.061 28.9999 153.931 29.0899 153.741 29.0899L153.751 29.0999ZM159.391 26.4599H158.601V27.3999C158.601 28.4099 158.101 29.1599 156.651 29.1599H155.961C154.841 29.1599 154.041 28.5399 154.041 27.3799C154.041 26.3499 154.791 25.6299 156.031 25.6299H157.751V23.1199H154.051C153.881 23.1199 153.741 22.9899 153.741 22.8099V22.6199C153.741 22.4499 153.881 22.3199 154.051 22.3199H157.751V21.6799C157.751 21.5399 157.881 21.4399 158.081 21.4399H158.261C158.491 21.4399 158.601 21.5499 158.601 21.6799V22.3199H159.381C159.561 22.3199 159.691 22.4499 159.691 22.6199V22.8099C159.691 22.9899 159.561 23.1199 159.381 23.1199H158.601V25.6599H159.391C159.561 25.6599 159.691 25.7899 159.691 25.9799V26.1399C159.691 26.3199 159.561 26.4499 159.391 26.4499V26.4599ZM157.751 26.3899H156.061C155.191 26.3899 154.821 26.8199 154.821 27.3799C154.821 28.1099 155.261 28.4299 155.981 28.4299H156.591C157.441 28.4299 157.751 28.0299 157.751 27.4099V26.3899Z" fill="#040000"/>
<path d="M167.16 29.1801H166.1C165.93 29.1801 165.8 29.0401 165.8 28.8601V28.7201C165.8 28.5501 165.92 28.4001 166.1 28.4001H167.09C168.03 28.4001 168.37 28.0501 168.37 27.3001V25.0401C168.37 23.8401 168.03 23.3801 166.62 23.3801H164.62L164.31 28.9201C164.31 29.0901 164.17 29.2001 163.98 29.2001H163.81C163.64 29.2001 163.47 29.1101 163.48 28.9301L163.79 23.3701H163C162.84 23.3701 162.74 23.2501 162.74 23.0601V22.8901C162.74 22.7001 162.87 22.5701 163.04 22.5701H163.83L163.89 21.6401C163.89 21.4701 164.02 21.3701 164.21 21.3701H164.38C164.57 21.3701 164.73 21.4601 164.72 21.6201L164.66 22.5701H166.58C168.54 22.5701 169.2 23.2401 169.2 25.0501V27.3401C169.2 28.5201 168.62 29.1601 167.16 29.1601V29.1801ZM171.13 21.9401H169.57C169.46 21.9401 169.36 21.8301 169.36 21.6901C169.36 21.5501 169.45 21.4401 169.57 21.4401H171.13C171.24 21.4401 171.34 21.5501 171.34 21.6901C171.34 21.8301 171.25 21.9401 171.13 21.9401ZM171.13 22.8301H169.57C169.46 22.8301 169.36 22.7301 169.36 22.5801C169.36 22.4401 169.45 22.3401 169.57 22.3401H171.13C171.24 22.3401 171.34 22.4401 171.34 22.5801C171.34 22.7301 171.25 22.8301 171.13 22.8301ZM170.75 27.5101H170.63C170.44 27.5101 170.29 27.4101 170.29 27.2401V23.6301C170.29 23.4501 170.44 23.3401 170.63 23.3401H170.75C170.94 23.3401 171.09 23.4601 171.09 23.6301V27.2401C171.09 27.4201 170.94 27.5101 170.75 27.5101Z" fill="#040000"/>
<path d="M182.111 24.6499H180.521V25.7299C180.521 26.0999 180.211 26.3899 179.811 26.3899H176.091C175.411 26.3899 174.941 26.8199 174.941 27.4199C174.941 28.0899 175.391 28.4499 176.091 28.4499H181.471C181.651 28.4499 181.771 28.5899 181.771 28.7599V28.8699C181.771 29.0599 181.651 29.1899 181.471 29.1899H175.981C174.861 29.1899 174.091 28.5799 174.091 27.4499C174.091 26.4699 174.881 25.7099 175.971 25.7099H179.411C179.551 25.7099 179.671 25.6099 179.671 25.4699V24.6499H174.761C174.591 24.6499 174.471 24.5099 174.471 24.3199V24.2799C174.471 24.0999 174.591 23.9699 174.761 23.9699H179.651L179.631 22.8699H174.761C174.591 22.8699 174.471 22.7399 174.471 22.5499V22.5099C174.471 22.3399 174.591 22.1999 174.761 22.1999H179.621V21.6699C179.621 21.5499 179.751 21.3999 179.961 21.3999H180.151C180.361 21.3999 180.471 21.5499 180.471 21.6599V22.1999H182.101C182.271 22.1999 182.391 22.3299 182.391 22.5099V22.5699C182.391 22.7499 182.271 22.8699 182.101 22.8699H180.491V23.9699H182.101C182.271 23.9699 182.391 24.0999 182.391 24.2799V24.3399C182.391 24.5199 182.271 24.6499 182.101 24.6499H182.111Z" fill="#040000"/>
<path d="M78.5798 94.5898H24.0098C23.7668 94.5898 23.5698 94.7868 23.5698 95.0298V96.9598C23.5698 97.2029 23.7668 97.3998 24.0098 97.3998H78.5798C78.8228 97.3998 79.0198 97.2029 79.0198 96.9598V95.0298C79.0198 94.7868 78.8228 94.5898 78.5798 94.5898Z" fill="#BF1A20"/>
<path d="M79.0205 36.6099H70.3105C69.0205 36.6099 67.9805 35.3799 67.9805 33.8699C67.9805 32.3599 69.0205 31.1299 70.3105 31.1299C73.5505 31.1299 79.0205 31.1299 79.0205 31.1299V36.6099Z" fill="#FFD199"/>
<path d="M74.7904 27.3398H64.4004C63.0197 27.3398 61.9004 28.4591 61.9004 29.8398C61.9004 31.2206 63.0197 32.3398 64.4004 32.3398H74.7904C76.1711 32.3398 77.2904 31.2206 77.2904 29.8398C77.2904 28.4591 76.1711 27.3398 74.7904 27.3398Z" fill="#FFD199"/>
<path d="M23.5698 79.8398H34.3398C35.7198 79.8398 36.8398 80.9598 36.8398 82.3398C36.8398 83.7198 35.7198 84.8398 34.3398 84.8398H23.5698V79.8398Z" fill="#FFD199"/>
<path d="M40.5902 84.25H30.2002C28.8195 84.25 27.7002 85.3693 27.7002 86.75C27.7002 88.1307 28.8195 89.25 30.2002 89.25H40.5902C41.9709 89.25 43.0902 88.1307 43.0902 86.75C43.0902 85.3693 41.9709 84.25 40.5902 84.25Z" fill="#FFD199"/>
<path d="M29.96 49.4198V42.0298H49.38V61.7398H45.06C43.25 61.7398 41.82 63.4198 41.82 65.4298C41.82 67.4398 43.24 69.1198 45.06 69.1198H49.38V76.5098H29.96V56.7998H34.28C36.05 56.7998 37.52 55.1698 37.52 53.1098C37.52 51.0498 36.05 49.4598 34.28 49.4598L29.96 49.4098V49.4198Z" fill="white"/>
<path d="M62.9404 51.9298C62.9404 53.2598 63.9304 54.3898 65.1504 54.3898H71.9504V76.5598H51.6904V69.1698H58.4504C60.3004 69.1698 61.8304 67.4898 61.8304 65.4698C61.8304 63.4498 60.3004 61.7798 58.4504 61.7798H51.6904V42.0698H71.9504V49.4598H65.2004C63.9404 49.4598 62.9504 50.5398 62.9504 51.9198L62.9404 51.9298Z" fill="white"/>
<path d="M261.37 391.8H22.1001V402.55H261.37V391.8Z" fill="#BF1A20"/>
<path d="M222.04 36.8701C222.75 36.8701 223.34 37.4501 223.34 38.1701V57.8701C223.34 58.5801 222.76 59.1701 222.04 59.1701H209.17C208.46 59.1701 207.87 58.5901 207.87 57.8701V38.1701C207.87 37.4601 208.45 36.8701 209.17 36.8701H222.04ZM222.04 36.1201H209.17C208.04 36.1201 207.12 37.0401 207.12 38.1701V57.8701C207.12 59.0001 208.04 59.9201 209.17 59.9201H222.04C223.17 59.9201 224.09 59.0001 224.09 57.8701V38.1701C224.09 37.0401 223.17 36.1201 222.04 36.1201Z" fill="#BF1A20"/>
<path d="M241.89 36.8501C242.6 36.8501 243.19 37.4301 243.19 38.1501V57.8501C243.19 58.5601 242.61 59.1501 241.89 59.1501H229.02C228.31 59.1501 227.72 58.5701 227.72 57.8501V38.1501C227.72 37.4401 228.3 36.8501 229.02 36.8501H241.89ZM241.89 36.1001H229.02C227.89 36.1001 226.97 37.0201 226.97 38.1501V57.8501C226.97 58.9801 227.89 59.9001 229.02 59.9001H241.89C243.02 59.9001 243.94 58.9801 243.94 57.8501V38.1501C243.94 37.0201 243.02 36.1001 241.89 36.1001Z" fill="#BF1A20"/>
<path d="M261.73 36.8999C262.44 36.8999 263.03 37.4799 263.03 38.1999V57.8999C263.03 58.6099 262.45 59.1999 261.73 59.1999H248.86C248.15 59.1999 247.56 58.6199 247.56 57.8999V38.1999C247.56 37.4899 248.14 36.8999 248.86 36.8999H261.73ZM261.73 36.1499H248.86C247.73 36.1499 246.81 37.0699 246.81 38.1999V57.8999C246.81 59.0299 247.73 59.9499 248.86 59.9499H261.73C262.86 59.9499 263.78 59.0299 263.78 57.8999V38.1999C263.78 37.0699 262.86 36.1499 261.73 36.1499Z" fill="#BF1A20"/>
<path d="M51.4004 123.27V133.53" stroke="#BF1A20" stroke-width="23" stroke-miterlimit="10" stroke-linecap="round"/>
<path d="M41.5698 130.42L51.3298 133.59" stroke="#BF1A20" stroke-width="23" stroke-miterlimit="10" stroke-linecap="round"/>
<path d="M51.3496 133.55L61.0196 130.11" stroke="#BF1A20" stroke-width="23" stroke-miterlimit="10" stroke-linecap="round"/>
<path d="M51.0896 134L45.0596 141.79" stroke="#BF1A20" stroke-width="23" stroke-miterlimit="10" stroke-linecap="round"/>
<path d="M51.6699 134.06L58.1399 141.72" stroke="#BF1A20" stroke-width="23" stroke-miterlimit="10" stroke-linecap="round"/>
<path d="M34.0399 165.64H30.7099C30.4599 165.64 30.2699 165.72 30.2699 165.99V168.26C30.2699 168.41 30.3999 168.53 30.5699 168.53H36.5899C36.8499 168.53 36.9799 168.67 36.9799 168.89V169.07C36.9799 169.3 36.8499 169.43 36.5899 169.43H30.0399C29.5499 169.43 29.1899 169.1 29.1899 168.7V165.65C29.1899 165.09 29.6399 164.77 30.2099 164.77H33.9899C35.4999 164.77 35.9699 164.25 35.9699 163.48V163.2C35.9699 162.41 35.3399 161.93 34.0499 161.93H29.5699C29.3099 161.93 29.1899 161.79 29.1899 161.57V161.38C29.1899 161.16 29.3099 161.03 29.5699 161.03H34.0099C35.9999 161.03 37.0699 161.77 37.0699 163.17V163.46C37.0699 164.93 36.1099 165.65 34.0499 165.65L34.0399 165.64Z" fill="#040000"/>
<path d="M45.3497 169.41H44.2897C41.6697 169.41 40.7397 168.18 40.7397 166.36V164.07C40.7397 162.25 41.6697 161.02 44.2897 161.02H45.3497C47.9697 161.02 48.8997 162.26 48.8997 164.07V166.36C48.8997 168.19 47.9697 169.41 45.3497 169.41ZM47.8597 164.08C47.8597 162.57 46.9797 161.91 45.3497 161.91H44.3097C42.6897 161.91 41.8197 162.57 41.8197 164.08V166.36C41.8197 167.87 42.6897 168.52 44.3097 168.52H45.3497C46.9897 168.52 47.8597 167.87 47.8597 166.36V164.08Z" fill="#040000"/>
<path d="M57.5297 165.64H54.1997C53.9497 165.64 53.7597 165.72 53.7597 165.99V168.26C53.7597 168.41 53.8897 168.53 54.0597 168.53H60.0797C60.3397 168.53 60.4697 168.67 60.4697 168.89V169.07C60.4697 169.3 60.3397 169.43 60.0797 169.43H53.5297C53.0397 169.43 52.6797 169.1 52.6797 168.7V165.65C52.6797 165.09 53.1297 164.77 53.6997 164.77H57.4797C58.9897 164.77 59.4597 164.25 59.4597 163.48V163.2C59.4597 162.41 58.8297 161.93 57.5397 161.93H53.0597C52.7997 161.93 52.6797 161.79 52.6797 161.57V161.38C52.6797 161.16 52.7997 161.03 53.0597 161.03H57.4997C59.4897 161.03 60.5597 161.77 60.5597 163.17V163.46C60.5597 164.93 59.5997 165.65 57.5397 165.65L57.5297 165.64Z" fill="#040000"/>
<path d="M69.5195 169.42H64.6095C64.3495 169.42 64.2295 169.28 64.2295 169.06V168.87C64.2295 168.65 64.3495 168.52 64.6095 168.52H69.5895C70.8795 168.52 71.3795 167.81 71.3795 167.09V166.87C71.3795 166.04 70.9395 165.34 69.5295 165.34H65.3995C64.6595 165.34 64.2295 164.92 64.2295 164.28V161.74C64.2295 161.33 64.5995 161 65.0695 161H71.6195C71.8695 161 71.9895 161.14 71.9895 161.35V161.56C71.9895 161.78 71.8595 161.9 71.6095 161.9H65.5695C65.3895 161.9 65.2595 162.02 65.2595 162.18V164.04C65.2595 164.34 65.4295 164.47 65.7495 164.47H69.5195C71.4095 164.47 72.4595 165.16 72.4595 166.88V167.08C72.4595 168.48 71.4495 169.42 69.5195 169.42Z" fill="#040000"/>
</g>
<defs>
<clipPath id="clip0_1226_1323">
<rect width="283.46" height="419.53" fill="white"/>
</clipPath>
</defs>
</svg>
