<svg width="156" height="157" viewBox="0 0 156 157" fill="none" xmlns="http://www.w3.org/2000/svg">
<g filter="url(#filter0_d_1321_2211)">
<path d="M147.963 146.41L128.114 41.6467C127.772 39.855 126.345 38.4723 124.539 38.1972L94.8806 33.6549C91.3135 14.5042 74.5334 0 54.3496 0C31.5723 0 13.1052 18.4741 13.1052 41.2601C13.1052 54.3295 19.1916 65.979 28.6741 73.5322L0.560988 123.208C-0.917865 125.817 0.67246 129.103 3.63017 129.572L143.081 151.458C146.016 151.919 148.521 149.332 147.971 146.41H147.963Z" fill="white"/>
<path d="M128.33 93.0543C129.474 98.5259 130.663 103.99 131.756 109.477C132.722 114.294 133.539 119.134 134.513 123.944C135.442 128.553 136.489 133.132 137.463 137.734C137.641 138.582 137.805 139.444 137.857 140.299C137.939 141.607 137.344 142.113 135.984 141.89C131.466 141.154 126.955 140.336 122.437 139.637C117.903 138.939 113.355 138.396 108.822 137.697C106.504 137.34 104.23 136.745 101.918 136.366C98.0615 135.734 94.1972 135.177 90.3328 134.597C86.9961 134.099 83.652 133.623 80.3153 133.103C76.0273 132.434 71.7394 131.742 67.4589 131.043C59.9829 129.824 52.5217 128.545 45.0383 127.378C38.7439 126.397 32.4346 125.579 26.1402 124.605C22.2536 124.011 18.3818 123.267 14.51 122.591C14.3688 122.568 14.235 122.501 14.0938 122.472C11.4111 121.922 11.1584 121.312 12.563 118.851C15.3869 113.9 18.1886 108.941 21.0348 104.012C24.8917 97.3216 28.7635 90.6382 32.6575 83.9771C33.9878 81.7022 35.4295 79.5017 36.8191 77.264C36.9232 77.1748 37.0272 77.093 37.1313 77.0038V77.0186C39.3904 75.8663 41.6719 74.7586 43.8939 73.5543C46.963 71.8964 49.9876 70.1643 53.0345 68.4618C53.8594 68.0009 54.5431 68.2165 55.0336 68.9748C55.6058 69.8594 56.1186 70.7813 56.6833 71.666C58.9276 75.1824 61.1645 78.6988 63.4385 82.1929C64.0033 83.0552 64.6721 83.3452 65.7348 82.6538C70.1119 79.8065 74.5633 77.0855 78.9479 74.2605C80.7166 73.1231 81.5043 73.0934 83.0054 74.7215C86.6914 78.6988 90.3254 82.7207 93.9891 86.7129C95.245 88.0808 96.2111 88.2369 97.7494 87.2333C98.7749 86.5642 99.7336 85.7836 100.677 84.9956C103.286 82.7951 105.842 80.535 108.473 78.3642C109.825 77.2491 110.264 77.3086 111.49 78.6467C114.054 81.442 116.543 84.3042 119.13 87.0772C120.891 88.9729 122.875 90.6679 124.517 92.6529C125.394 93.7085 126.249 93.6937 127.312 93.4855C127.668 93.4186 128.003 93.2104 128.345 93.0618L128.33 93.0543Z" fill="#60C9DB"/>
<path d="M128.33 93.0548C127.988 93.2034 127.653 93.4116 127.297 93.4785C126.234 93.6792 125.379 93.7015 124.502 92.6459C122.86 90.6609 120.876 88.9659 119.115 87.0702C116.536 84.2898 114.039 81.4276 111.475 78.6397C110.249 77.3016 109.81 77.2421 108.458 78.3572C105.827 80.528 103.271 82.7955 100.662 84.9886C99.726 85.7766 98.7599 86.5646 97.7343 87.2263C96.1886 88.2299 95.2225 88.0664 93.974 86.7059C90.3103 82.7137 86.669 78.6918 82.9904 74.7144C81.4818 73.0863 80.6941 73.1161 78.9328 74.2535C74.5483 77.086 70.0894 79.7995 65.7198 82.6468C64.6571 83.3382 63.9808 83.0408 63.4235 82.1859C61.1494 78.6918 58.9126 75.1754 56.6683 71.659C56.1035 70.7743 55.5907 69.8524 55.0185 68.9678C54.528 68.2095 53.8443 67.9939 53.0195 68.4548C49.9726 70.1498 46.948 71.8894 43.8788 73.5473C41.6494 74.7516 39.3679 75.8593 37.1162 77.0116C37.8148 75.5322 38.5208 74.0602 39.2119 72.5808C39.5909 71.763 39.9402 70.9378 40.3043 70.1201C40.557 69.9119 40.8914 69.7558 41.0474 69.4956C41.9095 68.0608 42.7195 66.6037 43.5518 65.154C46.0116 60.8719 48.4714 56.5897 50.9312 52.3076C53.2127 48.3377 55.4941 44.3604 57.7904 40.3979C59.5814 37.3127 59.0315 37.2458 62.7844 37.9521C63.0667 38.0041 63.364 37.9892 63.6538 38.0338C67.7411 38.7029 71.8358 39.372 75.9157 40.0634C79.6908 40.7027 83.4586 41.3792 87.2263 42.0335C90.1691 42.4869 93.1046 42.9404 96.0474 43.3865C99.0348 43.84 102.022 44.2712 105.01 44.7247C106.124 44.8956 107.232 45.1112 108.339 45.312C111.601 45.8918 114.864 46.442 118.111 47.0888C118.475 47.1631 118.906 47.7578 119.011 48.1816C119.642 50.8877 120.177 53.616 120.772 56.3295C121.73 60.7157 122.756 65.0871 123.677 69.4733C124.785 74.7814 125.825 80.1043 126.873 85.4198C127.378 87.9623 127.846 90.5048 128.33 93.0473V93.0548Z" fill="#F0FDD6"/>
<path d="M87.2258 42.0331C83.4581 41.3715 79.6829 40.7024 75.9152 40.0631C71.8279 39.3717 67.7406 38.71 63.6533 38.0335C63.3709 37.9889 63.0737 38.0038 62.7839 37.9517C59.031 37.2455 59.5809 37.305 57.7899 40.3976C55.4936 44.3601 53.2122 48.3374 50.9307 52.3073C48.4709 56.5894 46.0111 60.8715 43.5513 65.1537C42.719 66.6034 41.909 68.0605 41.0469 69.4953C40.8909 69.7555 40.5565 69.9116 40.3038 70.1198C36.8408 68.5511 33.9574 66.1796 31.453 63.3769C28.094 59.6226 25.6044 55.333 24.3188 50.4339C23.0257 45.5124 22.8028 40.576 23.8283 35.5133C24.8167 30.6439 26.8455 26.3171 29.8032 22.429C34.0391 16.8608 39.5532 13.0173 46.3158 11.1587C51.6367 9.69414 56.9502 9.43394 62.4494 10.7944C67.4136 12.0211 71.8056 14.1324 75.6551 17.3589C81.8009 22.5034 85.5463 29.0604 86.6982 37.0448C86.7353 37.2827 86.8096 37.5131 86.8691 37.7436C86.9286 37.9369 86.988 38.1302 87.0475 38.3235C87.1069 39.5575 87.1738 40.7916 87.2332 42.0331H87.2258Z" fill="#F64635"/>
</g>
<defs>
<filter id="filter0_d_1321_2211" x="0" y="0" width="155.047" height="156.512" filterUnits="userSpaceOnUse" color-interpolation-filters="sRGB">
<feFlood flood-opacity="0" result="BackgroundImageFix"/>
<feColorMatrix in="SourceAlpha" type="matrix" values="0 0 0 0 0 0 0 0 0 0 0 0 0 0 0 0 0 0 127 0" result="hardAlpha"/>
<feOffset dx="7" dy="5"/>
<feComposite in2="hardAlpha" operator="out"/>
<feColorMatrix type="matrix" values="0 0 0 0 0 0 0 0 0 0 0 0 0 0 0 0 0 0 0.25 0"/>
<feBlend mode="normal" in2="BackgroundImageFix" result="effect1_dropShadow_1321_2211"/>
<feBlend mode="normal" in="SourceGraphic" in2="effect1_dropShadow_1321_2211" result="shape"/>
</filter>
</defs>
</svg>
