<svg width="128" height="121" viewBox="0 0 128 121" fill="none" xmlns="http://www.w3.org/2000/svg">
<g filter="url(#filter0_d_1321_2266)">
<path d="M57.0326 96.2363C48.31 101.244 39.461 101.511 30.4798 96.3451C24.3809 92.8381 20.569 87.5597 18.8226 80.9908C17.3657 75.5095 18.2375 70.3966 20.5312 65.5213C20.9465 64.6383 20.907 64.0481 20.3127 63.2216C15.0699 55.911 13.7236 48.0926 17.2274 40.3677C20.8378 32.4081 27.4276 27.6675 36.9366 27.2673C39.2836 27.1685 41.6917 27.4676 44.0529 27.7914C45.1592 27.9435 45.5914 27.7127 46.0018 26.7827C49.3296 19.2335 55.3244 14.6544 63.8462 13.5611C72.222 12.4852 79.7028 15.0348 85.8325 21.2391C89.8165 25.2709 92.0883 29.9807 92.677 35.3884C92.9466 37.8701 93.0209 37.8305 95.5484 38.6835C103.192 41.2631 108.654 46.161 111.483 53.4289C114.62 61.4929 113.706 69.0283 108.236 75.4913C106.494 77.5495 104.077 79.0628 102.037 80.8936C101.547 81.3322 101.034 82.0344 101.038 82.6401C101.054 85.7386 100.993 88.799 99.9329 91.7217C97.2673 99.077 92.0528 103.928 84.2176 105.985C77.601 107.722 71.0442 106.858 64.9971 103.157C62.5427 101.656 60.5009 99.4973 58.2933 97.6127C57.8288 97.2164 57.4627 96.7128 57.0326 96.2363Z" fill="#F64635"/>
<path d="M14.0319 82.208L14.0318 82.2076C12.3584 75.9116 13.1869 70.0712 15.387 64.7666C10.0237 56.5713 8.56309 47.337 12.7103 38.1937L12.7103 38.1937C17.0771 28.5666 25.2813 22.7211 36.6322 22.2435C38.6534 22.1584 40.6604 22.3184 42.4941 22.5335C46.6951 14.6539 53.7465 9.7762 63.1257 8.57268L14.0319 82.208ZM14.0319 82.208C16.1118 90.0313 20.7484 96.4812 28.0949 100.706M14.0319 82.208L28.0949 100.706M16.042 63.2868C16.0423 63.2862 16.0425 63.2857 16.0427 63.2852L16.042 63.2868ZM16.042 63.2868C16.0438 63.2829 16.0442 63.2821 16.043 63.2848L16.042 63.2868ZM97.5045 34.0791C106.176 37.1327 112.716 42.9809 116.095 51.6658L116.095 51.6661C119.85 61.3153 118.778 70.8357 112.031 78.8072C110.847 80.2071 109.506 81.337 108.378 82.2429C108 82.5455 107.657 82.8159 107.337 83.0679C106.851 83.4515 106.418 83.7926 106.001 84.1404C105.98 86.9473 105.786 90.2555 104.596 93.537C101.377 102.419 94.9133 108.396 85.5522 110.853L97.5045 34.0791ZM97.5045 34.0791C96.6426 27.8276 93.8691 22.3362 89.3053 17.7175L97.5045 34.0791ZM28.0949 100.706C37.5388 106.137 47.057 106.439 56.1712 102.348M28.0949 100.706L56.1712 102.348M56.1712 102.348C56.2904 102.456 56.4129 102.567 56.5387 102.682C58.1587 104.156 60.3026 106.107 62.4932 107.447L56.1712 102.348ZM41.4641 24.6547C41.454 24.6775 41.4565 24.668 41.4735 24.6335C41.47 24.6412 41.4666 24.649 41.4632 24.6567L44.2613 25.9674L44.262 25.9678L46.0018 26.7827L44.2621 25.9669L44.2614 25.9666L41.4641 24.6547ZM44.6179 22.8083C44.7028 22.813 44.7128 22.8213 44.6241 22.8091L44.6222 22.8089C44.6208 22.8087 44.6193 22.8085 44.6179 22.8083ZM106.001 82.7101C106.001 82.7123 106.001 82.7146 106.001 82.7169L106.001 82.7135L106.001 82.7101ZM95.9155 33.5276C95.9116 33.526 95.9081 33.5246 95.905 33.5233C95.8809 33.513 95.8864 33.514 95.9155 33.5276ZM89.305 17.7172C82.0549 10.379 73.0181 7.30214 63.1264 8.57258L89.305 17.7172ZM62.4949 107.448C69.7465 111.886 77.6936 112.917 85.5516 110.854L62.4949 107.448Z" stroke="white" stroke-width="10"/>
</g>
<path d="M67.1947 78.426C64.6947 77.6394 63.3043 75.3191 63.9345 72.9804C64.5503 70.6983 67.0644 69.4405 69.4924 70.2001C71.8168 70.9275 73.4552 73.5831 72.8745 75.6835C72.2244 78.0395 69.7561 79.23 67.1936 78.424L67.1947 78.426Z" fill="#F9E05C"/>
<path d="M51.321 73.4992C48.792 72.7271 47.3196 70.2811 47.9885 67.9638C48.5773 65.9224 51.2807 64.5996 53.5326 65.2497C55.9746 65.9541 57.5163 68.4075 56.9314 70.6569C56.3085 73.0511 53.88 74.2822 51.321 73.4992Z" fill="#F9E05C"/>
<path d="M65.7751 52.9121C63.1889 52.1019 61.9112 49.9278 62.5984 47.5112C63.2828 45.1047 65.6889 44.0046 68.25 44.6989C70.2292 45.2346 72.0761 48.2244 71.3439 50.2683C70.531 52.5379 68.2922 53.7025 65.7735 52.9116L65.7751 52.9121Z" fill="#F9E05B"/>
<path d="M52.7469 49.5515C55.1874 50.3431 56.7646 52.9046 56.0913 54.9809C55.3732 57.1969 52.6702 58.5824 50.3588 57.9201C48.1469 57.2871 46.5305 54.3031 47.2317 52.1524C47.9446 49.9662 50.4234 48.7977 52.7469 49.5515Z" fill="#F9E15C"/>
<path d="M78.5787 57.5644C80.917 58.2898 82.35 60.711 81.7572 62.9298C81.1829 65.0776 78.4171 66.5846 76.2164 65.9472C73.9452 65.2896 72.2708 62.358 72.8904 60.121C73.4817 57.9832 76.1174 56.7992 78.5787 57.5644Z" fill="#F9E15C"/>
<defs>
<filter id="filter0_d_1321_2266" x="5.34961" y="3.26611" width="121.851" height="117.636" filterUnits="userSpaceOnUse" color-interpolation-filters="sRGB">
<feFlood flood-opacity="0" result="BackgroundImageFix"/>
<feColorMatrix in="SourceAlpha" type="matrix" values="0 0 0 0 0 0 0 0 0 0 0 0 0 0 0 0 0 0 127 0" result="hardAlpha"/>
<feOffset dx="4" dy="4"/>
<feComposite in2="hardAlpha" operator="out"/>
<feColorMatrix type="matrix" values="0 0 0 0 0 0 0 0 0 0 0 0 0 0 0 0 0 0 0.25 0"/>
<feBlend mode="normal" in2="BackgroundImageFix" result="effect1_dropShadow_1321_2266"/>
<feBlend mode="normal" in="SourceGraphic" in2="effect1_dropShadow_1321_2266" result="shape"/>
</filter>
</defs>
</svg>
