<svg width="153" height="145" viewBox="0 0 153 145" fill="none" xmlns="http://www.w3.org/2000/svg">
<g filter="url(#filter0_d_1321_2291)">
<mask id="path-1-outside-1_1321_2291" maskUnits="userSpaceOnUse" x="16.2812" y="15.3213" width="119" height="114" fill="black">
<rect fill="white" x="16.2812" y="15.3213" width="119" height="114"/>
<path d="M69.0324 108.236C60.3098 113.244 51.4608 113.51 42.4796 108.345C36.3807 104.838 32.5688 99.5592 30.8224 92.9904C29.3655 87.509 30.2372 82.3962 32.531 77.5209C32.9463 76.6379 32.9068 76.0477 32.3125 75.2211C27.0697 67.9105 25.7234 60.0922 29.2272 52.3673C32.8376 44.4077 39.4274 39.667 48.9364 39.2669C51.2834 39.168 53.6915 39.4672 56.0527 39.7909C57.159 39.9431 57.5912 39.7122 58.0016 38.7823C61.3294 31.2331 67.3242 26.654 75.846 25.5607C84.2218 24.4847 91.7026 27.0343 97.8323 33.2386C101.816 37.2704 104.088 41.9802 104.677 47.388C104.946 49.8696 105.021 49.83 107.548 50.6831C115.191 53.2627 120.654 58.1606 123.482 65.4284C126.62 73.4924 125.706 81.0278 120.236 87.4909C118.494 89.5491 116.077 91.0623 114.037 92.8932C113.547 93.3318 113.034 94.034 113.037 94.6397C113.054 97.7381 112.993 100.799 111.933 103.721C109.267 111.077 104.053 115.928 96.2174 117.984C89.6008 119.722 83.044 118.857 76.9969 115.157C74.5424 113.656 72.5007 111.497 70.2931 109.612C69.8286 109.216 69.4625 108.712 69.0324 108.236Z"/>
</mask>
<path d="M69.0324 108.236L76.4551 101.535L71.0494 95.547L64.0534 99.5635L69.0324 108.236ZM42.4796 108.345L47.4653 99.6762L47.4645 99.6757L42.4796 108.345ZM30.8224 92.9904L21.1579 95.5591L21.1581 95.5597L30.8224 92.9904ZM32.531 77.5209L41.5795 81.7781L41.58 81.7771L32.531 77.5209ZM32.3125 75.2211L24.1862 81.0489L24.1934 81.059L32.3125 75.2211ZM29.2272 52.3673L20.1203 48.2365L20.1202 48.2366L29.2272 52.3673ZM48.9364 39.2669L49.3568 49.258L49.3571 49.258L48.9364 39.2669ZM56.0527 39.7909L57.415 29.8842L57.4112 29.8836L56.0527 39.7909ZM58.0016 38.7823L67.1502 42.82L67.152 42.816L58.0016 38.7823ZM75.846 25.5607L77.1185 35.4794L77.1201 35.4792L75.846 25.5607ZM97.8323 33.2386L90.7186 40.2668L90.7191 40.2673L97.8323 33.2386ZM104.677 47.388L114.618 46.3078L114.618 46.3058L104.677 47.388ZM107.548 50.6831L104.35 60.158L104.35 60.158L107.548 50.6831ZM123.482 65.4284L132.802 61.8024L132.802 61.802L123.482 65.4284ZM120.236 87.4909L112.603 81.0302L112.602 81.0317L120.236 87.4909ZM114.037 92.8932L120.709 100.342L120.716 100.336L114.037 92.8932ZM113.037 94.6397L123.037 94.5872L123.037 94.5805L113.037 94.6397ZM111.933 103.721L102.532 100.312L102.531 100.314L111.933 103.721ZM96.2174 117.984L93.6786 108.312L93.6773 108.312L96.2174 117.984ZM76.9969 115.157L82.2169 106.627L82.2135 106.625L76.9969 115.157ZM70.2931 109.612L76.786 102.007L76.7832 102.004L70.2931 109.612ZM64.0534 99.5635C58.2685 102.885 53.217 102.984 47.4653 99.6762L37.4939 117.013C49.7046 124.036 62.351 123.603 74.0113 116.908L64.0534 99.5635ZM47.4645 99.6757C43.8126 97.5758 41.59 94.5709 40.4867 90.421L21.1581 95.5597C23.5476 104.548 28.9489 112.1 37.4947 117.014L47.4645 99.6757ZM40.4868 90.4217C39.7557 87.6707 40.069 84.9888 41.5795 81.7781L23.4824 73.2637C20.4055 79.8036 18.9753 87.3473 21.1579 95.5591L40.4868 90.4217ZM41.58 81.7771C42.1757 80.5107 43.0127 78.283 42.7607 75.4606C42.5085 72.6359 41.2884 70.5749 40.4315 69.3833L24.1934 81.059C23.9309 80.6939 23.0277 79.3413 22.84 77.2391C22.6525 75.1392 23.3016 73.6481 23.482 73.2646L41.58 81.7771ZM40.4388 69.3933C36.857 64.3989 36.5842 60.3562 38.3342 56.4981L20.1202 48.2366C14.8625 59.8281 17.2823 71.4221 24.1862 81.0489L40.4388 69.3933ZM38.3341 56.4981C40.4029 51.9373 43.6571 49.4979 49.3568 49.258L48.516 29.2757C35.1977 29.8362 25.2723 36.8781 20.1203 48.2365L38.3341 56.4981ZM49.3571 49.258C50.7011 49.2014 52.2901 49.3686 54.6942 49.6982L57.4112 29.8836C55.0928 29.5657 51.8658 29.1347 48.5157 29.2757L49.3571 49.258ZM54.6904 49.6977C55.7164 49.8388 58.7359 50.2125 61.9054 48.5626C65.2655 46.8135 66.6571 43.9373 67.1502 42.82L48.853 34.7446C48.9357 34.5572 49.906 32.2614 52.6708 30.8222C53.9887 30.1362 55.2077 29.9154 56.0383 29.8548C56.7997 29.7992 57.3269 29.872 57.415 29.8842L54.6904 49.6977ZM67.152 42.816C69.065 38.4762 72.0692 36.1272 77.1185 35.4794L74.5735 15.642C62.5793 17.1808 53.5938 23.99 48.8512 34.7486L67.152 42.816ZM77.1201 35.4792C82.3694 34.8049 86.7577 36.2577 90.7186 40.2668L104.946 26.2104C96.6475 17.8109 86.0742 14.1646 74.5719 15.6422L77.1201 35.4792ZM90.7191 40.2673C93.1796 42.7573 94.4007 45.3952 94.7355 48.4702L114.618 46.3058C113.775 38.5653 110.453 31.7836 104.945 26.2099L90.7191 40.2673ZM94.7353 48.4682C94.7868 48.9429 94.8977 50.0497 95.1496 51.1202C95.4488 52.3921 96.1169 54.4396 97.8508 56.3558C99.4758 58.1517 101.298 58.9963 102.176 59.3677C102.982 59.7085 103.94 60.0197 104.35 60.158L110.746 41.2082C109.892 40.92 109.893 40.9162 109.966 40.947C110.111 41.0083 111.424 41.5478 112.681 42.9368C114.046 44.446 114.487 45.9847 114.618 46.5394C114.701 46.8927 114.701 47.0739 114.618 46.3078L94.7353 48.4682ZM104.35 60.158C109.471 61.8863 112.513 64.8138 114.163 69.0549L132.802 61.802C128.796 51.5073 120.912 44.6391 110.746 41.2082L104.35 60.158ZM114.163 69.0545C116.121 74.0858 115.449 77.6673 112.603 81.0302L127.868 93.9516C135.963 84.3883 137.119 72.899 132.802 61.8024L114.163 69.0545ZM112.602 81.0317C112.377 81.2971 111.958 81.7007 110.989 82.4785C110.258 83.0647 108.649 84.2913 107.357 85.4508L120.716 100.336C121.464 99.6642 122.084 99.2187 123.507 98.0761C124.692 97.125 126.353 95.7429 127.87 93.9501L112.602 81.0317ZM107.365 85.4443C106.507 86.2129 105.603 87.2196 104.844 88.4488C104.179 89.5263 103.02 91.742 103.038 94.6989L123.037 94.5805C123.051 96.9317 122.147 98.4934 121.86 98.9587C121.479 99.5758 121.077 100.012 120.709 100.342L107.365 85.4443ZM103.037 94.6922C103.054 97.851 102.915 99.2568 102.532 100.312L121.333 107.131C123.071 102.34 123.053 97.6253 123.037 94.5872L103.037 94.6922ZM102.531 100.314C100.984 104.583 98.3333 107.09 93.6786 108.312L98.7561 127.656C109.772 124.765 117.55 117.57 121.334 107.128L102.531 100.314ZM93.6773 108.312C89.6395 109.372 85.8923 108.877 82.2169 106.627L71.7769 123.686C80.1956 128.838 89.562 130.071 98.7574 127.656L93.6773 108.312ZM82.2135 106.625C80.6414 105.664 80.1249 104.857 76.786 102.007L63.8002 117.218C64.8765 118.137 68.4435 121.648 71.7803 123.688L82.2135 106.625ZM76.7832 102.004C76.9671 102.161 77.0954 102.29 77.1616 102.358C77.2248 102.424 77.2497 102.455 77.2117 102.411C77.1937 102.39 77.1686 102.36 77.1273 102.312C77.1067 102.287 77.0855 102.262 77.0591 102.231C77.0342 102.202 77.0044 102.166 76.9737 102.13C76.8549 101.99 76.6701 101.773 76.4551 101.535L61.6097 114.937C61.6069 114.934 61.613 114.94 61.6315 114.962C61.6507 114.984 61.6767 115.014 61.7173 115.062C61.7719 115.127 61.9419 115.329 62.088 115.498C62.4 115.858 62.9954 116.531 63.803 117.22L76.7832 102.004Z" fill="white" mask="url(#path-1-outside-1_1321_2291)"/>
<path d="M69.0326 108.236C60.31 113.244 51.461 113.511 42.4798 108.345C36.3809 104.838 32.569 99.5597 30.8226 92.9908C29.3657 87.5095 30.2375 82.3966 32.5312 77.5213C32.9465 76.6383 32.907 76.0481 32.3127 75.2216C27.0699 67.911 25.7236 60.0926 29.2274 52.3677C32.8378 44.4081 39.4276 39.6675 48.9366 39.2673C51.2836 39.1685 53.6917 39.4676 56.0529 39.7914C57.1592 39.9435 57.5914 39.7127 58.0018 38.7827C61.3296 31.2335 67.3244 26.6544 75.8462 25.5611C84.222 24.4852 91.7028 27.0348 97.8325 33.2391C101.816 37.2709 104.088 41.9807 104.677 47.3884C104.947 49.8701 105.021 49.8305 107.548 50.6835C115.192 53.2631 120.654 58.161 123.483 65.4289C126.62 73.4929 125.706 81.0283 120.236 87.4913C118.494 89.5495 116.077 91.0628 114.037 92.8936C113.547 93.3322 113.034 94.0344 113.038 94.6401C113.054 97.7386 112.993 100.799 111.933 103.722C109.267 111.077 104.053 115.928 96.2176 117.985C89.601 119.722 83.0442 118.858 76.9971 115.157C74.5427 113.656 72.5009 111.497 70.2933 109.613C69.8288 109.216 69.4627 108.713 69.0326 108.236Z" fill="#F64635"/>
<path d="M79.1947 90.426C76.6947 89.6394 75.3043 87.3191 75.9345 84.9804C76.5503 82.6983 79.0644 81.4405 81.4924 82.2001C83.8168 82.9275 85.4552 85.5831 84.8745 87.6835C84.2244 90.0395 81.7561 91.23 79.1936 90.424L79.1947 90.426Z" fill="#F9E05C"/>
<path d="M63.321 85.4992C60.792 84.7271 59.3196 82.2811 59.9885 79.9638C60.5773 77.9224 63.2807 76.5996 65.5326 77.2497C67.9746 77.9541 69.5163 80.4075 68.9314 82.6569C68.3085 85.0511 65.88 86.2822 63.321 85.4992Z" fill="#F9E05C"/>
<path d="M77.7741 64.9121C75.1879 64.1019 73.9102 61.9278 74.5974 59.5112C75.2818 57.1047 77.688 56.0046 80.249 56.6989C82.2282 57.2346 84.0751 60.2244 83.3429 62.2683C82.53 64.5379 80.2912 65.7025 77.7726 64.9116L77.7741 64.9121Z" fill="#F9E05B"/>
<path d="M64.7469 61.551C67.1874 62.3426 68.7646 64.9042 68.0913 66.9805C67.3732 69.1964 64.6702 70.5819 62.3588 69.9196C60.1469 69.2866 58.5305 66.3026 59.2317 64.1519C59.9446 61.9657 62.4234 60.7973 64.7469 61.551Z" fill="#F9E15C"/>
<path d="M90.5787 69.5644C92.917 70.2898 94.35 72.711 93.7572 74.9298C93.1829 77.0776 90.4171 78.5846 88.2164 77.9472C85.9452 77.2896 84.2708 74.358 84.8904 72.121C85.4817 69.9832 88.1174 68.7992 90.5787 69.5644Z" fill="#F9E15C"/>
</g>
<defs>
<filter id="filter0_d_1321_2291" x="17.2754" y="15.3213" width="121.997" height="117.524" filterUnits="userSpaceOnUse" color-interpolation-filters="sRGB">
<feFlood flood-opacity="0" result="BackgroundImageFix"/>
<feColorMatrix in="SourceAlpha" type="matrix" values="0 0 0 0 0 0 0 0 0 0 0 0 0 0 0 0 0 0 127 0" result="hardAlpha"/>
<feOffset dx="4" dy="4"/>
<feComposite in2="hardAlpha" operator="out"/>
<feColorMatrix type="matrix" values="0 0 0 0 0 0 0 0 0 0 0 0 0 0 0 0 0 0 0.25 0"/>
<feBlend mode="normal" in2="BackgroundImageFix" result="effect1_dropShadow_1321_2291"/>
<feBlend mode="normal" in="SourceGraphic" in2="effect1_dropShadow_1321_2291" result="shape"/>
</filter>
</defs>
</svg>
