<svg width="143" height="132" viewBox="0 0 143 132" fill="none" xmlns="http://www.w3.org/2000/svg">
<g filter="url(#filter0_d_1321_2260)">
<path d="M115.603 85.9111C114.02 86.8251 112.323 86.7847 111.188 86.6791C110.913 86.6551 110.641 86.6221 110.366 86.5981C109.304 86.4878 108.3 86.3828 107.427 86.4529C104.178 86.7298 100.724 87.0493 97.3209 87.6289C95.6368 87.9161 93.9643 88.3032 92.2071 88.7164C90.3619 89.1499 88.455 89.5963 86.5052 89.9151C80.8269 90.849 75.5595 93.2126 69.756 95.9772C64.1869 98.6292 58.8139 101.488 54.3003 103.934C51.5402 105.428 48.5364 105.823 45.112 105.143C39.655 104.054 35.0201 101.211 31.1046 98.6307C28.3689 96.8305 25.2641 94.5506 22.9484 91.2975C21.5339 89.3129 20.2911 86.9476 19.0494 83.8662C16.9286 78.5975 18.1487 73.5314 19.246 70.1804C20.8136 65.4237 24.2439 62.4841 27.3959 60.2456C27.9016 59.8851 28.4263 59.5442 28.9559 59.2384C32.2316 57.3471 35.8637 56.5518 39.7526 56.8794C41.261 57.0057 42.7711 57.2681 44.3035 57.6621C43.9609 56.3375 43.6553 54.9839 43.4698 53.5991C42.872 49.1867 43.501 44.6522 45.3468 40.1383C46.365 37.6474 47.9915 35.3458 50.3198 33.1033C51.9263 31.5517 53.6909 30.2207 55.5677 29.1372C57.6862 27.914 59.9795 26.9935 62.3833 26.3973C67.1234 25.2211 74.2012 24.1186 80.8907 28.0739C85.3321 30.7011 88.7404 34.8229 91.0111 40.3247C91.6484 41.8673 92.0085 43.395 92.2187 44.9026C93.2909 43.9943 94.4512 43.1722 95.6832 42.4609C97.3988 41.4704 99.3169 40.6446 101.388 40.0044C107.12 38.2327 112.711 38.9022 118.008 42.0018C122.586 44.6795 125.699 48.9414 127.251 54.6603C128.382 58.8259 128.36 63.2154 127.192 68.0918C126.576 70.6548 125.797 73.3731 124.259 75.8821C123.147 77.7043 121.826 79.3119 120.547 80.8724L119.863 81.7087C118.943 82.8411 117.909 83.9482 116.699 85.096C116.366 85.4101 115.995 85.6851 115.603 85.9111Z" fill="#3C9D63"/>
<path d="M57.048 31.701C58.9305 30.6142 60.9449 29.8089 63.0789 29.2772C68.5988 27.9095 74.2481 27.6166 79.3505 30.6309C83.5671 33.1215 86.3687 36.9237 88.2494 41.4708C89.548 44.6108 89.4972 47.8599 89.5428 51.1296C89.5463 51.4016 89.5671 51.6637 89.5947 52.2567C90.3189 51.3438 90.8597 50.6586 91.4005 49.9733C93.0518 47.901 94.9783 46.2787 97.1602 45.019C98.7319 44.1116 100.43 43.3974 102.248 42.8354C107.313 41.2658 112.071 41.9821 116.474 44.5555C120.625 46.9851 123.111 50.8399 124.359 55.4478C125.437 59.4154 125.246 63.3925 124.282 67.4127C123.701 69.8492 122.998 72.2343 121.705 74.3431C120.514 76.2946 118.99 78.057 117.54 79.8385C116.648 80.9395 115.669 81.9691 114.642 82.9426C114.472 83.1013 114.301 83.2305 114.117 83.3368C113.34 83.7856 112.423 83.8052 111.487 83.7136C110.058 83.5793 108.604 83.3607 107.187 83.486C103.729 83.785 100.258 84.1145 96.8366 84.6894C93.215 85.3035 89.6581 86.3752 86.0324 86.9689C79.7798 87.9984 74.107 90.6037 68.4771 93.2833C63.1975 95.7986 58.0193 98.5294 52.8799 101.314C50.5351 102.584 48.1276 102.695 45.7106 102.218C40.9062 101.262 36.7768 98.7896 32.7502 96.1362C29.9617 94.2978 27.3015 92.2561 25.3738 89.5554C23.8975 87.4771 22.7641 85.1019 21.8093 82.7301C20.2559 78.8695 20.785 74.9864 22.0735 71.0759C23.3185 67.2894 26.0334 64.839 29.1138 62.6494C29.548 62.3379 29.9872 62.0615 30.4362 61.8022C33.1938 60.2101 36.2278 59.5622 39.4774 59.8326C42.2101 60.0589 44.8257 60.7868 47.3518 61.8251C47.7963 62.0099 48.2802 62.1035 48.6489 62.2104C47.8646 59.1236 46.8303 56.1888 46.4188 53.176C45.8674 49.1099 46.5494 45.0395 48.0996 41.2367C49.0267 38.9735 50.5349 36.999 52.3757 35.2283C53.8161 33.841 55.3785 32.6649 57.0365 31.7077M54.0815 26.5629C51.9975 27.7661 50.0363 29.2486 48.249 30.9656C45.6164 33.5055 43.7591 36.1383 42.5791 39.027C40.546 44.0145 39.8435 49.033 40.5026 53.9504C40.347 53.9336 40.1858 53.9202 40.0245 53.9067C35.5143 53.5268 31.2923 54.4571 27.4697 56.6641C26.8595 57.0164 26.2485 57.4073 25.6687 57.8257C22.1229 60.3525 18.2453 63.6873 16.4093 69.2689C15.1618 73.0643 13.7876 78.8208 16.2712 84.9837C17.6028 88.2873 18.9486 90.8443 20.499 93.0245C23.0956 96.671 26.4738 99.1585 29.4318 101.104C33.5819 103.839 38.5124 106.861 44.4953 108.05C48.5722 108.863 52.3452 108.352 55.6967 106.538C60.1815 104.109 65.5052 101.271 71.0134 98.6469C76.6055 95.9816 81.6697 93.7048 86.9564 92.8371C89.0033 92.5003 90.9571 92.0421 92.8525 91.6024C94.5719 91.2035 96.1942 90.8225 97.7869 90.55C101.082 89.995 104.462 89.6802 107.645 89.4104C108.231 89.3615 109.098 89.4544 110.019 89.547C110.303 89.5734 110.59 89.6055 110.868 89.6352C112.419 89.7825 114.746 89.8244 117.078 88.4783C117.677 88.1326 118.236 87.7184 118.741 87.2367C120.044 85.9971 121.167 84.7927 122.168 83.5605C122.393 83.2858 122.618 83.0112 122.843 82.7365C124.187 81.1009 125.574 79.4092 126.793 77.4116C128.544 74.5429 129.407 71.5559 130.086 68.7581C131.375 63.3858 131.388 58.5146 130.122 53.8634C128.383 47.461 124.721 42.4735 119.525 39.4296C113.566 35.9428 106.988 35.1584 100.514 37.1606C98.2263 37.8648 96.1026 38.7864 94.197 39.8866C94.1567 39.9099 94.1164 39.9331 94.0761 39.9564C93.978 39.6934 93.8798 39.4303 93.7669 39.1682C91.2423 33.0671 87.4263 28.4651 82.4194 25.5098C76.6864 22.1212 69.9075 21.4678 61.6727 23.5046C58.9934 24.1686 56.4386 25.1945 54.0782 26.5572L54.0815 26.5629Z" fill="white"/>
<path d="M70.5886 51.2707C71.5062 54.2958 72.4821 57.3024 73.3264 60.3469C74.3168 63.9236 75.1904 67.5373 76.0985 71.1311C76.1943 71.5097 76.2053 71.9144 76.2427 72.3115C76.3307 73.2883 75.8837 73.9498 74.9558 74.2039C74.0336 74.4547 73.481 73.8831 72.9933 73.1979C71.0302 70.4492 70.0113 67.2619 68.9185 64.1325C67.5575 60.2597 66.4763 56.2863 65.3079 52.348C64.8928 50.9511 65.5055 49.5926 66.6907 49.0529C67.8184 48.5465 68.9411 49.002 69.7551 50.3056C69.9644 50.6415 70.1539 50.9964 70.3517 51.339C70.4307 51.3162 70.5064 51.2877 70.5853 51.265L70.5886 51.2707Z" fill="#EFCD4B"/>
<path d="M99.8394 69.1918C99.3407 69.1524 98.5213 69.3286 98.0718 69.002C97.6066 68.6616 97.2471 67.8263 97.2878 67.232C97.3586 66.2777 97.6959 65.3065 98.0909 64.4085C99.3047 61.6449 100.054 58.6089 102.32 56.4177C103.163 55.6038 104.133 54.8381 105.183 54.3307C107.064 53.4273 108.523 54.5717 108.083 56.6147C107.848 57.7096 107.321 58.7905 106.699 59.7353C104.833 62.5787 102.859 65.355 100.91 68.1475C100.693 68.4631 100.352 68.6977 99.8361 69.1861L99.8394 69.1918Z" fill="#EFCC4B"/>
<path d="M40.0294 77.7669C39.2994 76.5822 39.649 75.5126 40.3444 74.6696C41.2042 73.6328 42.5227 74.0286 43.4471 74.4464C45.4061 75.3401 47.2445 76.5167 49.119 77.5963C50.6526 78.4844 52.1649 79.4153 53.7035 80.2854C54.6494 80.8202 55.2934 81.5369 55.0953 82.6561C54.8914 83.8319 53.8695 83.8966 52.9438 83.9286C49.2388 84.0658 46.0706 82.7131 43.2464 80.4539C42.1505 79.5795 41.1023 78.6547 40.0319 77.7579L40.0294 77.7669Z" fill="#EDCC4C"/>
</g>
<defs>
<filter id="filter0_d_1321_2260" x="14.8877" y="22.3506" width="116.175" height="90.0742" filterUnits="userSpaceOnUse" color-interpolation-filters="sRGB">
<feFlood flood-opacity="0" result="BackgroundImageFix"/>
<feColorMatrix in="SourceAlpha" type="matrix" values="0 0 0 0 0 0 0 0 0 0 0 0 0 0 0 0 0 0 127 0" result="hardAlpha"/>
<feOffset dy="4"/>
<feComposite in2="hardAlpha" operator="out"/>
<feColorMatrix type="matrix" values="0 0 0 0 0 0 0 0 0 0 0 0 0 0 0 0 0 0 0.25 0"/>
<feBlend mode="normal" in2="BackgroundImageFix" result="effect1_dropShadow_1321_2260"/>
<feBlend mode="normal" in="SourceGraphic" in2="effect1_dropShadow_1321_2260" result="shape"/>
</filter>
</defs>
</svg>
