<svg width="513" height="513" viewBox="0 0 513 513" fill="none" xmlns="http://www.w3.org/2000/svg">
<mask id="mask0_1303_2400" style="mask-type:alpha" maskUnits="userSpaceOnUse" x="0" y="0" width="513" height="513">
<rect width="513" height="513" fill="#D9D9D9"/>
</mask>
<g mask="url(#mask0_1303_2400)">
<path d="M263.889 501.864L283.019 -45.3593L230.053 -46.4697L263.889 501.864Z" fill="url(#paint0_linear_1303_2400)"/>
<path d="M277.977 501.052L385.714 -35.7875L333.632 -45.4947L277.977 501.052Z" fill="url(#paint1_linear_1303_2400)"/>
<path d="M247.101 499.548L139.356 -37.2932L191.437 -46.9996L247.101 499.548Z" fill="url(#paint2_linear_1303_2400)"/>
<path d="M285.037 501.048L489.243 -6.94672L439.82 -26.0389L285.037 501.048Z" fill="url(#paint3_linear_1303_2400)"/>
<path d="M232.689 500.957L28.4757 -7.04445L77.898 -26.1359L232.689 500.957Z" fill="url(#paint4_linear_1303_2400)"/>
<path d="M296.878 503.691L590.3 41.5193L545.19 13.7221L296.878 503.691Z" fill="url(#paint5_linear_1303_2400)"/>
<path d="M219.065 506.818L-74.367 44.6391L-29.2569 16.8426L219.065 506.818Z" fill="url(#paint6_linear_1303_2400)"/>
<path d="M305.758 503.671L694.479 118.303L656.67 81.1711L305.758 503.671Z" fill="url(#paint7_linear_1303_2400)"/>
<path d="M203.727 509.92L-185 124.544L-147.089 87.2815L203.727 509.92Z" fill="url(#paint8_linear_1303_2400)"/>
<path d="M320.726 508.55L770.293 196.4L739.483 153.274L320.726 508.55Z" fill="url(#paint9_linear_1303_2400)"/>
</g>
<defs>
<linearGradient id="paint0_linear_1303_2400" x1="256.536" y1="-46.4695" x2="256.532" y2="501.864" gradientUnits="userSpaceOnUse">
<stop offset="0.825" stop-color="#E6BE8F" stop-opacity="0.6"/>
<stop offset="1" stop-color="white" stop-opacity="0"/>
</linearGradient>
<linearGradient id="paint1_linear_1303_2400" x1="331.843" y1="-45.4947" x2="331.839" y2="501.052" gradientUnits="userSpaceOnUse">
<stop offset="0.825" stop-color="#E6BE8F" stop-opacity="0.6"/>
<stop offset="1" stop-color="white" stop-opacity="0"/>
</linearGradient>
<linearGradient id="paint2_linear_1303_2400" x1="193.226" y1="-46.9996" x2="193.222" y2="499.547" gradientUnits="userSpaceOnUse">
<stop offset="0.825" stop-color="#E6BE8F" stop-opacity="0.6"/>
<stop offset="1" stop-color="white" stop-opacity="0"/>
</linearGradient>
<linearGradient id="paint3_linear_1303_2400" x1="387.138" y1="-26.0393" x2="387.134" y2="501.049" gradientUnits="userSpaceOnUse">
<stop offset="0.825" stop-color="#E6BE8F" stop-opacity="0.6"/>
<stop offset="1" stop-color="white" stop-opacity="0"/>
</linearGradient>
<linearGradient id="paint4_linear_1303_2400" x1="130.58" y1="-26.1355" x2="130.576" y2="500.956" gradientUnits="userSpaceOnUse">
<stop offset="0.825" stop-color="#E6BE8F" stop-opacity="0.6"/>
<stop offset="1" stop-color="white" stop-opacity="0"/>
</linearGradient>
<linearGradient id="paint5_linear_1303_2400" x1="443.587" y1="13.7213" x2="443.583" y2="503.692" gradientUnits="userSpaceOnUse">
<stop offset="0.825" stop-color="#E6BE8F" stop-opacity="0.6"/>
<stop offset="1" stop-color="white" stop-opacity="0"/>
</linearGradient>
<linearGradient id="paint6_linear_1303_2400" x1="72.3472" y1="16.8434" x2="72.3435" y2="506.817" gradientUnits="userSpaceOnUse">
<stop offset="0.825" stop-color="#E6BE8F" stop-opacity="0.6"/>
<stop offset="1" stop-color="white" stop-opacity="0"/>
</linearGradient>
<linearGradient id="paint7_linear_1303_2400" x1="500.117" y1="81.1699" x2="500.114" y2="503.673" gradientUnits="userSpaceOnUse">
<stop offset="0.825" stop-color="#E6BE8F" stop-opacity="0.6"/>
<stop offset="1" stop-color="white" stop-opacity="0"/>
</linearGradient>
<linearGradient id="paint8_linear_1303_2400" x1="9.36203" y1="87.2827" x2="9.35884" y2="509.919" gradientUnits="userSpaceOnUse">
<stop offset="0.825" stop-color="#E6BE8F" stop-opacity="0.6"/>
<stop offset="1" stop-color="white" stop-opacity="0"/>
</linearGradient>
<linearGradient id="paint9_linear_1303_2400" x1="545.508" y1="153.272" x2="545.505" y2="508.551" gradientUnits="userSpaceOnUse">
<stop offset="0.825" stop-color="#E6BE8F" stop-opacity="0.6"/>
<stop offset="1" stop-color="white" stop-opacity="0"/>
</linearGradient>
</defs>
</svg>
