<svg width="31" height="31" viewBox="0 0 31 31" fill="none" xmlns="http://www.w3.org/2000/svg">
<line x1="8.12012" y1="1.73998" x2="20.8801" y2="1.73998" stroke="#CC0000" stroke-width="3.48"/>
<path d="M12.76 8.12012H30.16V18.5601C30.16 19.2008 29.6407 19.7201 29 19.7201H13.92C13.2794 19.7201 12.76 19.2008 12.76 18.5601V8.12012Z" fill="#CC0000"/>
<ellipse cx="21.46" cy="8.12" rx="8.7" ry="8.12" fill="#CC0000"/>
<path d="M1.74016 8.70012H16.8202V18.5601C16.8202 18.8804 16.5605 19.1401 16.2402 19.1401H2.32016C1.99983 19.1401 1.74016 18.8804 1.74016 18.5601V8.70012Z" fill="#CC0000" stroke="white" stroke-width="1.16"/>
<path d="M16.8202 8.12C16.8202 12.2842 13.4444 15.66 9.28016 15.66C5.11593 15.66 1.74016 12.2842 1.74016 8.12C1.74016 3.95577 5.11593 0.58 9.28016 0.58C13.4444 0.58 16.8202 3.95577 16.8202 8.12Z" fill="#CC0000" stroke="white" stroke-width="1.16"/>
<path d="M0 8.12012H16.24V18.5601C16.24 19.2008 15.7206 19.7201 15.08 19.7201H1.16C0.51935 19.7201 0 19.2008 0 18.5601V8.12012Z" fill="#CC0000"/>
<path d="M16.24 8.12C16.24 12.6046 12.6046 16.24 8.12 16.24C3.63545 16.24 0 12.6046 0 8.12C0 3.63545 3.63545 0 8.12 0C12.6046 0 16.24 3.63545 16.24 8.12Z" fill="#CC0000"/>
<line x1="3.47998" y1="8.11979" x2="12.76" y2="8.11979" stroke="white" stroke-width="2.32"/>
<path d="M14.5 28.9999C14.5 29.9609 15.279 30.7399 16.24 30.7399C17.201 30.7399 17.98 29.9609 17.98 28.9999L14.5 28.9999ZM14.5 20.8799L14.5 28.9999L17.98 28.9999L17.98 20.8799L14.5 20.8799Z" fill="#CC0000"/>
</svg>
