<svg width="154" height="78" viewBox="0 0 154 78" fill="none" xmlns="http://www.w3.org/2000/svg">
<path d="M151.845 31.3076L12.8834 1.44064C11.7511 1.19728 10.636 1.91788 10.3926 3.05015L1.44058 44.7012C1.19722 45.8335 1.91784 46.9487 3.05011 47.192L142.012 77.059C143.144 77.3024 144.259 76.5818 144.503 75.4495L153.455 33.7984C153.698 32.6661 152.978 31.551 151.845 31.3076Z" stroke="#0071BC" stroke-width="0.833785" stroke-miterlimit="10"/>
<path d="M41.2837 31.7678C42.0716 31.0716 43.0513 30.3253 43.5308 30.4295C44.4021 30.6171 46.474 33.0685 46.2656 34.0273C46.1363 34.636 45.24 34.9903 44.3437 35.1196C43.8059 37.4208 42.6553 42.5528 42.1883 45.1417C42.9763 47.4096 44.327 48.9729 48.7211 50.3737C53.9572 52.0913 64.5171 54.0882 71.3458 54.9637C72.6382 55.1054 72.3214 56.3602 71.1791 56.3853C70.3119 56.3853 70.1076 56.7021 69.6282 57.2357C69.1279 57.8569 68.8737 57.9861 67.8981 57.8652C62.8204 57.094 52.6315 55.0846 46.5824 52.6916C42.8637 51.1157 41.3587 48.7895 40.6834 45.7712C38.4322 47.3387 35.935 48.9896 33.8964 50.4195C33.0417 51.6494 32.3664 51.5952 31.9703 50.6905C31.5868 49.9234 31.2658 48.4435 31.1949 47.5138C31.1407 46.9093 31.2408 46.6592 32.012 46.4591C34.159 46.0088 37.0397 45.125 39.291 44.1953C39.8704 41.7232 41.1378 36.0242 41.6422 33.6688L36.0225 32.4598C35.4555 32.3389 35.1012 32.0804 35.2513 31.3842C35.393 30.7297 35.8308 30.5963 36.3977 30.7172L41.2795 31.7678H41.2837ZM41.3879 16.0217C40.8793 15.0003 41.5713 14.0999 42.7637 14.721C45.4276 16.1134 47.8498 18.4105 47.4746 20.7951C47.2786 22.1209 46.3781 22.9296 45.0065 22.7254C43.7225 22.5419 43.4724 21.1662 42.8762 19.4861C42.501 18.2646 41.8882 17.0848 41.3879 16.0217ZM61.0819 38.0753C60.1689 42.5278 58.9474 48.6477 58.7015 49.7817C58.4847 50.7822 57.7301 51.1241 56.3794 50.8323C55.5956 50.6655 55.2204 50.0818 55.3872 49.2981C55.5831 48.3851 56.4961 44.5664 57.4133 40.9352C54.2282 43.4408 50.0926 45.5169 45.1608 46.1881C43.8392 46.4049 43.364 45.2084 44.5688 44.6914C49.5757 43.0322 53.7363 40.4183 56.592 37.1082L52.1479 36.1535L52.0187 36.7621C51.8144 37.721 51.0307 37.9628 49.7675 37.6918C48.9837 37.525 48.6835 37.0039 48.8461 36.2619C49.3714 33.823 50.6096 29.1205 50.9556 25.5936C50.9848 25.235 51.3475 25.0391 51.731 25.1684C52.4106 25.406 54.0114 26.4315 54.9077 27.357L60.2231 28.4993C60.5316 27.061 60.861 25.5352 61.1445 24.001L50.076 21.6248C49.509 21.5039 49.1546 21.2454 49.3047 20.5492C49.4464 19.8947 49.8842 19.7613 50.4512 19.8821L61.4738 22.2501C61.8157 20.2282 62.07 18.4147 62.1492 17.1974C62.1492 16.7846 62.4535 16.6262 62.8454 16.7096C65.3718 17.2516 67.7564 18.0395 67.5313 19.0859C67.3812 19.7821 66.4057 20.0739 65.0007 20.0447L64.3504 22.8671L71.6252 24.4304C72.7758 23.309 74.1849 22.0625 74.7935 22.1959C75.6648 22.3835 77.9452 25.5602 77.7284 26.5649C77.6409 27.1861 76.7821 27.3654 75.3855 27.0652L63.971 24.6139L62.9621 29.0913L68.932 30.3753C69.7658 29.6875 70.6996 28.9329 71.1791 29.0371C72.0504 29.2247 74.1765 31.6427 73.9681 32.6015C73.8472 33.1685 73.0759 33.3686 72.2255 33.502C71.7335 35.5823 71.079 39.0467 70.8372 40.1765C70.5454 41.5272 69.8284 41.694 68.6069 41.4313C67.6063 41.2145 67.4687 40.3641 67.6188 39.6679L67.6563 39.4928L61.0777 38.0795L61.0819 38.0753ZM52.4773 34.4025L58.6223 35.7241C58.8432 34.907 58.985 34.2524 59.0767 33.8147L59.8438 30.2419L54.1365 29.0163L53.6821 29.0079C53.4695 29.7833 53.0192 31.872 52.8692 32.5724L52.4773 34.4025ZM62.5911 30.8339L61.9532 33.798L61.4113 36.3244L68.0774 37.7585C68.4443 36.0576 68.9904 33.7147 69.3031 32.2764L62.5911 30.8339ZM71.3458 48.21C71.4417 49.4607 70.833 50.3778 69.6282 50.4862C68.4192 50.5905 67.7397 49.3064 66.6725 47.4804C65.9471 46.1839 64.9882 44.9291 64.0836 43.8243C63.404 42.9488 63.9001 41.9149 65.1258 42.361C68.3775 43.5616 71.1582 45.8921 71.3458 48.21Z" fill="#0071BC"/>
<path d="M84.5153 40.6015C85.3033 39.9053 86.2955 39.1132 86.7749 39.2174C87.6462 39.405 89.7515 41.9105 89.5472 42.8652C89.418 43.4739 88.5217 43.8282 87.6254 43.9575C87.0876 46.2587 85.8911 51.6075 85.4367 54.1547C86.8625 57.0604 88.9386 58.6446 93.8037 60.1913C99.3025 61.9672 108.441 63.5639 115.403 64.4686C116.695 64.6103 116.416 65.9152 115.27 65.9444C114.448 65.9486 114.19 66.3029 113.752 66.8491C113.256 67.4702 112.997 67.5995 112.022 67.4786C106.727 66.6615 97.8101 64.8813 91.4566 62.4217C87.0084 60.6457 85.0031 58.2986 83.8775 54.6383C81.9139 56.36 79.8878 57.9276 78.0035 59.4867C77.2072 60.8666 76.5443 60.7666 76.0899 59.8953C75.7064 59.1282 75.2812 57.7149 75.1728 56.7352C75.1186 56.1307 75.2103 55.9223 75.9399 55.7139C78.0744 55.1219 80.4965 54.2297 82.4976 53.2042C83.0645 50.7737 84.3736 44.8997 84.8864 42.5025L79.5251 41.3519C78.9582 41.231 78.6038 40.9725 78.7539 40.2763C78.8956 39.6218 79.3334 39.4884 79.9003 39.6093L84.5195 40.6015H84.5153ZM85.0323 25.2599C84.5737 24.2051 85.3033 23.3588 86.4831 24.0217C88.9969 25.4725 91.2732 27.8321 90.8104 30.1917C90.5311 31.5007 89.5848 32.297 88.2757 32.0177C86.9667 31.7384 86.7957 30.421 86.3372 28.7284C85.9703 27.4652 85.4867 26.3104 85.0323 25.2557V25.2599ZM91.6609 34.7108C91.0939 34.5899 90.7395 34.3314 90.8896 33.6352C91.0314 32.9807 91.4691 32.8473 92.0361 32.9682L103.363 35.4028C103.651 34.2814 103.93 32.9724 104.168 31.655L95.9757 29.8957C95.4087 29.7748 95.0544 29.5163 95.2045 28.8201C95.3462 28.1656 95.784 28.0322 96.3509 28.1531L104.543 29.9124C104.81 28.4658 105.047 27.1484 105.147 26.2604C105.197 25.8143 105.506 25.6517 105.898 25.7393C106.64 25.8977 110.521 26.9149 110.296 27.9613C110.117 28.7909 109.216 28.9619 107.886 28.9952L107.549 30.5627L112.472 31.6216C113.51 30.6128 114.836 29.533 115.403 29.6539C116.187 29.8207 118.559 32.7931 118.35 33.752C118.221 34.3606 117.458 34.519 115.974 34.198L107.173 32.3053L106.369 36.0532L114.602 37.8208C115.745 36.7452 117.133 35.5863 117.742 35.7155C118.525 35.8823 120.956 39.0048 120.785 40.0137C120.664 40.5807 119.893 40.7808 118.321 40.4431L110.479 38.7588C111.763 39.5801 113.114 40.9183 112.931 41.5645C112.756 42.1648 112.143 42.2607 110.8 41.9272C109.579 42.9403 108.291 43.8491 106.902 44.3702L112.305 45.5292C113.398 44.4869 114.773 43.3697 115.34 43.4906C116.17 43.6698 118.53 46.684 118.359 47.6928C118.229 48.3015 117.467 48.4599 115.895 48.1222L105.656 45.921C105.723 46.0253 105.739 46.167 105.714 46.2962C105.623 46.734 105.164 46.9508 104.351 46.9132L103.884 49.0936L108.328 50.0483C109.408 49.0519 110.692 47.9596 111.259 48.0805C112.043 48.2473 114.415 51.2198 114.206 52.1786C114.077 52.7873 113.314 52.9457 111.83 52.6247L103.509 50.8362L103.246 52.0577L102.742 54.409L109.45 55.8514C110.592 54.7758 111.98 53.6169 112.593 53.7461C113.423 53.9254 115.857 57.0021 115.678 58.0568C115.557 58.6238 114.74 58.8114 113.173 58.4737L102.413 56.1599C102.046 57.8609 101.812 59.1741 101.67 59.8286C101.475 60.7458 100.724 61.2669 99.2858 60.9584C98.4145 60.7708 98.2103 60.2246 98.3895 59.3992C98.5688 58.5737 98.894 57.273 99.3192 55.4971L89.2971 53.3417C88.7301 53.2208 88.3758 52.9624 88.5259 52.2662C88.6676 51.6116 89.1053 51.4782 89.6723 51.5991L99.7361 53.7628L100.241 51.4115L100.503 50.19L92.6156 48.4974C92.0486 48.3765 91.6942 48.1181 91.8443 47.4219C91.9861 46.7673 92.4238 46.6339 92.9908 46.7548L100.878 48.4474L101.608 45.0497L91.4566 42.8694C90.8896 42.7485 90.5353 42.49 90.6854 41.7938C90.8271 41.1393 91.2648 41.0059 91.8318 41.1268L105.252 44.0117C105.21 43.774 105.318 43.4781 105.56 43.2112C106.802 41.8814 107.878 40.4723 108.849 38.7213C108.92 38.6004 108.983 38.5212 109.045 38.4462L91.6609 34.7108ZM98.0227 39.9053C97.9185 39.109 97.7058 38.196 97.5057 37.4248C97.2472 36.5034 97.9393 35.8322 98.8815 36.5368C100.666 37.7875 102.283 39.5926 101.67 41.3769C101.304 42.44 100.328 42.9569 99.2316 42.54C98.2478 42.2399 98.2103 41.1351 98.0185 39.9095L98.0227 39.9053Z" fill="#0071BC"/>
</svg>
