<svg width="134" height="180" viewBox="0 0 134 180" fill="none" xmlns="http://www.w3.org/2000/svg">
<rect x="26" y="161" width="83" height="19" rx="7.74018" fill="#E9E9E9"/>
<g clip-path="url(#clip0_1048_1328)">
<path d="M73.328 93.6831H59.8283C55.2007 93.6831 51.4492 97.4346 51.4492 102.062V158.621C51.4492 163.249 55.2007 167 59.8283 167H73.328C77.9556 167 81.7071 163.249 81.7071 158.621V102.062C81.7071 97.4346 77.9556 93.6831 73.328 93.6831Z" fill="#BA0000"/>
<path d="M123.37 1.74561H10.9504C6.32274 1.74561 2.57129 5.49705 2.57129 10.1247V115.562C2.57129 120.189 6.32274 123.941 10.9504 123.941H123.37C127.998 123.941 131.749 120.189 131.749 115.562V10.1247C131.749 5.49705 127.998 1.74561 123.37 1.74561Z" fill="#CC0000" stroke="#CC0000" stroke-width="3.49129" stroke-miterlimit="10" stroke-linecap="round"/>
<path d="M98.966 26.1846H34.1909C32.7962 26.1846 31.6655 27.3152 31.6655 28.7099V59.7359C31.6655 61.1306 32.7962 62.2612 34.1909 62.2612H98.966C100.361 62.2612 101.491 61.1306 101.491 59.7359V28.7099C101.491 27.3152 100.361 26.1846 98.966 26.1846Z" fill="#CCCCCC"/>
<path d="M91.7039 34.9131H42.6164C42.0315 34.9131 41.5574 35.3872 41.5574 35.9721V39.6729C41.5574 40.2578 42.0315 40.7319 42.6164 40.7319H91.7039C92.2888 40.7319 92.763 40.2578 92.763 39.6729V35.9721C92.763 35.3872 92.2888 34.9131 91.7039 34.9131Z" fill="#4D4D4D" stroke="#4D4D4D" stroke-width="1.16376" stroke-miterlimit="10"/>
</g>
<defs>
<clipPath id="clip0_1048_1328">
<rect width="132.669" height="167" fill="white" transform="translate(0.825684)"/>
</clipPath>
</defs>
</svg>
