<svg width="407" height="54" viewBox="0 0 407 54" fill="none" xmlns="http://www.w3.org/2000/svg">
<path d="M25.688 48.696C28.888 48.504 32.152 48.12 35.224 45.88C38.36 43.576 40.344 39.672 40.344 35.768C40.344 31.288 37.784 26.872 33.816 24.568C31.32 35.512 25.176 44.024 16.984 48.312C13.528 50.104 10.2 50.488 7.192 49.144C5.464 48.376 3.096 46.648 2.008 42.936C0.408 37.048 3.224 30.904 6.744 26.808C11.096 22.968 12.376 22.2 15.32 20.984V12.216H6.232V7.992H15.384V0.631996H20.12V7.992H35.288V12.216H20.12V19.64C22.168 19.256 24.216 19 26.2 19C27.544 19 28.824 19.128 30.04 19.32C30.232 17.656 30.232 16.12 30.232 16.12H34.968C34.904 17.08 34.84 18.68 34.584 20.6C41.048 23.288 45.08 28.984 45.08 35.768C45.08 40.824 42.712 45.752 38.744 48.888C35.48 51.576 31.256 52.856 25.816 52.856H25.688V48.696ZM20.12 40.888C24.536 36.472 27.928 30.136 29.336 23.288C26.712 22.968 23.384 22.968 20.12 23.928V40.888ZM15.384 25.72C13.912 26.68 12.632 27.512 11.544 28.472C8.216 31.544 5.336 37.24 6.488 41.656C6.936 43.448 7.896 44.728 9.112 45.24C10.84 46.008 13.272 45.688 15.384 44.472V25.72ZM98.136 14.712H107.992V18.808H98.136V29.688C98.136 43.64 98.264 46.072 89.24 53.496L85.784 50.36C93.144 43.64 93.336 42.872 93.336 29.688V18.808H76.248V14.712H93.336V1.848H98.136V14.712ZM68.056 49.08C63.576 43.64 62.936 41.656 62.936 34.488V5.56H67.544V35.128C67.544 40.76 68.056 41.592 71.64 46.328L68.056 49.08ZM139.032 27C141.656 25.272 147.224 24.504 150.424 24.504C155.224 24.504 158.872 25.976 161.496 28.984C166.04 34.232 165.848 42.296 160.984 47.544C156.504 52.28 148.824 52.088 144.6 51.96V47.672C150.36 47.8 154.968 46.904 157.336 44.344C160.472 40.824 160.728 35.576 157.848 32.12C155.928 29.816 153.112 28.6 149.464 28.6C146.52 28.6 141.656 29.56 139.032 31.288V44.28C139.032 47.16 138.136 49.272 136.408 50.552C134.552 51.896 131.864 51.832 129.816 51C126.488 49.72 123.352 46.2 123.288 42.04C123.224 39.352 124.312 36.728 126.36 34.68C128.728 32.44 131.224 30.456 134.36 28.792V14.776H124.632V10.296H134.36V1.912H139.032V10.296H147.864V14.776H139.032V27ZM164.056 23.544C160.408 19.832 159.96 19 151.192 19V14.712C160.664 14.712 162.648 15.224 167.64 20.536L164.056 23.544ZM134.36 33.784C131.672 35.512 129.112 37.432 128.344 40.056C127.448 43.064 129.24 45.944 131.48 46.776C133.72 47.608 134.36 46.584 134.36 44.408V33.784ZM215.192 1.4C214.872 3.896 214.552 7.544 213.784 11.448C219.032 12.856 223.064 15.608 225.752 19.64C230.168 25.976 230.68 34.36 227.032 40.824C223.512 47.16 216.472 51.32 208.216 52.024L207.704 47.544C214.36 46.584 219.416 44.536 222.872 38.52C225.688 33.656 225.24 27.192 221.848 22.072C219.8 19.064 216.472 16.696 212.696 15.544C211.608 19.832 210.264 24.056 208.6 28.408C207.32 31.8 205.656 35.768 203.224 39.224C204.056 40.888 204.952 42.36 205.976 43.768L202.008 46.328C201.24 45.24 200.6 44.344 199.96 43C197.4 45.624 194.392 47.352 191 47.352C184.28 47.352 180.696 40.312 181.592 32.44C182.232 26.36 185.24 20.92 190.04 16.696C189.272 13.304 188.632 9.72 188.12 5.496L192.856 4.6C193.24 7.928 193.752 11.064 194.328 14.136C199.96 10.808 205.08 10.616 209.112 10.616C209.624 7.8 210.264 4.984 210.456 1.4H215.192ZM195.352 18.232C196.76 23.928 198.616 29.304 200.856 34.616C202.328 31.736 203.48 28.92 204.312 26.68C205.912 22.52 207 18.36 207.96 14.648C202.584 14.648 200.088 15.736 195.352 18.232ZM197.72 38.904C195.928 35.32 193.432 29.496 191.32 21.624C188.504 24.952 186.776 28.984 186.328 32.952C186.136 34.36 185.944 39.096 188.376 41.848C190.808 44.408 195.096 41.848 197.72 38.904ZM251.864 2.744V30.52H256.664V2.744H251.864ZM275.736 18.936V2.744H280.792V18.936C280.792 39.288 277.464 43.256 263.576 53.688L260.568 49.592C273.112 39.992 275.736 37.624 275.736 18.936ZM308.376 8.056H326.168V12.92H308.376V8.056ZM349.528 20.984C338.52 41.4 333.592 51 310.104 51V46.264C329.944 46.264 333.72 39.224 344.984 18.488L349.528 20.984ZM371.992 49.272C393.048 36.024 401.048 26.552 401.304 14.968H385.688C383 20.024 379.224 23.864 370.84 29.752L367.896 25.912C383.32 14.904 383.384 9.272 383.384 0.631996H388.504C388.504 5.688 388.184 7.864 387.544 10.296H406.424V14.648C406.424 28.216 397.72 39.032 374.808 53.304L371.992 49.272Z" fill="white"/>
<path d="M25.688 48.696L25.6581 48.1969L25.188 48.2251V48.696H25.688ZM35.224 45.88L35.5186 46.284L35.52 46.2829L35.224 45.88ZM33.816 24.568L34.0671 24.1356L33.4796 23.7945L33.3285 24.4568L33.816 24.568ZM16.984 48.312L17.2142 48.7559L17.2159 48.755L16.984 48.312ZM7.192 49.144L7.39597 48.6875L7.39507 48.6871L7.192 49.144ZM2.008 42.936L1.5254 43.0671L1.52819 43.0766L2.008 42.936ZM6.744 26.808L6.41319 26.4331L6.3873 26.4559L6.36479 26.4821L6.744 26.808ZM15.32 20.984L15.5109 21.4461L15.82 21.3185V20.984H15.32ZM15.32 12.216H15.82V11.716H15.32V12.216ZM6.232 12.216H5.732V12.716H6.232V12.216ZM6.232 7.992V7.492H5.732V7.992H6.232ZM15.384 7.992V8.492H15.884V7.992H15.384ZM15.384 0.631996V0.131996H14.884V0.631996H15.384ZM20.12 0.631996H20.62V0.131996H20.12V0.631996ZM20.12 7.992H19.62V8.492H20.12V7.992ZM35.288 7.992H35.788V7.492H35.288V7.992ZM35.288 12.216V12.716H35.788V12.216H35.288ZM20.12 12.216V11.716H19.62V12.216H20.12ZM20.12 19.64H19.62V20.2425L20.2121 20.1314L20.12 19.64ZM30.04 19.32L29.962 19.8139L30.477 19.8952L30.5367 19.3773L30.04 19.32ZM30.232 16.12V15.62H29.732V16.12H30.232ZM34.968 16.12L35.4669 16.1533L35.5024 15.62H34.968V16.12ZM34.584 20.6L34.0884 20.5339L34.0377 20.9143L34.392 21.0617L34.584 20.6ZM38.744 48.888L38.4339 48.4956L38.4262 48.502L38.744 48.888ZM25.688 52.856H25.188V53.356H25.688V52.856ZM20.12 40.888H19.62V42.0951L20.4736 41.2416L20.12 40.888ZM29.336 23.288L29.8258 23.3887L29.935 22.8573L29.3965 22.7917L29.336 23.288ZM20.12 23.928L19.9789 23.4483L19.62 23.5539V23.928H20.12ZM15.384 25.72H15.884V24.797L15.1109 25.3012L15.384 25.72ZM11.544 28.472L11.2131 28.097L11.2049 28.1046L11.544 28.472ZM6.488 41.656L6.9731 41.5347L6.97181 41.5298L6.488 41.656ZM9.112 45.24L9.31511 44.783L9.30603 44.7792L9.112 45.24ZM15.384 44.472L15.6335 44.9053L15.884 44.7611V44.472H15.384ZM25.7179 49.1951C28.9324 49.0022 32.3228 48.6143 35.5186 46.284L34.9294 45.476C31.9812 47.6257 28.8436 48.0058 25.6581 48.1969L25.7179 49.1951ZM35.52 46.2829C38.7839 43.885 40.844 39.8315 40.844 35.768H39.844C39.844 39.5125 37.9361 43.267 34.928 45.4771L35.52 46.2829ZM40.844 35.768C40.844 31.1062 38.186 26.5273 34.0671 24.1356L33.5649 25.0004C37.382 27.2167 39.844 31.4698 39.844 35.768H40.844ZM33.3285 24.4568C30.8587 35.286 24.7911 43.6611 16.7521 47.869L17.2159 48.755C25.5609 44.3869 31.7813 35.738 34.3035 24.6792L33.3285 24.4568ZM16.7538 47.8681C13.3888 49.613 10.2249 49.9515 7.39597 48.6875L6.98803 49.6005C10.1751 51.0245 13.6673 50.595 17.2142 48.7559L16.7538 47.8681ZM7.39507 48.6871C5.772 47.9657 3.52626 46.3383 2.48781 42.7954L1.52819 43.0766C2.66574 46.9577 5.156 48.7863 6.98893 49.6009L7.39507 48.6871ZM2.4905 42.8049C0.952616 37.1455 3.65486 31.1698 7.12321 27.1339L6.36479 26.4821C2.79314 30.6382 -0.136616 36.9505 1.5255 43.0671L2.4905 42.8049ZM7.07481 27.1829C9.24913 25.2644 10.6358 24.1316 11.838 23.3276C13.0307 22.5299 14.0525 22.0485 15.5109 21.4461L15.1291 20.5219C13.6435 21.1355 12.5533 21.6461 11.282 22.4964C10.0202 23.3404 8.59087 24.5116 6.41319 26.4331L7.07481 27.1829ZM15.82 20.984V12.216H14.82V20.984H15.82ZM15.32 11.716H6.232V12.716H15.32V11.716ZM6.732 12.216V7.992H5.732V12.216H6.732ZM6.232 8.492H15.384V7.492H6.232V8.492ZM15.884 7.992V0.631996H14.884V7.992H15.884ZM15.384 1.132H20.12V0.131996H15.384V1.132ZM19.62 0.631996V7.992H20.62V0.631996H19.62ZM20.12 8.492H35.288V7.492H20.12V8.492ZM34.788 7.992V12.216H35.788V7.992H34.788ZM35.288 11.716H20.12V12.716H35.288V11.716ZM19.62 12.216V19.64H20.62V12.216H19.62ZM20.2121 20.1314C22.2421 19.7508 24.2573 19.5 26.2 19.5V18.5C24.1747 18.5 22.0939 18.7612 20.0279 19.1486L20.2121 20.1314ZM26.2 19.5C27.5122 19.5 28.7655 19.625 29.962 19.8139L30.118 18.8261C28.8825 18.631 27.5758 18.5 26.2 18.5V19.5ZM30.5367 19.3773C30.6346 18.5291 30.6833 17.716 30.7076 17.1163C30.7198 16.8159 30.7259 16.5681 30.7289 16.3948C30.7305 16.3082 30.7312 16.2401 30.7316 16.1934C30.7318 16.17 30.7319 16.152 30.732 16.1397C30.732 16.1335 30.732 16.1287 30.732 16.1254C30.732 16.1238 30.732 16.1225 30.732 16.1216C30.732 16.1212 30.732 16.1208 30.732 16.1205C30.732 16.1204 30.732 16.1203 30.732 16.1202C30.732 16.1201 30.732 16.1201 30.732 16.1201C30.732 16.12 30.732 16.12 30.232 16.12C29.732 16.12 29.732 16.12 29.732 16.12V16.1199C29.732 16.12 29.732 16.12 29.732 16.12C29.732 16.1201 29.732 16.1203 29.732 16.1206C29.732 16.1212 29.732 16.1222 29.732 16.1235C29.732 16.1261 29.732 16.1302 29.732 16.1356C29.7319 16.1466 29.7318 16.1632 29.7316 16.1851C29.7313 16.2289 29.7306 16.2938 29.7291 16.3772C29.7261 16.5439 29.7202 16.7841 29.7084 17.0757C29.6847 17.66 29.6374 18.4469 29.5433 19.2627L30.5367 19.3773ZM30.232 16.62H34.968V15.62H30.232V16.62ZM34.4691 16.0867C34.4042 17.0599 34.3415 18.6352 34.0884 20.5339L35.0796 20.6661C35.3385 18.7248 35.4038 17.1001 35.4669 16.1533L34.4691 16.0867ZM34.392 21.0617C40.6845 23.6783 44.58 29.2017 44.58 35.768H45.58C45.58 28.7663 41.4115 22.8977 34.776 20.1383L34.392 21.0617ZM44.58 35.768C44.58 40.6723 42.281 45.4553 38.434 48.4957L39.054 49.2803C43.143 46.0487 45.58 40.9757 45.58 35.768H44.58ZM38.4262 48.502C35.2759 51.0963 31.1759 52.356 25.816 52.356V53.356C31.3361 53.356 35.6841 52.0557 39.0619 49.274L38.4262 48.502ZM25.816 52.356H25.688V53.356H25.816V52.356ZM26.188 52.856V48.696H25.188V52.856H26.188ZM20.4736 41.2416C24.9632 36.7519 28.3994 30.3261 29.8258 23.3887L28.8462 23.1873C27.4566 29.9459 24.1088 36.1921 19.7664 40.5344L20.4736 41.2416ZM29.3965 22.7917C26.7277 22.4662 23.3272 22.4635 19.9789 23.4483L20.2611 24.4077C23.4408 23.4725 26.6963 23.4698 29.2755 23.7843L29.3965 22.7917ZM19.62 23.928V40.888H20.62V23.928H19.62ZM15.1109 25.3012C13.6469 26.2559 12.3338 27.1083 11.2132 28.0971L11.8748 28.8469C12.9302 27.9157 14.1771 27.104 15.6571 26.1388L15.1109 25.3012ZM11.2049 28.1046C9.4864 29.6909 7.89375 31.9428 6.87507 34.3662C5.85859 36.7845 5.39063 39.4302 6.00419 41.7822L6.97181 41.5298C6.43337 39.4658 6.82941 37.0555 7.79694 34.7537C8.76225 32.4572 10.2736 30.3251 11.8831 28.8394L11.2049 28.1046ZM6.00293 41.7773C6.47483 43.6649 7.51013 45.108 8.91797 45.7008L9.30603 44.7792C8.28187 44.348 7.39717 43.2311 6.97307 41.5347L6.00293 41.7773ZM8.90893 45.6969C10.8287 46.5501 13.4332 46.1721 15.6335 44.9053L15.1345 44.0387C13.1108 45.2038 10.8513 45.4659 9.31507 44.7831L8.90893 45.6969ZM15.884 44.472V25.72H14.884V44.472H15.884ZM98.136 14.712H97.636V15.212H98.136V14.712ZM107.992 14.712H108.492V14.212H107.992V14.712ZM107.992 18.808V19.308H108.492V18.808H107.992ZM98.136 18.808V18.308H97.636V18.808H98.136ZM89.24 53.496L88.904 53.8663L89.224 54.1566L89.5577 53.8821L89.24 53.496ZM85.784 50.36L85.4469 49.9908L85.0412 50.3611L85.448 50.7303L85.784 50.36ZM93.336 18.808H93.836V18.308H93.336V18.808ZM76.248 18.808H75.748V19.308H76.248V18.808ZM76.248 14.712V14.212H75.748V14.712H76.248ZM93.336 14.712V15.212H93.836V14.712H93.336ZM93.336 1.848V1.348H92.836V1.848H93.336ZM98.136 1.848H98.636V1.348H98.136V1.848ZM68.056 49.08L67.67 49.3979L67.9772 49.7709L68.3605 49.4766L68.056 49.08ZM62.936 5.56V5.06H62.436V5.56H62.936ZM67.544 5.56H68.044V5.06H67.544V5.56ZM71.64 46.328L71.9445 46.7246L72.3383 46.4222L72.0387 46.0263L71.64 46.328ZM98.136 15.212H107.992V14.212H98.136V15.212ZM107.492 14.712V18.808H108.492V14.712H107.492ZM107.992 18.308H98.136V19.308H107.992V18.308ZM97.636 18.808V29.688H98.636V18.808H97.636ZM97.636 29.688C97.636 36.7042 97.6615 40.6982 96.5978 43.8815C95.5494 47.0189 93.4234 49.4069 88.9223 53.1099L89.5577 53.8821C94.0806 50.1611 96.4026 47.6211 97.5462 44.1985C98.6745 40.8218 98.636 36.6238 98.636 29.688H97.636ZM89.576 53.1257L86.12 49.9897L85.448 50.7303L88.904 53.8663L89.576 53.1257ZM86.1211 50.7292C89.784 47.3849 91.7733 45.4333 92.7903 42.6179C93.7951 39.836 93.836 36.2425 93.836 29.688H92.836C92.836 36.3175 92.7809 39.7 91.8497 42.2781C90.9307 44.8227 89.1441 46.6151 85.4469 49.9908L86.1211 50.7292ZM93.836 29.688V18.808H92.836V29.688H93.836ZM93.336 18.308H76.248V19.308H93.336V18.308ZM76.748 18.808V14.712H75.748V18.808H76.748ZM76.248 15.212H93.336V14.212H76.248V15.212ZM93.836 14.712V1.848H92.836V14.712H93.836ZM93.336 2.348H98.136V1.348H93.336V2.348ZM97.636 1.848V14.712H98.636V1.848H97.636ZM68.442 48.7621C66.2071 46.0484 64.9772 44.2503 64.2883 42.2679C63.5984 40.2825 63.436 38.0694 63.436 34.488H62.436C62.436 38.0746 62.5936 40.4375 63.3437 42.5961C64.0948 44.7577 65.4249 46.6716 67.67 49.3979L68.442 48.7621ZM63.436 34.488V5.56H62.436V34.488H63.436ZM62.936 6.06H67.544V5.06H62.936V6.06ZM67.044 5.56V35.128H68.044V5.56H67.044ZM67.044 35.128C67.044 37.9458 67.169 39.6446 67.7811 41.2428C68.3876 42.8266 69.4619 44.2783 71.2413 46.6297L72.0387 46.0263C70.2341 43.6417 69.2604 42.3094 68.7149 40.8852C68.175 39.4754 68.044 37.9422 68.044 35.128H67.044ZM71.3355 45.9314L67.7515 48.6834L68.3605 49.4766L71.9445 46.7246L71.3355 45.9314ZM139.032 27H138.532V27.9279L139.307 27.4176L139.032 27ZM161.496 28.984L161.874 28.6567L161.873 28.6553L161.496 28.984ZM160.984 47.544L161.347 47.8876L161.351 47.8839L160.984 47.544ZM144.6 51.96H144.1V52.4451L144.585 52.4598L144.6 51.96ZM144.6 47.672L144.611 47.1721L144.1 47.1608V47.672H144.6ZM157.336 44.344L157.703 44.6836L157.709 44.6766L157.336 44.344ZM157.848 32.12L157.464 32.4401L157.848 32.12ZM139.032 31.288L138.757 30.8704L138.532 31.0186V31.288H139.032ZM136.408 50.552L136.701 50.957L136.706 50.9538L136.408 50.552ZM129.816 51L130.004 50.5367L129.995 50.5333L129.816 51ZM123.288 42.04L123.788 42.0323L123.788 42.0281L123.288 42.04ZM126.36 34.68L126.016 34.3166L126.006 34.3264L126.36 34.68ZM134.36 28.792L134.594 29.2337L134.86 29.0927V28.792H134.36ZM134.36 14.776H134.86V14.276H134.36V14.776ZM124.632 14.776H124.132V15.276H124.632V14.776ZM124.632 10.296V9.796H124.132V10.296H124.632ZM134.36 10.296V10.796H134.86V10.296H134.36ZM134.36 1.912V1.412H133.86V1.912H134.36ZM139.032 1.912H139.532V1.412H139.032V1.912ZM139.032 10.296H138.532V10.796H139.032V10.296ZM147.864 10.296H148.364V9.796H147.864V10.296ZM147.864 14.776V15.276H148.364V14.776H147.864ZM139.032 14.776V14.276H138.532V14.776H139.032ZM164.056 23.544L163.699 23.8945L164.023 24.2241L164.377 23.927L164.056 23.544ZM151.192 19H150.692V19.5H151.192V19ZM151.192 14.712V14.212H150.692V14.712H151.192ZM167.64 20.536L167.961 20.919L168.367 20.579L168.004 20.1936L167.64 20.536ZM134.36 33.784H134.86V32.8682L134.09 33.3634L134.36 33.784ZM128.344 40.056L128.823 40.1987L128.824 40.1964L128.344 40.056ZM131.48 46.776L131.306 47.2447L131.48 46.776ZM139.307 27.4176C140.534 26.6095 142.502 26 144.606 25.595C146.697 25.1927 148.857 25.004 150.424 25.004V24.004C148.791 24.004 146.567 24.1993 144.418 24.613C142.282 25.024 140.154 25.6625 138.757 26.5824L139.307 27.4176ZM150.424 25.004C155.112 25.004 158.61 26.4359 161.119 29.3127L161.873 28.6553C159.134 25.5161 155.336 24.004 150.424 24.004V25.004ZM161.118 29.3113C165.49 34.3601 165.314 42.1368 160.617 47.2041L161.351 47.8839C166.382 42.4552 166.59 34.1039 161.874 28.6567L161.118 29.3113ZM160.621 47.2004C158.483 49.4602 155.561 50.5654 152.61 51.0835C149.658 51.6016 146.729 51.5243 144.615 51.4602L144.585 52.4598C146.695 52.5237 149.718 52.6064 152.782 52.0685C155.847 51.5306 159.005 50.3638 161.347 47.8876L160.621 47.2004ZM145.1 51.96V47.672H144.1V51.96H145.1ZM144.589 48.1719C147.494 48.2364 150.133 48.0438 152.358 47.5018C154.582 46.9603 156.429 46.061 157.703 44.6835L156.969 44.0045C155.875 45.187 154.234 46.0157 152.122 46.5302C150.011 47.0442 147.466 47.2356 144.611 47.1721L144.589 48.1719ZM157.709 44.6766C160.994 40.99 161.286 35.4644 158.232 31.7999L157.464 32.4401C160.17 35.6876 159.95 40.658 156.963 44.0114L157.709 44.6766ZM158.232 31.7999C156.2 29.3613 153.231 28.1 149.464 28.1V29.1C152.993 29.1 155.656 30.2707 157.464 32.4401L158.232 31.7999ZM149.464 28.1C147.946 28.1 145.955 28.3463 144.012 28.8096C142.075 29.2715 140.139 29.9603 138.757 30.8704L139.307 31.7056C140.549 30.8876 142.357 30.2324 144.244 29.7824C146.125 29.3337 148.038 29.1 149.464 29.1V28.1ZM138.532 31.288V44.28H139.532V31.288H138.532ZM138.532 44.28C138.532 47.0567 137.673 48.9931 136.11 50.1502L136.706 50.9538C138.6 49.5509 139.532 47.2633 139.532 44.28H138.532ZM136.115 50.147C134.444 51.3571 131.952 51.3281 130.004 50.5368L129.628 51.4632C131.776 52.3359 134.66 52.4349 136.701 50.957L136.115 50.147ZM129.995 50.5333C126.82 49.3118 123.848 45.95 123.788 42.0323L122.788 42.0477C122.856 46.45 126.156 50.1282 129.637 51.4667L129.995 50.5333ZM123.788 42.0281C123.727 39.4868 124.755 36.9922 126.714 35.0336L126.006 34.3264C123.869 36.4638 122.721 39.2172 122.788 42.0519L123.788 42.0281ZM126.704 35.0432C129.05 32.8238 131.51 30.8705 134.594 29.2337L134.126 28.3503C130.938 30.0415 128.406 32.0562 126.016 34.3168L126.704 35.0432ZM134.86 28.792V14.776H133.86V28.792H134.86ZM134.36 14.276H124.632V15.276H134.36V14.276ZM125.132 14.776V10.296H124.132V14.776H125.132ZM124.632 10.796H134.36V9.796H124.632V10.796ZM134.86 10.296V1.912H133.86V10.296H134.86ZM134.36 2.412H139.032V1.412H134.36V2.412ZM138.532 1.912V10.296H139.532V1.912H138.532ZM139.032 10.796H147.864V9.796H139.032V10.796ZM147.364 10.296V14.776H148.364V10.296H147.364ZM147.864 14.276H139.032V15.276H147.864V14.276ZM138.532 14.776V27H139.532V14.776H138.532ZM164.413 23.1935C162.618 21.3676 161.514 20.1363 159.731 19.4164C157.964 18.7028 155.565 18.5 151.192 18.5V19.5C155.587 19.5 157.796 19.7132 159.357 20.3436C160.902 20.9677 161.846 22.0084 163.699 23.8945L164.413 23.1935ZM151.692 19V14.712H150.692V19H151.692ZM151.192 15.212C155.943 15.212 158.722 15.3446 160.933 16.1048C163.117 16.8553 164.791 18.2347 167.276 20.8784L168.004 20.1936C165.497 17.5253 163.683 15.9927 161.259 15.1592C158.862 14.3354 155.913 14.212 151.192 14.212V15.212ZM167.319 20.153L163.735 23.161L164.377 23.927L167.961 20.919L167.319 20.153ZM134.09 33.3634C132.74 34.2311 131.395 35.1641 130.287 36.2224C129.178 37.2818 128.281 38.49 127.864 39.9156L128.824 40.1964C129.175 38.998 129.942 37.9342 130.977 36.9456C132.013 35.9559 133.292 35.0649 134.63 34.2046L134.09 33.3634ZM127.865 39.9133C126.891 43.1836 128.829 46.3247 131.306 47.2447L131.654 46.3073C129.651 45.5633 128.005 42.9444 128.823 40.1987L127.865 39.9133ZM131.306 47.2447C132.463 47.6746 133.445 47.7177 134.107 47.08C134.419 46.7794 134.603 46.374 134.711 45.9316C134.819 45.4883 134.86 44.972 134.86 44.408H133.86C133.86 44.932 133.821 45.3597 133.739 45.6944C133.657 46.03 133.541 46.2366 133.413 46.36C133.195 46.5703 132.737 46.7094 131.654 46.3073L131.306 47.2447ZM134.86 44.408V33.784H133.86V44.408H134.86ZM215.192 1.4L215.688 1.46358L215.76 0.899998H215.192V1.4ZM213.784 11.448L213.293 11.3515L213.203 11.8099L213.654 11.9309L213.784 11.448ZM225.752 19.64L225.336 19.9174L225.342 19.9259L225.752 19.64ZM227.032 40.824L226.597 40.5783L226.595 40.5812L227.032 40.824ZM208.216 52.024L207.719 52.0808L207.774 52.5635L208.258 52.5222L208.216 52.024ZM207.704 47.544L207.633 47.0491L207.152 47.1184L207.207 47.6008L207.704 47.544ZM222.872 38.52L222.439 38.2695L222.438 38.2709L222.872 38.52ZM221.848 22.072L222.265 21.7958L222.261 21.7906L221.848 22.072ZM212.696 15.544L212.842 15.0658L212.34 14.9127L212.211 15.421L212.696 15.544ZM208.6 28.408L208.133 28.2294L208.132 28.2315L208.6 28.408ZM203.224 39.224L202.815 38.9363L202.643 39.1805L202.777 39.4476L203.224 39.224ZM205.976 43.768L206.247 44.1881L206.691 43.9015L206.38 43.4739L205.976 43.768ZM202.008 46.328L201.6 46.6163L201.876 47.0081L202.279 46.7481L202.008 46.328ZM199.96 43L200.411 42.785L200.103 42.1374L199.602 42.6508L199.96 43ZM181.592 32.44L182.089 32.4965L182.089 32.4923L181.592 32.44ZM190.04 16.696L190.37 17.0714L190.593 16.8752L190.528 16.5856L190.04 16.696ZM188.12 5.496L188.027 5.00471L187.567 5.09169L187.624 5.55616L188.12 5.496ZM192.856 4.6L193.353 4.54269L193.291 4.00881L192.763 4.10871L192.856 4.6ZM194.328 14.136L193.837 14.2281L193.968 14.9295L194.582 14.5665L194.328 14.136ZM209.112 10.616V11.116H209.529L209.604 10.7054L209.112 10.616ZM210.456 1.4V0.899998H209.982L209.957 1.37325L210.456 1.4ZM195.352 18.232L195.119 17.7897L194.773 17.9721L194.867 18.352L195.352 18.232ZM200.856 34.616L200.395 34.8103L200.813 35.7997L201.301 34.8436L200.856 34.616ZM204.312 26.68L203.845 26.5005L203.843 26.5059L204.312 26.68ZM207.96 14.648L208.444 14.7732L208.606 14.148H207.96V14.648ZM197.72 38.904L198.093 39.2367L198.319 38.9836L198.167 38.6804L197.72 38.904ZM191.32 21.624L191.803 21.4944L191.555 20.5718L190.938 21.301L191.32 21.624ZM186.328 32.952L186.824 33.0196L186.825 33.0081L186.328 32.952ZM188.376 41.848L188.001 42.1791L188.007 42.1858L188.013 42.1924L188.376 41.848ZM214.696 1.33641C214.373 3.85718 214.057 7.46928 213.293 11.3515L214.275 11.5445C215.047 7.61872 215.371 3.93482 215.688 1.46358L214.696 1.33641ZM213.654 11.9309C218.801 13.3117 222.724 15.9993 225.336 19.9174L226.168 19.3626C223.404 15.2166 219.263 12.4003 213.914 10.9651L213.654 11.9309ZM225.342 19.9259C229.654 26.1128 230.145 34.2905 226.597 40.5783L227.467 41.0697C231.215 34.4295 230.682 25.8392 226.162 19.3541L225.342 19.9259ZM226.595 40.5812C223.169 46.7473 216.294 50.8334 208.174 51.5258L208.258 52.5222C216.65 51.8066 223.855 47.5727 227.469 41.0668L226.595 40.5812ZM208.713 51.9672L208.201 47.4872L207.207 47.6008L207.719 52.0808L208.713 51.9672ZM207.775 48.0389C214.507 47.068 219.741 44.9735 223.306 38.7691L222.438 38.2709C219.091 44.0985 214.213 46.1 207.633 47.0491L207.775 48.0389ZM223.305 38.7705C226.229 33.7197 225.747 27.0513 222.265 21.7959L221.431 22.3481C224.733 27.3327 225.147 33.5923 222.439 38.2695L223.305 38.7705ZM222.261 21.7906C220.143 18.6797 216.716 16.2478 212.842 15.0658L212.55 16.0222C216.228 17.1442 219.457 19.4483 221.435 22.3534L222.261 21.7906ZM212.211 15.421C211.128 19.6893 209.79 23.8947 208.133 28.2294L209.067 28.5866C210.738 24.2173 212.088 19.9747 213.181 15.667L212.211 15.421ZM208.132 28.2315C206.855 31.6153 205.209 35.5342 202.815 38.9363L203.633 39.5117C206.103 36.0018 207.785 31.9847 209.068 28.5845L208.132 28.2315ZM202.777 39.4476C203.621 41.1356 204.531 42.6312 205.572 44.0621L206.38 43.4739C205.373 42.0888 204.491 40.6404 203.671 39.0004L202.777 39.4476ZM205.705 43.3479L201.737 45.9079L202.279 46.7481L206.247 44.1881L205.705 43.3479ZM202.416 46.0397C201.647 44.9501 201.031 44.0858 200.411 42.785L199.509 43.215C200.169 44.6022 200.833 45.5299 201.6 46.6163L202.416 46.0397ZM199.602 42.6508C197.097 45.2183 194.21 46.852 191 46.852V47.852C194.574 47.852 197.703 46.0297 200.318 43.3492L199.602 42.6508ZM191 46.852C187.843 46.852 185.419 45.2093 183.87 42.5933C182.313 39.9627 181.65 36.3494 182.089 32.4965L181.095 32.3835C180.638 36.4026 181.319 40.2453 183.01 43.1027C184.709 45.9747 187.437 47.852 191 47.852V46.852ZM182.089 32.4923C182.715 26.5502 185.654 21.2215 190.37 17.0714L189.71 16.3206C184.826 20.6185 181.749 26.1698 181.095 32.3877L182.089 32.4923ZM190.528 16.5856C189.763 13.2103 189.126 9.64307 188.616 5.43583L187.624 5.55616C188.138 9.79693 188.781 13.3977 189.552 16.8064L190.528 16.5856ZM188.213 5.98728L192.949 5.09128L192.763 4.10871L188.027 5.00471L188.213 5.98728ZM192.359 4.65731C192.745 8.00017 193.259 11.1483 193.837 14.2281L194.819 14.0439C194.245 10.9797 193.735 7.85583 193.353 4.54269L192.359 4.65731ZM194.582 14.5665C200.096 11.3086 205.104 11.116 209.112 11.116V10.116C205.056 10.116 199.824 10.3074 194.074 13.7055L194.582 14.5665ZM209.604 10.7054C210.112 7.91077 210.761 5.05143 210.955 1.42674L209.957 1.37325C209.767 4.91657 209.136 7.68923 208.62 10.5266L209.604 10.7054ZM210.456 1.9H215.192V0.899998H210.456V1.9ZM194.867 18.352C196.282 24.0768 198.147 29.4777 200.395 34.8103L201.317 34.4217C199.085 29.1303 197.238 23.7792 195.837 18.112L194.867 18.352ZM201.301 34.8436C202.785 31.9412 203.944 29.1062 204.781 26.8541L203.843 26.5059C203.016 28.7338 201.871 31.5308 200.411 34.3884L201.301 34.8436ZM204.779 26.8595C206.39 22.6694 207.485 18.4834 208.444 14.7732L207.476 14.5228C206.515 18.2366 205.434 22.3706 203.845 26.5005L204.779 26.8595ZM207.96 14.148C205.235 14.148 203.215 14.4241 201.268 15.0263C199.331 15.6255 197.486 16.542 195.119 17.7897L195.585 18.6743C197.954 17.426 199.725 16.5505 201.564 15.9817C203.393 15.4159 205.309 15.148 207.96 15.148V14.148ZM198.167 38.6804C196.389 35.1236 193.905 29.331 191.803 21.4944L190.837 21.7536C192.959 29.661 195.467 35.5164 197.273 39.1276L198.167 38.6804ZM190.938 21.301C188.061 24.7019 186.291 28.826 185.831 32.8959L186.825 33.0081C187.261 29.142 188.947 25.2021 191.702 21.947L190.938 21.301ZM185.833 32.8844C185.731 33.6262 185.634 35.2082 185.873 36.9635C186.111 38.7118 186.692 40.6969 188.001 42.1791L188.751 41.5169C187.628 40.2471 187.089 38.4882 186.863 36.8285C186.638 35.1758 186.733 33.6858 186.823 33.0196L185.833 32.8844ZM188.013 42.1924C189.431 43.6848 191.366 43.6293 193.163 42.9036C194.96 42.1784 196.748 40.7463 198.093 39.2367L197.347 38.5713C196.068 40.0057 194.4 41.3256 192.789 41.9764C191.178 42.6267 189.753 42.5712 188.738 41.5036L188.013 42.1924ZM251.864 2.744V2.244H251.364V2.744H251.864ZM251.864 30.52H251.364V31.02H251.864V30.52ZM256.664 30.52V31.02H257.164V30.52H256.664ZM256.664 2.744H257.164V2.244H256.664V2.744ZM275.736 2.744V2.244H275.236V2.744H275.736ZM280.792 2.744H281.292V2.244H280.792V2.744ZM263.576 53.688L263.173 53.984L263.472 54.3913L263.876 54.0878L263.576 53.688ZM260.568 49.592L260.264 49.1949L259.875 49.4929L260.165 49.888L260.568 49.592ZM251.364 2.744V30.52H252.364V2.744H251.364ZM251.864 31.02H256.664V30.02H251.864V31.02ZM257.164 30.52V2.744H256.164V30.52H257.164ZM256.664 2.244H251.864V3.244H256.664V2.244ZM276.236 18.936V2.744H275.236V18.936H276.236ZM275.736 3.244H280.792V2.244H275.736V3.244ZM280.292 2.744V18.936H281.292V2.744H280.292ZM280.292 18.936C280.292 29.1027 279.456 35.0743 276.95 39.7977C274.442 44.5252 270.23 48.0646 263.276 53.2882L263.876 54.0878C270.81 48.8794 275.206 45.2188 277.834 40.2663C280.464 35.3097 281.292 29.1213 281.292 18.936H280.292ZM263.979 53.392L260.971 49.296L260.165 49.888L263.173 53.984L263.979 53.392ZM260.872 49.9891C267.12 45.2077 271.011 42.1505 273.296 37.9091C275.586 33.6595 276.236 28.2798 276.236 18.936H275.236C275.236 28.2802 274.574 33.4285 272.416 37.4348C270.253 41.4495 266.56 44.3763 260.264 49.1949L260.872 49.9891ZM308.376 8.056V7.556H307.876V8.056H308.376ZM326.168 8.056H326.668V7.556H326.168V8.056ZM326.168 12.92V13.42H326.668V12.92H326.168ZM308.376 12.92H307.876V13.42H308.376V12.92ZM349.528 20.984L349.968 21.2213L350.204 20.7846L349.769 20.5458L349.528 20.984ZM310.104 51H309.604V51.5H310.104V51ZM310.104 46.264V45.764H309.604V46.264H310.104ZM344.984 18.488L345.225 18.0498L344.784 17.8079L344.545 18.2493L344.984 18.488ZM308.376 8.556H326.168V7.556H308.376V8.556ZM325.668 8.056V12.92H326.668V8.056H325.668ZM326.168 12.42H308.376V13.42H326.168V12.42ZM308.876 12.92V8.056H307.876V12.92H308.876ZM349.088 20.7467C343.567 30.9854 339.626 38.395 334.163 43.2751C328.742 48.1173 321.775 50.5 310.104 50.5V51.5C321.921 51.5 329.162 49.0827 334.829 44.0209C340.454 38.997 344.481 31.3986 349.968 21.2213L349.088 20.7467ZM310.604 51V46.264H309.604V51H310.604ZM310.104 46.764C320.086 46.764 326.133 44.9919 331.095 40.5235C336.006 36.1003 339.809 29.0619 345.423 18.7267L344.545 18.2493C338.895 28.6501 335.178 35.4997 330.425 39.7805C325.723 44.0161 319.962 45.764 310.104 45.764V46.764ZM344.743 18.9262L349.287 21.4222L349.769 20.5458L345.225 18.0498L344.743 18.9262ZM371.992 49.272L371.726 48.8488L371.282 49.1282L371.582 49.5583L371.992 49.272ZM401.304 14.968L401.804 14.979L401.815 14.468H401.304V14.968ZM385.688 14.968V14.468H385.388L385.246 14.7333L385.688 14.968ZM370.84 29.752L370.443 30.0562L370.735 30.4368L371.127 30.1612L370.84 29.752ZM367.896 25.912L367.606 25.505L367.184 25.8056L367.499 26.2162L367.896 25.912ZM383.384 0.631996V0.131996H382.884V0.631996H383.384ZM388.504 0.631996H389.004V0.131996H388.504V0.631996ZM387.544 10.296L387.06 10.1688L386.895 10.796H387.544V10.296ZM406.424 10.296H406.924V9.796H406.424V10.296ZM374.808 53.304L374.398 53.5903L374.67 53.9792L375.072 53.7284L374.808 53.304ZM372.258 49.6952C393.314 36.4475 401.542 26.8487 401.804 14.979L400.804 14.957C400.554 26.2553 392.782 35.6005 371.726 48.8488L372.258 49.6952ZM401.304 14.468H385.688V15.468H401.304V14.468ZM385.246 14.7333C382.613 19.6873 378.911 23.4726 370.553 29.3428L371.127 30.1612C379.537 24.2554 383.387 20.3607 386.129 15.2027L385.246 14.7333ZM371.237 29.4478L368.293 25.6078L367.499 26.2162L370.443 30.0562L371.237 29.4478ZM368.186 26.319C375.921 20.799 379.872 16.5815 381.871 12.6087C383.875 8.62512 383.884 4.94254 383.884 0.631996H382.884C382.884 4.96146 382.861 8.41488 380.977 12.1593C379.088 15.9145 375.295 20.017 367.606 25.505L368.186 26.319ZM383.384 1.132H388.504V0.131996H383.384V1.132ZM388.004 0.631996C388.004 5.66029 387.686 7.79081 387.06 10.1688L388.028 10.4232C388.682 7.93719 389.004 5.71571 389.004 0.631996H388.004ZM387.544 10.796H406.424V9.796H387.544V10.796ZM405.924 10.296V14.648H406.924V10.296H405.924ZM405.924 14.648C405.924 27.9305 397.441 38.6166 374.544 52.8796L375.072 53.7284C397.999 39.4474 406.924 28.5015 406.924 14.648H405.924ZM375.218 53.0177L372.402 48.9857L371.582 49.5583L374.398 53.5903L375.218 53.0177Z" fill="white"/>
</svg>
