<svg width="224" height="121" viewBox="0 0 224 121" fill="none" xmlns="http://www.w3.org/2000/svg">
<path d="M7 1.5C3.96244 1.5 1.5 3.96243 1.5 7V114C1.5 117.038 3.96243 119.5 7 119.5H58C61.0376 119.5 63.5 117.038 63.5 114V7C63.5 3.96243 61.0376 1.5 58 1.5H7Z" fill="white" stroke="#CC0000" stroke-width="3"/>
<path d="M21 2H43V5C43 7.20914 41.2091 9 39 9H25C22.7909 9 21 7.20914 21 5V2Z" fill="#CC0000"/>
<rect x="8" y="17" width="15.7317" height="20.7372" rx="1" fill="#CC0000"/>
<rect x="8" y="103" width="50" height="6" rx="1" fill="#CC0000"/>
<rect x="31" y="17" width="7" height="9" rx="1" fill="#CC0000"/>
<rect x="41" y="17" width="7" height="9" rx="1" fill="#CC0000"/>
<rect x="51" y="17" width="7" height="9" rx="1" fill="#CC0000"/>
<path d="M166 1.5C162.962 1.5 160.5 3.96243 160.5 7V114C160.5 117.038 162.962 119.5 166 119.5H217C220.038 119.5 222.5 117.038 222.5 114V7C222.5 3.96243 220.038 1.5 217 1.5H166Z" fill="white" stroke="#CC0000" stroke-width="3"/>
<path d="M180 2H202V5C202 7.20914 200.209 9 198 9H184C181.791 9 180 7.20914 180 5V2Z" fill="#CC0000"/>
<rect x="167" y="17" width="15.7317" height="20.7372" rx="1" fill="#CC0000"/>
<rect x="167" y="103" width="50" height="6" rx="1" fill="#CC0000"/>
<rect x="190" y="17" width="7" height="9" rx="1" fill="#CC0000"/>
<rect x="200" y="17" width="7" height="9" rx="1" fill="#CC0000"/>
<rect x="210" y="17" width="7" height="9" rx="1" fill="#CC0000"/>
<path d="M131.707 51.7071C132.098 51.3166 132.098 50.6834 131.707 50.2929L125.343 43.9289C124.953 43.5384 124.319 43.5384 123.929 43.9289C123.538 44.3195 123.538 44.9526 123.929 45.3431L129.586 51L123.929 56.6569C123.538 57.0474 123.538 57.6805 123.929 58.0711C124.319 58.4616 124.953 58.4616 125.343 58.0711L131.707 51.7071ZM93 52H131V50H93V52Z" fill="#CC0000"/>
<path d="M92.2929 69.2929C91.9024 69.6834 91.9024 70.3166 92.2929 70.7071L98.6569 77.0711C99.0474 77.4616 99.6805 77.4616 100.071 77.0711C100.462 76.6805 100.462 76.0474 100.071 75.6569L94.4142 70L100.071 64.3431C100.462 63.9526 100.462 63.3195 100.071 62.9289C99.6805 62.5384 99.0474 62.5384 98.6569 62.9289L92.2929 69.2929ZM93 71H131V69H93V71Z" fill="#CC0000"/>
</svg>
