<svg width="123" height="119" viewBox="0 0 123 119" fill="none" xmlns="http://www.w3.org/2000/svg">
<path d="M78.1625 119C75.6392 119 72.9551 117.983 70.1042 116.902C67.2477 115.822 64.2934 114.7 61.5 114.7C58.7066 114.7 55.7523 115.822 52.8957 116.902C50.0507 117.983 47.3608 119 44.8375 119C43.9869 119 43.2167 118.884 42.4867 118.646C39.2048 117.571 36.9862 114.142 34.8366 110.825C33.2157 108.32 31.5374 105.735 29.405 104.166C27.2382 102.574 24.2551 101.743 21.3756 100.941C17.6223 99.9007 13.7369 98.82 11.7425 96.0483C9.77102 93.3116 9.9492 89.2674 10.1216 85.3569C10.2538 82.318 10.3918 79.1745 9.55261 76.5598C8.75369 74.0787 6.86272 71.7022 5.03496 69.4012C2.55772 66.2867 0 63.0677 0 59.5C0 55.9323 2.56346 52.7133 5.03496 49.593C6.86272 47.292 8.75369 44.9155 9.55261 42.4344C10.3918 39.8197 10.2538 36.6762 10.1216 33.6372C9.9492 29.7268 9.77102 25.6826 11.7425 22.9517C13.7369 20.18 17.6223 19.0993 21.3756 18.0592C24.2551 17.2573 27.2382 16.4322 29.405 14.8343C31.5374 13.2655 33.2157 10.6798 34.8366 8.17544C36.9862 4.85762 39.2106 1.42939 42.4867 0.354435C43.2167 0.116202 43.9811 0 44.8375 0C47.3608 0 50.0449 1.01684 52.8957 2.0976C55.7523 3.17836 58.7066 4.2998 61.5 4.2998C64.2934 4.2998 67.2477 3.17836 70.1042 2.0976C72.9493 1.01684 75.6392 0 78.1625 0C79.0131 0 79.7833 0.116202 80.5133 0.354435C83.7952 1.42939 86.0138 4.85762 88.1634 8.17544C89.7843 10.6798 91.4626 13.2655 93.595 14.8343C95.7618 16.4264 98.7449 17.2573 101.624 18.0592C105.378 19.0993 109.263 20.18 111.258 22.9517C113.229 25.6884 113.051 29.7326 112.878 33.6372C112.746 36.6762 112.608 39.8197 113.447 42.4344C114.246 44.9155 116.137 47.292 117.965 49.593C120.442 52.7075 123 55.9265 123 59.4942C123 63.0619 120.437 66.2809 117.965 69.3954C116.137 71.6963 114.246 74.0729 113.447 76.554C112.608 79.1687 112.746 82.3122 112.878 85.3511C113.051 89.2616 113.229 93.3058 111.258 96.0367C109.263 98.8084 105.378 99.8891 101.624 100.929C98.7391 101.731 95.7618 102.556 93.595 104.154C91.4626 105.723 89.7843 108.309 88.1634 110.813C86.0138 114.131 83.7894 117.559 80.5133 118.634C79.7833 118.872 79.0189 118.988 78.1625 118.988V119Z" fill="#E6BE8F"/>
</svg>
