<svg width="115" height="144" viewBox="0 0 115 144" fill="none" xmlns="http://www.w3.org/2000/svg">
<path d="M63.0769 81H51.9231C48.0996 81 45 84.5306 45 88.8857V142.114C45 146.469 48.0996 150 51.9231 150H63.0769C66.9004 150 70 146.469 70 142.114V88.8857C70 84.5306 66.9004 81 63.0769 81Z" fill="#BA0000"/>
<path d="M105.8 2H9.2C5.22355 2 2 5.22355 2 9.2V99.8C2 103.776 5.22355 107 9.2 107H105.8C109.776 107 113 103.776 113 99.8V9.2C113 5.22355 109.776 2 105.8 2Z" fill="#CC0000" stroke="#CC0000" stroke-width="3" stroke-miterlimit="10" stroke-linecap="round"/>
<path d="M84.83 23H29.17C27.9715 23 27 23.9715 27 25.17V51.83C27 53.0285 27.9715 54 29.17 54H84.83C86.0285 54 87 53.0285 87 51.83V25.17C87 23.9715 86.0285 23 84.83 23Z" fill="#CCCCCC"/>
<path d="M78.59 30.5H36.41C35.9074 30.5 35.5 30.9074 35.5 31.41V34.59C35.5 35.0926 35.9074 35.5 36.41 35.5H78.59C79.0926 35.5 79.5 35.0926 79.5 34.59V31.41C79.5 30.9074 79.0926 30.5 78.59 30.5Z" fill="#4D4D4D" stroke="#4D4D4D" stroke-miterlimit="10"/>
</svg>
