<svg width="134" height="135" viewBox="0 0 134 135" fill="none" xmlns="http://www.w3.org/2000/svg">
<g filter="url(#filter0_d_2102_2145)">
<path d="M33.9416 111.822L33.9414 111.821C29.6281 106.614 27.7963 100.65 27.4291 94.5295C18.8757 89.2852 13.5146 81.2394 13.1202 70.7135L13.1202 70.7134C12.7067 59.6719 17.2768 50.176 27.2788 44.2118C29.0634 43.1476 30.9458 42.3281 32.6902 41.6481C32.8437 32.2045 36.8576 24.1251 44.7939 18.3897L33.9416 111.822ZM33.9416 111.822C39.241 118.218 46.2568 122.194 54.8053 122.706M33.9416 111.822L54.8053 122.706M87.1515 26.2021C96.3587 24.9572 104.823 27.4638 111.666 34.0733L111.666 34.0735C119.262 41.4101 122.474 50.8092 120.082 61.4408L87.1515 26.2021ZM87.1515 26.2021C83.6323 20.6874 78.7214 16.7504 72.5151 14.5072L87.1515 26.2021ZM54.8053 122.706C60.8107 123.067 66.3054 121.939 71.1612 119.254M54.8053 122.706L71.1612 119.254M71.1612 119.254C74.8788 117.199 78.0535 114.324 80.7435 110.8M71.1612 119.254L80.7435 110.8M80.7435 110.8C80.9618 110.864 81.1795 110.93 81.4043 110.998C81.978 111.171 82.5984 111.358 83.394 111.581C84.909 112.006 86.6701 112.436 88.5597 112.605C97.1293 113.37 104.766 110.489 110.878 104.716C118.144 97.8542 121.135 89.1311 120.047 79.3206C119.635 75.6006 118.289 72.3369 117.02 69.6056C117.265 68.9864 117.531 68.3771 117.832 67.6865C118.004 67.293 118.188 66.873 118.385 66.4098C118.986 65.0015 119.662 63.3057 120.081 61.4417L80.7435 110.8ZM27.3702 93.1284C27.3696 93.1201 27.3695 93.1158 27.3696 93.1156M27.3702 93.1284L27.3696 93.1156M27.3702 93.1284C27.37 93.1196 27.3697 93.1155 27.3696 93.1156M27.3702 93.1284L27.3696 93.1156M32.7264 43.9165C32.7287 43.9677 32.7247 43.9573 32.7255 43.8981C32.7258 43.9042 32.7261 43.9104 32.7264 43.9165ZM34.7036 40.8919C34.7679 40.8632 34.779 40.8644 34.7142 40.8881L34.7123 40.8888C34.7094 40.8898 34.7065 40.8909 34.7036 40.8919ZM85.4366 26.4462C85.4316 26.4466 85.4275 26.4469 85.4242 26.4471C85.4075 26.4483 85.4126 26.4471 85.4366 26.4462ZM116.498 68.4982C116.499 68.5009 116.501 68.5037 116.502 68.5064C116.501 68.5046 116.5 68.5029 116.499 68.5011L116.498 68.4982ZM72.5147 14.507C62.6846 10.9534 53.1247 12.3678 44.7946 18.3892L72.5147 14.507Z" stroke="white" stroke-width="10" shape-rendering="crispEdges"/>
</g>
<path d="M78.7794 104.834C73.2363 113.824 65.4504 118.337 55.1059 117.716C48.0816 117.294 42.3046 114.078 37.7933 108.632C34.0292 104.088 32.511 98.7758 32.37 93.0068C32.3444 91.9621 32.0439 91.4163 31.1416 90.9113C23.1734 86.4384 18.4581 79.6047 18.1181 70.5266C17.7677 61.1726 21.5253 53.4652 29.8409 48.5066C31.8934 47.2827 34.1791 46.4102 36.4341 45.5838C37.4908 45.197 37.7732 44.7681 37.7221 43.6808C37.3037 34.8555 40.6023 27.589 47.7245 22.4422C54.7241 17.3822 62.5529 16.2222 70.8165 19.2097C76.1871 21.1507 80.3327 24.5645 83.2881 29.456C84.6438 31.701 84.6924 31.6273 87.3338 31.2274C95.3211 30.018 102.402 32.0762 108.194 37.6701C114.62 43.8769 117.189 51.5274 115.205 60.3445C114.574 63.152 113.094 65.7633 112.094 68.4969C111.853 69.1522 111.71 70.0712 111.985 70.6491C113.392 73.6062 114.713 76.5641 115.079 79.871C116.001 88.192 113.522 95.3432 107.446 101.081C102.315 105.928 96.0692 108.256 89.0041 107.625C86.137 107.37 83.343 106.286 80.524 105.545C79.931 105.389 79.3777 105.083 78.7794 104.834Z" fill="#F64635"/>
<path d="M79.8569 82.9011C77.27 83.3514 74.9854 81.8001 74.4978 79.2589C74.0227 76.7788 75.7037 74.3654 78.2142 73.9239C80.6176 73.5015 83.2744 75.2544 83.6992 77.5437C84.1769 80.1111 82.5064 82.438 79.855 82.8998L79.8569 82.9011Z" fill="#F9E05C"/>
<path d="M63.4624 85.8253C60.8561 86.3034 58.4417 84.6713 57.9983 82.1319C57.6072 79.8951 59.4282 77.3285 61.7321 76.867C64.2303 76.3659 66.7098 77.9718 67.1978 80.4057C67.717 82.9965 66.1004 85.3431 63.4624 85.8253Z" fill="#F9E05C"/>
<path d="M67.1264 59.1698C64.4519 59.6389 62.3336 58.1733 61.8619 55.5301C61.3922 52.898 63.0477 50.6874 65.6477 50.1194C67.6565 49.6797 70.6497 51.652 70.9139 53.9602C71.2072 56.5231 69.7303 58.7148 67.1248 59.17L67.1264 59.1698Z" fill="#F9E05B"/>
<path d="M53.9776 62.2229C56.5136 61.8061 59.0735 63.4983 59.4047 65.8092C59.7587 68.2752 57.9663 70.9017 55.6037 71.3802C53.3432 71.8388 50.5586 69.7611 50.2188 67.3657C49.8736 64.9306 51.5631 62.6197 53.9776 62.2229Z" fill="#F9E15C"/>
<path d="M80.6558 57.4604C83.0707 57.0294 85.4387 58.6568 85.9059 61.0652C86.3577 63.3968 84.5638 66.1698 82.3113 66.6188C79.9867 67.0824 77.1738 65.0829 76.7223 62.644C76.2902 60.3138 78.1131 57.9125 80.6558 57.4604Z" fill="#F9E15C"/>
<defs>
<filter id="filter0_d_2102_2145" x="8.09375" y="7.58398" width="121.768" height="124.188" filterUnits="userSpaceOnUse" color-interpolation-filters="sRGB">
<feFlood flood-opacity="0" result="BackgroundImageFix"/>
<feColorMatrix in="SourceAlpha" type="matrix" values="0 0 0 0 0 0 0 0 0 0 0 0 0 0 0 0 0 0 127 0" result="hardAlpha"/>
<feOffset dx="4" dy="4"/>
<feComposite in2="hardAlpha" operator="out"/>
<feColorMatrix type="matrix" values="0 0 0 0 0 0 0 0 0 0 0 0 0 0 0 0 0 0 0.25 0"/>
<feBlend mode="normal" in2="BackgroundImageFix" result="effect1_dropShadow_2102_2145"/>
<feBlend mode="normal" in="SourceGraphic" in2="effect1_dropShadow_2102_2145" result="shape"/>
</filter>
</defs>
</svg>
