<svg width="30" height="30" viewBox="0 0 30 30" fill="none" xmlns="http://www.w3.org/2000/svg">
<circle cx="15" cy="15" r="15" fill="#F4F4F4"/>
<path d="M17.75 7H22.25C22.6562 7 23 7.34375 23 7.75V12.25C23 12.5625 22.8125 12.8438 22.5312 12.9688C22.25 13.0625 21.9062 13 21.7188 12.7812L20.5 11.5625L17.7812 14.2812C17.4688 14.5938 17 14.5938 16.7188 14.2812L15.7188 13.2812C15.4062 13 15.4062 12.5312 15.7188 12.25L18.4375 9.53125L17.2188 8.28125C17 8.09375 16.9375 7.75 17.0312 7.46875C17.1562 7.1875 17.4375 7 17.75 7ZM12.25 23H7.75C7.3125 23 7 22.6875 7 22.25V17.75C7 17.4688 7.15625 17.1875 7.4375 17.0625C7.71875 16.9688 8.0625 17.0312 8.28125 17.2188L9.5 18.4375L12.2188 15.7188C12.5 15.4375 12.9688 15.4375 13.25 15.7188L14.25 16.7188C14.5625 17.0312 14.5625 17.5 14.25 17.7812L11.5312 20.5L12.75 21.7188C12.9688 21.9375 13.0312 22.2812 12.9375 22.5625C12.8125 22.8438 12.5312 23 12.2188 23H12.25Z" fill="#1F1F1F"/>
</svg>
