<svg width="30" height="30" viewBox="0 0 30 30" fill="none" xmlns="http://www.w3.org/2000/svg">
<circle cx="15" cy="15" r="15" fill="#F4F4F4"/>
<path d="M11.4375 11.4688C10.9062 12.0312 10.5 12.6562 10.2812 13.3438C10.0938 13.875 9.5 14.1562 9 13.9688C8.46875 13.7812 8.1875 13.1875 8.375 12.6875C8.71875 11.7188 9.28125 10.8125 10.0312 10.0625C12.75 7.34375 17.1562 7.34375 19.9062 10.0312L21.2188 8.71875C21.4062 8.53125 21.75 8.46875 22.0312 8.5625C22.3125 8.6875 22.5 8.96875 22.5 9.25V13.25C22.5 13.6875 22.1562 14 21.75 14H21.4688H17.75C17.4375 14 17.1562 13.8438 17.0312 13.5625C16.9375 13.2812 17 12.9375 17.2188 12.7188L18.5 11.4375C16.5312 9.53125 13.4062 9.53125 11.4375 11.4688ZM7.5 16.75C7.5 16.3438 7.8125 16 8.25 16H8.46875H8.5H12.25C12.5312 16 12.8125 16.1875 12.9375 16.4688C13.0312 16.75 12.9688 17.0938 12.7812 17.2812L11.4688 18.5938C13.4375 20.5 16.5938 20.5 18.5312 18.5625C19.0625 18 19.4688 17.375 19.7188 16.6875C19.875 16.1562 20.4688 15.875 20.9688 16.0625C21.5 16.25 21.7812 16.8125 21.5938 17.3438C21.25 18.3125 20.6875 19.1875 19.9375 19.9688C17.2188 22.6875 12.8125 22.6875 10.0625 20L8.78125 21.2812C8.5625 21.5 8.21875 21.5625 7.9375 21.4688C7.65625 21.3438 7.5 21.0625 7.5 20.75V17.0312V17V16.7812V16.75Z" fill="#1F1F1F"/>
</svg>
