<svg width="30" height="30" viewBox="0 0 30 30" fill="none" xmlns="http://www.w3.org/2000/svg">
<circle cx="15" cy="15" r="15" fill="#2E2E2E"/>
<path d="M19.6875 18.3125C20.0938 18.6875 20.0938 19.3438 19.6875 19.7188C19.5 19.9062 19.25 20 19 20C18.7188 20 18.4688 19.9062 18.2812 19.7188L15 16.4375L11.6875 19.7188C11.5 19.9062 11.25 20 11 20C10.7188 20 10.4688 19.9062 10.2812 19.7188C9.875 19.3438 9.875 18.6875 10.2812 18.3125L13.5625 15L10.2812 11.7188C9.875 11.3438 9.875 10.6875 10.2812 10.3125C10.6562 9.90625 11.3125 9.90625 11.6875 10.3125L15 13.5938L18.2812 10.3125C18.6562 9.90625 19.3125 9.90625 19.6875 10.3125C20.0938 10.6875 20.0938 11.3438 19.6875 11.7188L16.4062 15.0312L19.6875 18.3125Z" fill="#F4F4F4"/>
</svg>
