<svg width="120" height="120" viewBox="0 0 120 120" fill="none" xmlns="http://www.w3.org/2000/svg">
<rect width="120" height="120" fill="#CC0000"/>
<rect width="120" height="120" fill="url(#paint0_linear_850_3046)" fill-opacity="0.04"/>
<path d="M22.8778 36.196C22.0565 36.196 21.3005 36.0233 20.6098 35.678C19.9285 35.3327 19.3825 34.7493 18.9718 33.928L20.3298 33.158C20.6098 33.6247 20.9505 33.9933 21.3518 34.264C21.7531 34.5253 22.2805 34.656 22.9338 34.656C23.5871 34.656 24.0445 34.5393 24.3058 34.306C24.5765 34.0633 24.7118 33.7367 24.7118 33.326C24.7118 33.0647 24.6511 32.8407 24.5298 32.654C24.4178 32.4673 24.1751 32.2947 23.8018 32.136C23.4378 31.968 22.8731 31.8 22.1078 31.632C21.2025 31.4173 20.5305 31.0767 20.0918 30.61C19.6625 30.1433 19.4478 29.5507 19.4478 28.832C19.4478 28.2627 19.5831 27.7633 19.8538 27.334C20.1338 26.8953 20.5211 26.5547 21.0158 26.312C21.5198 26.0693 22.1078 25.948 22.7798 25.948C23.6665 25.948 24.4131 26.144 25.0198 26.536C25.6265 26.9187 26.0885 27.3713 26.4058 27.894L25.1318 28.874C24.9731 28.65 24.7865 28.4353 24.5718 28.23C24.3571 28.0153 24.1051 27.8427 23.8158 27.712C23.5265 27.572 23.1765 27.502 22.7658 27.502C22.2805 27.502 21.8838 27.6093 21.5758 27.824C21.2771 28.0293 21.1278 28.342 21.1278 28.762C21.1278 28.9487 21.1698 29.1307 21.2538 29.308C21.3471 29.476 21.5431 29.6393 21.8418 29.798C22.1498 29.9567 22.6211 30.1107 23.2558 30.26C24.3758 30.512 25.1831 30.89 25.6778 31.394C26.1725 31.898 26.4198 32.5327 26.4198 33.298C26.4198 34.2313 26.0931 34.95 25.4398 35.454C24.7958 35.9487 23.9418 36.196 22.8778 36.196ZM28.0721 36V26.2H29.6821L34.3021 33.158V26.2H35.9401V36H34.3861L29.6821 28.846V36H28.0721ZM41.4579 36.196C40.6365 36.196 39.8805 36.0233 39.1899 35.678C38.5085 35.3327 37.9625 34.7493 37.5519 33.928L38.9099 33.158C39.1899 33.6247 39.5305 33.9933 39.9319 34.264C40.3332 34.5253 40.8605 34.656 41.5139 34.656C42.1672 34.656 42.6245 34.5393 42.8859 34.306C43.1565 34.0633 43.2919 33.7367 43.2919 33.326C43.2919 33.0647 43.2312 32.8407 43.1099 32.654C42.9979 32.4673 42.7552 32.2947 42.3819 32.136C42.0179 31.968 41.4532 31.8 40.6879 31.632C39.7825 31.4173 39.1105 31.0767 38.6719 30.61C38.2425 30.1433 38.0279 29.5507 38.0279 28.832C38.0279 28.2627 38.1632 27.7633 38.4339 27.334C38.7139 26.8953 39.1012 26.5547 39.5959 26.312C40.0999 26.0693 40.6879 25.948 41.3599 25.948C42.2465 25.948 42.9932 26.144 43.5999 26.536C44.2065 26.9187 44.6685 27.3713 44.9859 27.894L43.7119 28.874C43.5532 28.65 43.3665 28.4353 43.1519 28.23C42.9372 28.0153 42.6852 27.8427 42.3959 27.712C42.1065 27.572 41.7565 27.502 41.3459 27.502C40.8605 27.502 40.4639 27.6093 40.1559 27.824C39.8572 28.0293 39.7079 28.342 39.7079 28.762C39.7079 28.9487 39.7499 29.1307 39.8339 29.308C39.9272 29.476 40.1232 29.6393 40.4219 29.798C40.7299 29.9567 41.2012 30.1107 41.8359 30.26C42.9559 30.512 43.7632 30.89 44.2579 31.394C44.7525 31.898 44.9999 32.5327 44.9999 33.298C44.9999 34.2313 44.6732 34.95 44.0199 35.454C43.3759 35.9487 42.5219 36.196 41.4579 36.196ZM55.8642 36.546C54.8935 36.434 54.0349 36.1493 53.2882 35.692C52.5415 35.2347 51.9582 34.642 51.5382 33.914C51.1275 33.186 50.9222 32.3553 50.9222 31.422C50.9222 30.75 51.0809 30.064 51.3982 29.364C51.7249 28.664 52.2102 28.0433 52.8542 27.502C52.1075 27.6233 51.3609 27.754 50.6142 27.894C49.8769 28.034 49.2049 28.1647 48.5982 28.286C48.0009 28.4073 47.5389 28.51 47.2122 28.594L46.8342 26.788C47.1422 26.7693 47.5669 26.7273 48.1082 26.662C48.6589 26.5967 49.2749 26.5173 49.9562 26.424C50.6469 26.3213 51.3562 26.214 52.0842 26.102C52.8215 25.9807 53.5309 25.8593 54.2122 25.738C54.9029 25.6167 55.5189 25.5 56.0602 25.388C56.6109 25.2667 57.0402 25.1593 57.3482 25.066L57.7962 26.774C57.6469 26.7833 57.4649 26.802 57.2502 26.83C57.0449 26.858 56.8115 26.8907 56.5502 26.928C56.0369 26.9933 55.5469 27.152 55.0802 27.404C54.6135 27.656 54.1935 27.9827 53.8202 28.384C53.4562 28.7853 53.1669 29.2427 52.9522 29.756C52.7375 30.2693 52.6302 30.8247 52.6302 31.422C52.6302 32.1407 52.8122 32.738 53.1762 33.214C53.5402 33.69 54.0349 34.0633 54.6602 34.334C55.2949 34.5953 56.0042 34.7727 56.7882 34.866C56.6482 35.006 56.5129 35.1833 56.3822 35.398C56.2515 35.6033 56.1395 35.8087 56.0462 36.014C55.9529 36.2287 55.8922 36.406 55.8642 36.546ZM58.3002 30.12C58.1229 29.8307 57.8849 29.5227 57.5862 29.196C57.2969 28.8693 57.0309 28.608 56.7882 28.412L57.5442 27.782C57.6842 27.894 57.8522 28.0573 58.0482 28.272C58.2535 28.4867 58.4542 28.706 58.6502 28.93C58.8462 29.1447 58.9955 29.3313 59.0982 29.49L58.3002 30.12ZM57.0402 31.184C56.8629 30.8853 56.6295 30.5727 56.3402 30.246C56.0509 29.9193 55.7849 29.6533 55.5422 29.448L56.3122 28.832C56.4522 28.944 56.6202 29.1073 56.8162 29.322C57.0122 29.5367 57.2035 29.756 57.3902 29.98C57.5862 30.204 57.7355 30.3907 57.8382 30.54L57.0402 31.184ZM66.5602 37.036V33.998H60.2462V32.542H62.6122V29.07H66.5602V27.418H63.7182C63.3822 27.95 63.0182 28.454 62.6262 28.93C62.2435 29.3967 61.8422 29.8213 61.4222 30.204C61.2729 30.0453 61.0769 29.868 60.8342 29.672C60.6009 29.476 60.3535 29.3127 60.0922 29.182C60.6055 28.762 61.0909 28.2673 61.5482 27.698C62.0055 27.1193 62.4022 26.522 62.7382 25.906C63.0835 25.2807 63.3402 24.6927 63.5082 24.142L65.0902 24.632C64.9315 25.0707 64.7495 25.5 64.5442 25.92H72.4122V27.418H68.2962V29.07H71.4182V30.526H68.2962V32.542H73.0142V33.998H68.2962V37.036H66.5602ZM64.3342 32.542H66.5602V30.526H64.3342V32.542ZM85.7542 37.274C85.3622 37.19 84.9235 37.0593 84.4382 36.882C83.9622 36.7047 83.4909 36.504 83.0242 36.28C82.5669 36.056 82.1609 35.8273 81.8062 35.594L82.3522 34.936H79.0062L79.5662 35.622C79.2302 35.8367 78.8242 36.0513 78.3482 36.266C77.8815 36.4807 77.3962 36.672 76.8922 36.84C76.3975 37.0173 75.9262 37.1573 75.4782 37.26C75.4035 37.0827 75.2962 36.8633 75.1562 36.602C75.0255 36.35 74.8809 36.14 74.7222 35.972C75.0115 35.9253 75.3475 35.8507 75.7302 35.748C76.1222 35.6453 76.5189 35.524 76.9202 35.384C77.3309 35.244 77.7042 35.0947 78.0402 34.936H76.4162V29.154H84.9562V34.936H83.5142C83.8315 35.076 84.1722 35.216 84.5362 35.356C84.9095 35.496 85.2735 35.6173 85.6282 35.72C85.9922 35.8227 86.3189 35.902 86.6082 35.958C86.4589 36.1073 86.2955 36.3127 86.1182 36.574C85.9502 36.8447 85.8289 37.078 85.7542 37.274ZM75.1002 29.966C74.9975 29.7887 74.8389 29.5833 74.6242 29.35C74.4095 29.1167 74.2229 28.944 74.0642 28.832C74.7175 28.5427 75.2449 28.2067 75.6462 27.824C76.0475 27.432 76.3462 26.9607 76.5422 26.41H74.5542V25.192H76.8222C76.8409 25.0333 76.8549 24.87 76.8642 24.702C76.8735 24.534 76.8829 24.3613 76.8922 24.184L78.4322 24.254C78.4229 24.5713 78.3949 24.884 78.3482 25.192H80.8682C80.8402 26.004 80.7842 26.6573 80.7002 27.152C80.6255 27.6467 80.5135 28.02 80.3642 28.272C80.2242 28.524 80.0375 28.6967 79.8042 28.79C79.5709 28.874 79.2769 28.916 78.9222 28.916H78.0402C78.0309 28.804 78.0075 28.664 77.9702 28.496C77.9422 28.3187 77.9095 28.146 77.8722 27.978C77.8442 27.81 77.8069 27.6793 77.7602 27.586H78.5582C78.7449 27.586 78.8849 27.5627 78.9782 27.516C79.0715 27.4693 79.1415 27.3667 79.1882 27.208C79.2349 27.04 79.2722 26.774 79.3002 26.41H78.0682C77.8255 27.2033 77.4569 27.894 76.9622 28.482C76.4675 29.0607 75.8469 29.5553 75.1002 29.966ZM81.4982 28.608V24.786H86.5382V28.608H81.4982ZM78.0962 33.816H83.2762V33.214H78.0962V33.816ZM78.0962 32.318H83.2762V31.716H78.0962V32.318ZM82.9262 27.39H85.1102V26.004H82.9262V27.39ZM78.0962 30.834H83.2762V30.26H78.0962V30.834ZM90.7942 36.966V32.808C90.4582 33.0693 90.0989 33.3307 89.7162 33.592C89.3335 33.844 88.9649 34.0727 88.6102 34.278L87.9242 32.738C88.2042 32.6073 88.5215 32.4253 88.8762 32.192C89.2309 31.9587 89.5809 31.716 89.9262 31.464C90.2715 31.2027 90.5609 30.974 90.7942 30.778V28.86C90.5982 28.9533 90.3649 29.07 90.0942 29.21C89.8329 29.3407 89.6229 29.4573 89.4642 29.56C89.3709 29.308 89.2449 29.0233 89.0862 28.706C88.9275 28.3793 88.7595 28.0573 88.5822 27.74C88.4142 27.4227 88.2462 27.1567 88.0782 26.942L89.5482 26.158C89.7535 26.4473 89.9682 26.802 90.1922 27.222C90.4255 27.642 90.6262 28.0247 90.7942 28.37V24.464H92.4182V35.51C93.4542 34.894 94.2475 34.1333 94.7982 33.228C95.3489 32.3227 95.6802 31.1933 95.7922 29.84H92.9222V28.258H95.8342V24.45H97.5282V28.258H100.888V29.84H97.5842C97.7242 31.2213 98.1209 32.3693 98.7742 33.284C99.4275 34.1987 100.305 34.9687 101.406 35.594C101.201 35.734 100.986 35.9253 100.762 36.168C100.548 36.42 100.375 36.6673 100.244 36.91C99.3575 36.3033 98.6295 35.6593 98.0602 34.978C97.4909 34.2967 97.0522 33.5593 96.7442 32.766C96.4642 33.5593 96.0489 34.2967 95.4982 34.978C94.9569 35.6593 94.2429 36.3033 93.3562 36.91C93.2442 36.714 93.0995 36.5133 92.9222 36.308C92.7542 36.1027 92.5862 35.93 92.4182 35.79V36.966H90.7942ZM99.6142 27.796C99.3809 27.4507 99.1149 27.096 98.8162 26.732C98.5269 26.368 98.2329 26.0553 97.9342 25.794L99.1102 24.842C99.4275 25.1313 99.7449 25.4533 100.062 25.808C100.38 26.1627 100.636 26.4893 100.832 26.788C100.664 26.9 100.464 27.0493 100.23 27.236C100.006 27.4227 99.8009 27.6093 99.6142 27.796Z" fill="white"/>
<path d="M24 50C24 46.6863 26.6863 44 30 44H90C93.3137 44 96 46.6863 96 50V120H24V50Z" fill="white"/>
<path d="M29 52C29 49.7909 30.7909 48 33 48H87C89.2091 48 91 49.7909 91 52V120H29V52Z" fill="#CC0000"/>
<path d="M49 47H71V50C71 52.2091 69.2091 54 67 54H53C50.7909 54 49 52.2091 49 50V47Z" fill="white"/>
<rect x="35" y="62" width="15.7317" height="20.7372" fill="#F4F4F4"/>
<rect x="59" y="62" width="7" height="9" fill="#F4F4F4"/>
<rect x="69" y="62" width="7" height="9" fill="#F4F4F4"/>
<rect x="79" y="62" width="7" height="9" fill="#F4F4F4"/>
<defs>
<linearGradient id="paint0_linear_850_3046" x1="60" y1="0" x2="60" y2="120" gradientUnits="userSpaceOnUse">
<stop stop-opacity="0"/>
<stop offset="1"/>
</linearGradient>
</defs>
</svg>
