<svg width="121" height="121" viewBox="0 0 121 121" fill="none" xmlns="http://www.w3.org/2000/svg">
<circle cx="60.5" cy="60.5" r="60.5" fill="#CC0000"/>
<path d="M23.8778 35.196C23.0565 35.196 22.3005 35.0233 21.6098 34.678C20.9285 34.3327 20.3825 33.7493 19.9718 32.928L21.3298 32.158C21.6098 32.6247 21.9505 32.9933 22.3518 33.264C22.7531 33.5253 23.2805 33.656 23.9338 33.656C24.5871 33.656 25.0445 33.5393 25.3058 33.306C25.5765 33.0633 25.7118 32.7367 25.7118 32.326C25.7118 32.0647 25.6511 31.8407 25.5298 31.654C25.4178 31.4673 25.1751 31.2947 24.8018 31.136C24.4378 30.968 23.8731 30.8 23.1078 30.632C22.2025 30.4173 21.5305 30.0767 21.0918 29.61C20.6625 29.1433 20.4478 28.5507 20.4478 27.832C20.4478 27.2627 20.5831 26.7633 20.8538 26.334C21.1338 25.8953 21.5211 25.5547 22.0158 25.312C22.5198 25.0693 23.1078 24.948 23.7798 24.948C24.6665 24.948 25.4131 25.144 26.0198 25.536C26.6265 25.9187 27.0885 26.3713 27.4058 26.894L26.1318 27.874C25.9731 27.65 25.7865 27.4353 25.5718 27.23C25.3571 27.0153 25.1051 26.8427 24.8158 26.712C24.5265 26.572 24.1765 26.502 23.7658 26.502C23.2805 26.502 22.8838 26.6093 22.5758 26.824C22.2771 27.0293 22.1278 27.342 22.1278 27.762C22.1278 27.9487 22.1698 28.1307 22.2538 28.308C22.3471 28.476 22.5431 28.6393 22.8418 28.798C23.1498 28.9567 23.6211 29.1107 24.2558 29.26C25.3758 29.512 26.1831 29.89 26.6778 30.394C27.1725 30.898 27.4198 31.5327 27.4198 32.298C27.4198 33.2313 27.0931 33.95 26.4398 34.454C25.7958 34.9487 24.9418 35.196 23.8778 35.196ZM29.0721 35V25.2H30.6821L35.3021 32.158V25.2H36.9401V35H35.3861L30.6821 27.846V35H29.0721ZM42.4579 35.196C41.6365 35.196 40.8805 35.0233 40.1899 34.678C39.5085 34.3327 38.9625 33.7493 38.5519 32.928L39.9099 32.158C40.1899 32.6247 40.5305 32.9933 40.9319 33.264C41.3332 33.5253 41.8605 33.656 42.5139 33.656C43.1672 33.656 43.6245 33.5393 43.8859 33.306C44.1565 33.0633 44.2919 32.7367 44.2919 32.326C44.2919 32.0647 44.2312 31.8407 44.1099 31.654C43.9979 31.4673 43.7552 31.2947 43.3819 31.136C43.0179 30.968 42.4532 30.8 41.6879 30.632C40.7825 30.4173 40.1105 30.0767 39.6719 29.61C39.2425 29.1433 39.0279 28.5507 39.0279 27.832C39.0279 27.2627 39.1632 26.7633 39.4339 26.334C39.7139 25.8953 40.1012 25.5547 40.5959 25.312C41.0999 25.0693 41.6879 24.948 42.3599 24.948C43.2465 24.948 43.9932 25.144 44.5999 25.536C45.2065 25.9187 45.6685 26.3713 45.9859 26.894L44.7119 27.874C44.5532 27.65 44.3665 27.4353 44.1519 27.23C43.9372 27.0153 43.6852 26.8427 43.3959 26.712C43.1065 26.572 42.7565 26.502 42.3459 26.502C41.8605 26.502 41.4639 26.6093 41.1559 26.824C40.8572 27.0293 40.7079 27.342 40.7079 27.762C40.7079 27.9487 40.7499 28.1307 40.8339 28.308C40.9272 28.476 41.1232 28.6393 41.4219 28.798C41.7299 28.9567 42.2012 29.1107 42.8359 29.26C43.9559 29.512 44.7632 29.89 45.2579 30.394C45.7525 30.898 45.9999 31.5327 45.9999 32.298C45.9999 33.2313 45.6732 33.95 45.0199 34.454C44.3759 34.9487 43.5219 35.196 42.4579 35.196ZM56.8642 35.546C55.8935 35.434 55.0349 35.1493 54.2882 34.692C53.5415 34.2347 52.9582 33.642 52.5382 32.914C52.1275 32.186 51.9222 31.3553 51.9222 30.422C51.9222 29.75 52.0809 29.064 52.3982 28.364C52.7249 27.664 53.2102 27.0433 53.8542 26.502C53.1075 26.6233 52.3609 26.754 51.6142 26.894C50.8769 27.034 50.2049 27.1647 49.5982 27.286C49.0009 27.4073 48.5389 27.51 48.2122 27.594L47.8342 25.788C48.1422 25.7693 48.5669 25.7273 49.1082 25.662C49.6589 25.5967 50.2749 25.5173 50.9562 25.424C51.6469 25.3213 52.3562 25.214 53.0842 25.102C53.8215 24.9807 54.5309 24.8593 55.2122 24.738C55.9029 24.6167 56.5189 24.5 57.0602 24.388C57.6109 24.2667 58.0402 24.1593 58.3482 24.066L58.7962 25.774C58.6469 25.7833 58.4649 25.802 58.2502 25.83C58.0449 25.858 57.8115 25.8907 57.5502 25.928C57.0369 25.9933 56.5469 26.152 56.0802 26.404C55.6135 26.656 55.1935 26.9827 54.8202 27.384C54.4562 27.7853 54.1669 28.2427 53.9522 28.756C53.7375 29.2693 53.6302 29.8247 53.6302 30.422C53.6302 31.1407 53.8122 31.738 54.1762 32.214C54.5402 32.69 55.0349 33.0633 55.6602 33.334C56.2949 33.5953 57.0042 33.7727 57.7882 33.866C57.6482 34.006 57.5129 34.1833 57.3822 34.398C57.2515 34.6033 57.1395 34.8087 57.0462 35.014C56.9529 35.2287 56.8922 35.406 56.8642 35.546ZM59.3002 29.12C59.1229 28.8307 58.8849 28.5227 58.5862 28.196C58.2969 27.8693 58.0309 27.608 57.7882 27.412L58.5442 26.782C58.6842 26.894 58.8522 27.0573 59.0482 27.272C59.2535 27.4867 59.4542 27.706 59.6502 27.93C59.8462 28.1447 59.9955 28.3313 60.0982 28.49L59.3002 29.12ZM58.0402 30.184C57.8629 29.8853 57.6295 29.5727 57.3402 29.246C57.0509 28.9193 56.7849 28.6533 56.5422 28.448L57.3122 27.832C57.4522 27.944 57.6202 28.1073 57.8162 28.322C58.0122 28.5367 58.2035 28.756 58.3902 28.98C58.5862 29.204 58.7355 29.3907 58.8382 29.54L58.0402 30.184ZM67.5602 36.036V32.998H61.2462V31.542H63.6122V28.07H67.5602V26.418H64.7182C64.3822 26.95 64.0182 27.454 63.6262 27.93C63.2435 28.3967 62.8422 28.8213 62.4222 29.204C62.2729 29.0453 62.0769 28.868 61.8342 28.672C61.6009 28.476 61.3535 28.3127 61.0922 28.182C61.6055 27.762 62.0909 27.2673 62.5482 26.698C63.0055 26.1193 63.4022 25.522 63.7382 24.906C64.0835 24.2807 64.3402 23.6927 64.5082 23.142L66.0902 23.632C65.9315 24.0707 65.7495 24.5 65.5442 24.92H73.4122V26.418H69.2962V28.07H72.4182V29.526H69.2962V31.542H74.0142V32.998H69.2962V36.036H67.5602ZM65.3342 31.542H67.5602V29.526H65.3342V31.542ZM86.7542 36.274C86.3622 36.19 85.9235 36.0593 85.4382 35.882C84.9622 35.7047 84.4909 35.504 84.0242 35.28C83.5669 35.056 83.1609 34.8273 82.8062 34.594L83.3522 33.936H80.0062L80.5662 34.622C80.2302 34.8367 79.8242 35.0513 79.3482 35.266C78.8815 35.4807 78.3962 35.672 77.8922 35.84C77.3975 36.0173 76.9262 36.1573 76.4782 36.26C76.4035 36.0827 76.2962 35.8633 76.1562 35.602C76.0255 35.35 75.8809 35.14 75.7222 34.972C76.0115 34.9253 76.3475 34.8507 76.7302 34.748C77.1222 34.6453 77.5189 34.524 77.9202 34.384C78.3309 34.244 78.7042 34.0947 79.0402 33.936H77.4162V28.154H85.9562V33.936H84.5142C84.8315 34.076 85.1722 34.216 85.5362 34.356C85.9095 34.496 86.2735 34.6173 86.6282 34.72C86.9922 34.8227 87.3189 34.902 87.6082 34.958C87.4589 35.1073 87.2955 35.3127 87.1182 35.574C86.9502 35.8447 86.8289 36.078 86.7542 36.274ZM76.1002 28.966C75.9975 28.7887 75.8389 28.5833 75.6242 28.35C75.4095 28.1167 75.2229 27.944 75.0642 27.832C75.7175 27.5427 76.2449 27.2067 76.6462 26.824C77.0475 26.432 77.3462 25.9607 77.5422 25.41H75.5542V24.192H77.8222C77.8409 24.0333 77.8549 23.87 77.8642 23.702C77.8735 23.534 77.8829 23.3613 77.8922 23.184L79.4322 23.254C79.4229 23.5713 79.3949 23.884 79.3482 24.192H81.8682C81.8402 25.004 81.7842 25.6573 81.7002 26.152C81.6255 26.6467 81.5135 27.02 81.3642 27.272C81.2242 27.524 81.0375 27.6967 80.8042 27.79C80.5709 27.874 80.2769 27.916 79.9222 27.916H79.0402C79.0309 27.804 79.0075 27.664 78.9702 27.496C78.9422 27.3187 78.9095 27.146 78.8722 26.978C78.8442 26.81 78.8069 26.6793 78.7602 26.586H79.5582C79.7449 26.586 79.8849 26.5627 79.9782 26.516C80.0715 26.4693 80.1415 26.3667 80.1882 26.208C80.2349 26.04 80.2722 25.774 80.3002 25.41H79.0682C78.8255 26.2033 78.4569 26.894 77.9622 27.482C77.4675 28.0607 76.8469 28.5553 76.1002 28.966ZM82.4982 27.608V23.786H87.5382V27.608H82.4982ZM79.0962 32.816H84.2762V32.214H79.0962V32.816ZM79.0962 31.318H84.2762V30.716H79.0962V31.318ZM83.9262 26.39H86.1102V25.004H83.9262V26.39ZM79.0962 29.834H84.2762V29.26H79.0962V29.834ZM91.7942 35.966V31.808C91.4582 32.0693 91.0989 32.3307 90.7162 32.592C90.3335 32.844 89.9649 33.0727 89.6102 33.278L88.9242 31.738C89.2042 31.6073 89.5215 31.4253 89.8762 31.192C90.2309 30.9587 90.5809 30.716 90.9262 30.464C91.2715 30.2027 91.5609 29.974 91.7942 29.778V27.86C91.5982 27.9533 91.3649 28.07 91.0942 28.21C90.8329 28.3407 90.6229 28.4573 90.4642 28.56C90.3709 28.308 90.2449 28.0233 90.0862 27.706C89.9275 27.3793 89.7595 27.0573 89.5822 26.74C89.4142 26.4227 89.2462 26.1567 89.0782 25.942L90.5482 25.158C90.7535 25.4473 90.9682 25.802 91.1922 26.222C91.4255 26.642 91.6262 27.0247 91.7942 27.37V23.464H93.4182V34.51C94.4542 33.894 95.2475 33.1333 95.7982 32.228C96.3489 31.3227 96.6802 30.1933 96.7922 28.84H93.9222V27.258H96.8342V23.45H98.5282V27.258H101.888V28.84H98.5842C98.7242 30.2213 99.1209 31.3693 99.7742 32.284C100.428 33.1987 101.305 33.9687 102.406 34.594C102.201 34.734 101.986 34.9253 101.762 35.168C101.548 35.42 101.375 35.6673 101.244 35.91C100.358 35.3033 99.6295 34.6593 99.0602 33.978C98.4909 33.2967 98.0522 32.5593 97.7442 31.766C97.4642 32.5593 97.0489 33.2967 96.4982 33.978C95.9569 34.6593 95.2429 35.3033 94.3562 35.91C94.2442 35.714 94.0995 35.5133 93.9222 35.308C93.7542 35.1027 93.5862 34.93 93.4182 34.79V35.966H91.7942ZM100.614 26.796C100.381 26.4507 100.115 26.096 99.8162 25.732C99.5269 25.368 99.2329 25.0553 98.9342 24.794L100.11 23.842C100.428 24.1313 100.745 24.4533 101.062 24.808C101.38 25.1627 101.636 25.4893 101.832 25.788C101.664 25.9 101.464 26.0493 101.23 26.236C101.006 26.4227 100.801 26.6093 100.614 26.796Z" fill="white"/>
<path d="M25 49C25 45.6863 27.6863 43 31 43H91C94.3137 43 97 45.6863 97 49V119H25V49Z" fill="white"/>
<path d="M30 51C30 48.7909 31.7909 47 34 47H88C90.2091 47 92 48.7909 92 51V119H30V51Z" fill="#CC0000"/>
<path d="M50 46H72V49C72 51.2091 70.2091 53 68 53H54C51.7909 53 50 51.2091 50 49V46Z" fill="white"/>
<rect x="36" y="61" width="15.7317" height="20.7372" fill="#F4F4F4"/>
<rect x="60" y="61" width="7" height="9" fill="#F4F4F4"/>
<rect x="70" y="61" width="7" height="9" fill="#F4F4F4"/>
<rect x="80" y="61" width="7" height="9" fill="#F4F4F4"/>
</svg>
