<svg width="25" height="24" viewBox="0 0 25 24" fill="none" xmlns="http://www.w3.org/2000/svg">
<path d="M0 0H25V24H3C1.34315 24 0 22.6569 0 21V0Z" fill="#FF0000"/>
<path d="M16.24 21.34C15.7067 21.34 15.2733 21.2867 14.94 21.18C14.6133 21.0733 14.3733 20.8933 14.22 20.64C14.0733 20.3867 14 20.0433 14 19.61V13L15.31 13.08C15.2967 13.1933 15.2833 13.3833 15.27 13.65C15.2567 13.9167 15.2467 14.2033 15.24 14.51C15.2333 14.7567 15.2267 15.0267 15.22 15.32C15.22 15.6133 15.22 15.9367 15.22 16.29V19.37C15.22 19.6633 15.3 19.8633 15.46 19.97C15.6267 20.0767 15.9133 20.13 16.32 20.13C16.9733 20.13 17.59 20.0067 18.17 19.76C18.7567 19.5133 19.2633 19.2067 19.69 18.84C19.6967 18.9667 19.71 19.12 19.73 19.3C19.7567 19.4733 19.7833 19.64 19.81 19.8C19.8433 19.9533 19.87 20.0733 19.89 20.16C19.41 20.5067 18.85 20.79 18.21 21.01C17.5767 21.23 16.92 21.34 16.24 21.34ZM18.41 15.45C18.2767 15.2433 18.1 15.0267 17.88 14.8C17.6667 14.5733 17.4733 14.39 17.3 14.25L17.83 13.79C17.93 13.87 18.0533 13.9833 18.2 14.13C18.3533 14.2767 18.5 14.43 18.64 14.59C18.78 14.7433 18.89 14.8733 18.97 14.98L18.41 15.45ZM19.29 14.66C19.15 14.46 18.97 14.2467 18.75 14.02C18.5367 13.7933 18.3433 13.6133 18.17 13.48L18.69 13.02C18.7967 13.0933 18.9233 13.2033 19.07 13.35C19.2167 13.4967 19.36 13.6467 19.5 13.8C19.6467 13.9533 19.76 14.0833 19.84 14.19L19.29 14.66Z" fill="white"/>
<path d="M9.01999 21.75C8.89999 21.5033 8.73666 21.2266 8.52999 20.92C8.32999 20.6066 8.10666 20.2866 7.85999 19.96C7.61999 19.6266 7.37332 19.3033 7.11999 18.99C6.86666 18.6766 6.62666 18.3966 6.39999 18.15C6.17999 17.8966 5.98999 17.6966 5.82999 17.55C5.60332 17.33 5.48999 17.1366 5.48999 16.97C5.48999 16.7966 5.59999 16.6166 5.81999 16.43C5.98666 16.2833 6.18332 16.0966 6.40999 15.87C6.63666 15.6433 6.87332 15.3933 7.11999 15.12C7.36666 14.8466 7.60666 14.5666 7.83999 14.28C8.07999 13.9933 8.29332 13.7166 8.47999 13.45C8.67332 13.1766 8.82332 12.93 8.92999 12.71L10.07 13.48C9.92332 13.68 9.71999 13.9266 9.45999 14.22C9.20666 14.5133 8.93332 14.82 8.63999 15.14C8.35332 15.4533 8.07332 15.7533 7.79999 16.04C7.52666 16.32 7.29332 16.5533 7.09999 16.74C6.94666 16.8933 6.95332 17.0566 7.11999 17.23C7.26666 17.3766 7.44666 17.5733 7.65999 17.82C7.87999 18.06 8.10999 18.33 8.34999 18.63C8.59666 18.9233 8.83999 19.22 9.07999 19.52C9.31999 19.82 9.53666 20.1033 9.72999 20.37C9.92332 20.63 10.0767 20.8466 10.19 21.02C10.0833 21.06 9.95332 21.1233 9.79999 21.21C9.64666 21.2966 9.49666 21.3866 9.34999 21.48C9.20999 21.58 9.09999 21.67 9.01999 21.75Z" fill="white"/>
<path d="M14.0889 5.08889L14.045 4.13099C14.247 4.16374 14.4665 4.17193 14.9319 4.17193C15.4588 4.17193 16.2404 4.13918 16.5653 4.09825C16.7409 4.08187 16.8024 4.0655 16.9166 4L17.6103 4.55673C17.5313 4.65497 17.4874 4.74503 17.4259 4.90058C17.382 4.99883 16.8463 6.50526 16.7673 6.75906C17.4523 6.84912 18.0406 7.00468 18.708 7.27485C18.7783 6.85731 18.7958 6.52164 18.7958 5.76023C18.7958 5.58012 18.787 5.49006 18.7607 5.32632L19.8672 5.36725C19.8321 5.53918 19.8233 5.60468 19.8145 5.91579C19.7881 6.63626 19.7442 7.12749 19.6564 7.65146C19.9374 7.78246 20.3238 7.97076 20.596 8.11813C20.8332 8.24912 20.8683 8.25731 21 8.31462L20.6048 9.39532C20.3502 9.19064 19.8408 8.87134 19.393 8.63392C19.1471 9.23977 18.8836 9.64094 18.4358 10.0749C18.0494 10.4515 17.6103 10.7544 17.1098 11C16.7409 10.5743 16.6531 10.4924 16.3106 10.2632C16.9693 9.96842 17.3117 9.75556 17.6718 9.40351C18.0231 9.05146 18.3128 8.60936 18.4533 8.19181C17.8299 7.91345 17.3117 7.75789 16.4775 7.6269C16.0911 8.7076 15.8628 9.23158 15.6081 9.64094C15.2832 10.1649 14.888 10.4187 14.405 10.4187C13.5971 10.4187 13 9.75556 13 8.86316C13 8.10994 13.3952 7.47134 14.0889 7.07018C14.5456 6.80819 15.011 6.70175 15.7486 6.67719C15.9769 6.03041 16.0823 5.7193 16.3019 4.96608C15.854 4.99883 15.6432 5.00702 14.7827 5.03977C14.4226 5.05614 14.2645 5.06433 14.0889 5.08889ZM15.4764 7.53684C14.888 7.61871 14.5807 7.74971 14.3085 8.02807C14.0889 8.24912 13.9748 8.52749 13.9748 8.81404C13.9748 9.14971 14.1679 9.41988 14.405 9.41988C14.5719 9.41988 14.7036 9.27251 14.9056 8.90409C15.0812 8.57661 15.292 8.06901 15.4764 7.53684Z" fill="white"/>
<path d="M6.39604 10.9638C5.94059 11.0228 5.53135 11.0097 5.16832 10.9245C4.81188 10.8458 4.52805 10.7016 4.31683 10.4919C4.10561 10.2756 4 10.0003 4 9.666C4 9.20062 4.18812 8.75491 4.56436 8.32887C4.94719 7.90282 5.46205 7.5587 6.10891 7.29652V5.58578C5.74587 5.61855 5.38944 5.64149 5.0396 5.6546C4.69637 5.66771 4.37624 5.66771 4.07921 5.6546L4.0198 4.76973C4.28383 4.79595 4.59736 4.80578 4.9604 4.79923C5.33003 4.78612 5.71287 4.7599 6.10891 4.72057V3H6.9604V4.62226C7.31023 4.56982 7.63366 4.51083 7.93069 4.44528C8.23432 4.37974 8.48845 4.30764 8.69307 4.22898L8.80198 5.06469C8.28713 5.24166 7.67327 5.37931 6.9604 5.47763V7.02123C7.48185 6.89669 8.0396 6.83115 8.63366 6.82459C9.23432 6.82459 9.74917 6.91308 10.1782 7.09005C10.6073 7.26703 10.9373 7.50954 11.1683 7.81761C11.4059 8.11912 11.5248 8.46323 11.5248 8.84995C11.5248 9.45297 11.3333 9.92163 10.9505 10.2559C10.5743 10.5836 10.0825 10.7442 9.47525 10.7377C8.47195 10.7246 7.81848 10.2264 7.51485 9.24323C7.62046 9.21045 7.76238 9.15802 7.94059 9.08592C8.12541 9.00726 8.26073 8.93516 8.34653 8.86962C8.43894 9.19079 8.57426 9.43331 8.75247 9.59717C8.93069 9.75448 9.17162 9.83314 9.47525 9.83314C9.80528 9.83969 10.0693 9.75121 10.2673 9.56768C10.4719 9.38415 10.5743 9.14163 10.5743 8.84012C10.5743 8.47307 10.3993 8.17811 10.0495 7.95525C9.70627 7.72584 9.23432 7.61114 8.63366 7.61114C8.33003 7.61114 8.0363 7.63408 7.75247 7.67996C7.47525 7.71929 7.21122 7.775 6.9604 7.8471V10.3739C6.9604 10.564 6.91749 10.7016 6.83168 10.7868C6.74587 10.8786 6.60066 10.9376 6.39604 10.9638ZM11.4653 6.46081C11.3069 6.3035 11.0957 6.13308 10.8317 5.94956C10.5743 5.76603 10.3036 5.59233 10.0198 5.42847C9.73597 5.2646 9.47855 5.14007 9.24752 5.05486L9.74257 4.3568C9.9604 4.44856 10.2112 4.5731 10.495 4.73041C10.7789 4.88772 11.0561 5.05486 11.3267 5.23183C11.604 5.4088 11.8284 5.57595 12 5.73326C11.9538 5.77914 11.8911 5.85452 11.8119 5.95939C11.7393 6.05771 11.6667 6.15603 11.5941 6.25434C11.5281 6.35266 11.4851 6.42149 11.4653 6.46081ZM5.81188 10.1674C5.91749 10.1609 5.9934 10.1478 6.0396 10.1281C6.08581 10.1019 6.10891 10.0462 6.10891 9.96095V8.18139C5.72607 8.37147 5.42574 8.59433 5.20792 8.84995C4.9901 9.10558 4.88119 9.36449 4.88119 9.62667C4.88119 9.81675 4.967 9.95768 5.13861 10.0494C5.31683 10.1346 5.54125 10.174 5.81188 10.1674Z" fill="white"/>
</svg>
