<svg width="393" height="852" viewBox="0 0 393 852" fill="none" xmlns="http://www.w3.org/2000/svg">
<g clip-path="url(#clip0_1240_1818)">
<rect width="393" height="852" fill="#CC0000"/>
<g clip-path="url(#clip1_1240_1818)">
<path d="M136.612 9.29995L145.438 -14.9492C146.819 -18.7343 147.085 -23.2744 146.328 -27.9049C145.577 -32.5313 143.81 -37.2349 141.241 -41.3272C139.529 -44.0541 137.466 -46.5102 135.132 -48.5079C132.942 -50.382 130.729 -51.6772 128.611 -52.4481C127.618 -52.8096 126.649 -53.0514 125.708 -53.1902L122.209 -52.2835L122.087 -52.2625C120.332 -51.9495 118.745 -51.195 117.329 -49.9288C115.921 -48.6613 114.687 -46.8612 113.809 -44.449L103.966 -17.4069L134.053 8.36829L136.612 9.29995ZM132.817 -8.63482L115.719 -23.2824L117.807 -29.0191L134.905 -14.37L132.817 -8.63482Z" fill="white" fill-opacity="0.2"/>
<path d="M130.964 32.5789C131.228 32.924 131.547 33.2407 131.913 33.5212C132.397 33.892 132.971 34.2047 133.577 34.4252L133.604 34.4351C134.343 34.7042 135.138 34.8407 135.891 34.8325C136.687 34.824 137.423 34.6663 138.082 34.3578C138.546 34.1428 138.947 33.8648 139.312 33.512C139.835 32.9961 140.231 32.3668 140.519 31.5871L146.382 15.4771C146.582 14.9276 146.441 14.3049 146.018 13.8686C145.838 13.683 145.616 13.5423 145.378 13.4556C145.06 13.3399 144.712 13.317 144.378 13.403L136.466 15.453C136.31 15.4456 136.152 15.4591 135.998 15.4939C135.479 15.6144 135.064 15.9747 134.888 16.4567L130.432 28.7003C130.163 29.4487 130.088 30.1456 130.199 30.8411C130.302 31.4626 130.549 32.0276 130.964 32.5789Z" fill="white" fill-opacity="0.2"/>
<path d="M195.845 -34.1807C195.984 -36.294 195.866 -38.5206 195.496 -40.7736C194.766 -45.2778 193.04 -49.8737 190.538 -53.8523C188.873 -56.5075 186.871 -58.8867 184.62 -60.8127C182.512 -62.6207 180.4 -63.8481 178.411 -64.5722C176.189 -65.3773 174.136 -65.5659 172.296 -65.2602L132.735 -55.0105C134.483 -54.0978 136.203 -52.9294 137.872 -51.4993C141.932 -48.0179 145.143 -43.4954 147.38 -38.5849C149.613 -33.6717 150.874 -28.3648 150.948 -23.2602C150.991 -20.3075 150.634 -17.4181 149.818 -14.7236L149.853 -14.7107L149.413 -13.5022L140.622 10.6506L184.635 -0.751826L194.648 -28.2635C195.306 -30.0694 195.705 -32.0661 195.845 -34.1807Z" fill="white" fill-opacity="0.2"/>
</g>
<g clip-path="url(#clip2_1240_1818)">
<path d="M239.318 46.6818L248.144 22.4326C249.525 18.6475 249.791 14.1074 249.034 9.47696C248.283 4.85053 246.515 0.146949 243.946 -3.9454C242.235 -6.67225 240.171 -9.12834 237.837 -11.1261C235.648 -13.0002 233.435 -14.2954 231.317 -15.0663C230.324 -15.4278 229.354 -15.6696 228.413 -15.8084L224.915 -14.9016L224.792 -14.8807C223.037 -14.5677 221.45 -13.8131 220.034 -12.547C218.627 -11.2794 217.392 -9.47937 216.514 -7.06719L206.672 19.975L236.758 45.7501L239.318 46.6818ZM235.523 28.747L218.424 14.0995L220.512 8.36276L237.61 23.0118L235.523 28.747Z" fill="white" fill-opacity="0.2"/>
<path d="M233.669 69.9607C233.933 70.3059 234.253 70.6225 234.619 70.9031C235.102 71.2739 235.676 71.5865 236.282 71.807L236.309 71.8169C237.049 72.086 237.844 72.2226 238.596 72.2143C239.393 72.2058 240.129 72.0481 240.787 71.7397C241.251 71.5246 241.653 71.2466 242.018 70.8938C242.54 70.3779 242.937 69.7486 243.224 68.9689L249.088 52.859C249.288 52.3094 249.147 51.6867 248.724 51.2504C248.544 51.0648 248.322 50.9241 248.084 50.8375C247.766 50.7217 247.418 50.6989 247.084 50.7848L239.171 52.8348C239.016 52.8275 238.858 52.841 238.703 52.8757C238.184 52.9962 237.769 53.3566 237.594 53.8386L233.138 66.0822C232.869 66.8306 232.794 67.5275 232.904 68.2229C233.007 68.8444 233.255 69.4095 233.669 69.9607Z" fill="white" fill-opacity="0.2"/>
<path d="M298.55 3.2011C298.69 1.08786 298.572 -1.13873 298.202 -3.39177C297.472 -7.89593 295.745 -12.4918 293.244 -16.4705C291.579 -19.1257 289.577 -21.5049 287.326 -23.4308C285.218 -25.2389 283.106 -26.4663 281.116 -27.1904C278.894 -27.9955 276.841 -28.184 275.001 -27.8784L235.441 -17.6287C237.189 -16.7159 238.909 -15.5476 240.578 -14.1174C244.638 -10.6361 247.849 -6.11352 250.085 -1.20311C252.319 3.71012 253.579 9.01707 253.654 14.1216C253.697 17.0744 253.34 19.9638 252.523 22.6583L252.559 22.6711L252.119 23.8796L243.328 48.0325L287.34 36.63L297.354 9.11829C298.011 7.31248 298.411 5.3157 298.55 3.2011Z" fill="white" fill-opacity="0.2"/>
</g>
<g clip-path="url(#clip3_1240_1818)">
<path d="M344.596 84.9999L353.422 60.7507C354.803 56.9657 355.069 52.4256 354.312 47.7951C353.561 43.1686 351.793 38.4651 349.224 34.3727C347.512 31.6459 345.449 29.1898 343.115 27.192C340.926 25.318 338.713 24.0227 336.595 23.2518C335.602 22.8904 334.632 22.6486 333.691 22.5097L330.193 23.4165L330.07 23.4375C328.315 23.7504 326.728 24.505 325.312 25.7711C323.904 27.0387 322.67 28.8387 321.792 31.2509L311.95 58.2931L342.036 84.0682L344.596 84.9999ZM340.801 67.0651L323.702 52.4176L325.79 46.6809L342.888 61.3299L340.801 67.0651Z" fill="white" fill-opacity="0.2"/>
<path d="M338.948 108.279C339.212 108.624 339.531 108.94 339.897 109.221C340.381 109.592 340.955 109.904 341.561 110.125L341.588 110.135C342.327 110.404 343.122 110.54 343.874 110.532C344.671 110.524 345.407 110.366 346.066 110.058C346.529 109.842 346.931 109.565 347.296 109.212C347.819 108.696 348.215 108.067 348.503 107.287L354.366 91.1768C354.566 90.6273 354.425 90.0046 354.002 89.5683C353.822 89.3827 353.6 89.242 353.362 89.1554C353.044 89.0396 352.696 89.0168 352.362 89.1027L344.45 91.1527C344.294 91.1453 344.136 91.1589 343.982 91.1936C343.463 91.3141 343.048 91.6744 342.872 92.1565L338.416 104.4C338.147 105.148 338.072 105.845 338.183 106.541C338.286 107.162 338.533 107.727 338.948 108.279Z" fill="white" fill-opacity="0.2"/>
<path d="M403.829 41.5192C403.968 39.406 403.85 37.1794 403.48 34.9263C402.75 30.4222 401.023 25.8263 398.522 21.8476C396.857 19.1925 394.855 16.8133 392.604 14.8873C390.496 13.0792 388.384 11.8518 386.395 11.1278C384.173 10.3226 382.12 10.1341 380.279 10.4397L340.719 20.6895C342.467 21.6022 344.187 22.7705 345.856 24.2007C349.916 27.682 353.127 32.2046 355.363 37.115C357.597 42.0282 358.858 47.3352 358.932 52.4398C358.975 55.3925 358.618 58.2819 357.802 60.9764L357.837 60.9893L357.397 62.1977L348.606 86.3506L392.619 74.9481L402.632 47.4364C403.289 45.6306 403.689 43.6338 403.829 41.5192Z" fill="white" fill-opacity="0.2"/>
</g>
<g clip-path="url(#clip4_1240_1818)">
<path d="M31.3335 111.518L40.1594 87.269C41.5405 83.484 41.8064 78.9439 41.0495 74.3134C40.2984 69.687 38.5307 64.9834 35.962 60.891C34.2502 58.1642 32.1868 55.7081 29.8529 53.7103C27.6634 51.8363 25.4505 50.541 23.3325 49.7702C22.3393 49.4087 21.3701 49.1669 20.4289 49.028L16.9306 49.9348L16.8081 49.9558C15.0527 50.2687 13.4659 51.0233 12.0498 52.2894C10.6421 53.557 9.40808 55.3571 8.53012 57.7692L-1.31242 84.8114L28.7738 110.587L31.3335 111.518ZM27.5386 93.5834L10.4401 78.9359L12.5281 73.1992L29.6261 87.8482L27.5386 93.5834Z" fill="white" fill-opacity="0.2"/>
<path d="M25.685 134.797C25.9488 135.142 26.2684 135.458 26.6343 135.739C27.118 136.11 27.6921 136.422 28.2978 136.643L28.3251 136.653C29.0644 136.922 29.8592 137.058 30.6118 137.05C31.4084 137.042 32.1445 136.884 32.8029 136.576C33.2668 136.361 33.6685 136.083 34.0335 135.73C34.5561 135.214 34.9527 134.585 35.2401 133.805L41.1036 117.695C41.3037 117.145 41.1627 116.523 40.7392 116.086C40.5593 115.901 40.3376 115.76 40.0996 115.673C39.7816 115.558 39.4332 115.535 39.0996 115.621L31.1869 117.671C31.0313 117.663 30.8736 117.677 30.7189 117.712C30.2001 117.832 29.7851 118.193 29.6096 118.675L25.1533 130.918C24.8846 131.667 24.8092 132.363 24.92 133.059C25.0231 133.68 25.2705 134.245 25.685 134.797Z" fill="white" fill-opacity="0.2"/>
<path d="M90.5664 68.0375C90.706 65.9243 90.5881 63.6977 90.2181 61.4447C89.488 56.9405 87.7613 52.3446 85.2601 48.366C83.5951 45.7108 81.5929 43.3316 79.3421 41.4056C77.234 39.5976 75.1219 38.3701 73.1325 37.6461C70.9105 36.8409 68.8573 36.6524 67.0172 36.958L27.4569 47.2078C29.2047 48.1205 30.9251 49.2888 32.594 50.719C36.6537 54.2003 39.8648 58.7229 42.1013 63.6333C44.3349 68.5465 45.5954 73.8535 45.6701 78.9581C45.7129 81.9108 45.3562 84.8002 44.5393 87.4947L44.5747 87.5076L44.1349 88.716L35.344 112.869L79.3565 101.466L89.37 73.9547C90.0272 72.1489 90.4267 70.1521 90.5664 68.0375Z" fill="white" fill-opacity="0.2"/>
</g>
<g clip-path="url(#clip5_1240_1818)">
<path d="M136.612 149.837L145.438 125.587C146.819 121.802 147.085 117.262 146.328 112.632C145.577 108.005 143.81 103.302 141.241 99.2094C139.529 96.4825 137.466 94.0264 135.132 92.0287C132.942 90.1546 130.729 88.8594 128.611 88.0885C127.618 87.727 126.649 87.4852 125.708 87.3464L122.209 88.2532L122.087 88.2741C120.332 88.5871 118.745 89.3416 117.329 90.6078C115.921 91.8753 114.687 93.6754 113.809 96.0876L103.966 123.13L134.053 148.905L136.612 149.837ZM132.817 131.902L115.719 117.254L117.807 111.518L134.905 126.167L132.817 131.902Z" fill="white" fill-opacity="0.2"/>
<path d="M130.964 173.115C131.228 173.461 131.547 173.777 131.913 174.058C132.397 174.429 132.971 174.741 133.577 174.962L133.604 174.972C134.343 175.241 135.138 175.377 135.891 175.369C136.687 175.361 137.423 175.203 138.082 174.894C138.546 174.679 138.947 174.401 139.312 174.049C139.835 173.533 140.231 172.903 140.519 172.124L146.382 156.014C146.582 155.464 146.441 154.842 146.018 154.405C145.838 154.22 145.616 154.079 145.378 153.992C145.06 153.877 144.712 153.854 144.378 153.94L136.466 155.99C136.31 155.982 136.152 155.996 135.998 156.031C135.479 156.151 135.064 156.511 134.888 156.993L130.432 169.237C130.163 169.985 130.088 170.682 130.199 171.378C130.302 171.999 130.549 172.564 130.964 173.115Z" fill="white" fill-opacity="0.2"/>
<path d="M195.845 106.356C195.984 104.242 195.866 102.016 195.496 99.7628C194.766 95.2586 193.04 90.6627 190.538 86.6841C188.873 84.0289 186.871 81.6497 184.62 79.7237C182.512 77.9157 180.4 76.6882 178.411 75.9642C176.189 75.159 174.136 74.9705 172.296 75.2762L132.735 85.5259C134.483 86.4386 136.203 87.607 137.872 89.0371C141.932 92.5184 145.143 97.041 147.38 101.951C149.613 106.865 150.874 112.172 150.948 117.276C150.991 120.229 150.634 123.118 149.818 125.813L149.853 125.826L149.413 127.034L140.622 151.187L184.635 139.785L194.648 112.273C195.306 110.467 195.705 108.47 195.845 106.356Z" fill="white" fill-opacity="0.2"/>
</g>
<g clip-path="url(#clip6_1240_1818)">
<path d="M239.317 187.218L248.143 162.969C249.524 159.184 249.79 154.644 249.033 150.013C248.282 145.387 246.515 140.683 243.946 136.591C242.234 133.864 240.171 131.408 237.837 129.41C235.647 127.536 233.434 126.241 231.316 125.47C230.323 125.108 229.354 124.867 228.413 124.728L224.914 125.634L224.792 125.655C223.037 125.968 221.45 126.723 220.034 127.989C218.626 129.257 217.392 131.057 216.514 133.469L206.671 160.511L236.758 186.286L239.317 187.218ZM235.523 169.283L218.424 154.636L220.512 148.899L237.61 163.548L235.523 169.283Z" fill="white" fill-opacity="0.2"/>
<path d="M233.669 210.497C233.933 210.842 234.253 211.159 234.619 211.439C235.102 211.81 235.676 212.123 236.282 212.343L236.309 212.353C237.049 212.622 237.844 212.759 238.596 212.75C239.393 212.742 240.129 212.584 240.787 212.276C241.251 212.061 241.653 211.783 242.018 211.43C242.54 210.914 242.937 210.285 243.224 209.505L249.088 193.395C249.288 192.846 249.147 192.223 248.724 191.787C248.544 191.601 248.322 191.46 248.084 191.374C247.766 191.258 247.418 191.235 247.084 191.321L239.171 193.371C239.016 193.364 238.858 193.377 238.703 193.412C238.184 193.532 237.769 193.893 237.594 194.375L233.138 206.618C232.869 207.367 232.794 208.064 232.904 208.759C233.007 209.381 233.255 209.946 233.669 210.497Z" fill="white" fill-opacity="0.2"/>
<path d="M298.55 143.737C298.69 141.624 298.572 139.398 298.202 137.145C297.472 132.64 295.745 128.045 293.244 124.066C291.579 121.411 289.577 119.032 287.326 117.106C285.218 115.298 283.106 114.07 281.116 113.346C278.894 112.541 276.841 112.352 275.001 112.658L235.441 122.908C237.189 123.82 238.909 124.989 240.578 126.419C244.638 129.9 247.849 134.423 250.085 139.333C252.319 144.246 253.579 149.553 253.654 154.658C253.697 157.611 253.34 160.5 252.523 163.195L252.559 163.208L252.119 164.416L243.328 188.569L287.34 177.166L297.354 149.655C298.011 147.849 298.411 145.852 298.55 143.737Z" fill="white" fill-opacity="0.2"/>
</g>
<g clip-path="url(#clip7_1240_1818)">
<path d="M344.596 225.536L353.422 201.287C354.803 197.502 355.069 192.962 354.312 188.331C353.561 183.705 351.793 179.001 349.224 174.909C347.512 172.182 345.449 169.726 343.115 167.728C340.926 165.854 338.713 164.559 336.595 163.788C335.602 163.427 334.632 163.185 333.691 163.046L330.193 163.953L330.07 163.974C328.315 164.287 326.728 165.041 325.312 166.307C323.904 167.575 322.67 169.375 321.792 171.787L311.95 198.829L342.036 224.605L344.596 225.536ZM340.801 207.602L323.702 192.954L325.79 187.217L342.888 201.866L340.801 207.602Z" fill="white" fill-opacity="0.2"/>
<path d="M338.947 248.815C339.211 249.16 339.531 249.477 339.896 249.757C340.38 250.128 340.954 250.441 341.56 250.661L341.587 250.671C342.327 250.94 343.121 251.077 343.874 251.069C344.671 251.06 345.407 250.902 346.065 250.594C346.529 250.379 346.931 250.101 347.296 249.748C347.818 249.232 348.215 248.603 348.502 247.823L354.366 231.713C354.566 231.164 354.425 230.541 354.001 230.105C353.822 229.919 353.6 229.778 353.362 229.692C353.044 229.576 352.695 229.553 352.362 229.639L344.449 231.689C344.293 231.682 344.136 231.695 343.981 231.73C343.462 231.85 343.047 232.211 342.872 232.693L338.416 244.936C338.147 245.685 338.071 246.382 338.182 247.077C338.285 247.699 338.533 248.264 338.947 248.815Z" fill="white" fill-opacity="0.2"/>
<path d="M403.829 182.055C403.968 179.942 403.85 177.716 403.48 175.462C402.75 170.958 401.023 166.362 398.522 162.384C396.857 159.729 394.855 157.349 392.604 155.423C390.496 153.615 388.384 152.388 386.395 151.664C384.173 150.859 382.12 150.67 380.279 150.976L340.719 161.226C342.467 162.138 344.187 163.307 345.856 164.737C349.916 168.218 353.127 172.741 355.363 177.651C357.597 182.564 358.858 187.871 358.932 192.976C358.975 195.929 358.618 198.818 357.802 201.513L357.837 201.525L357.397 202.734L348.606 226.887L392.619 215.484L402.632 187.973C403.289 186.167 403.689 184.17 403.829 182.055Z" fill="white" fill-opacity="0.2"/>
</g>
<g clip-path="url(#clip8_1240_1818)">
<path d="M31.3335 252.055L40.1594 227.805C41.5405 224.02 41.8064 219.48 41.0495 214.85C40.2984 210.223 38.5307 205.52 35.962 201.427C34.2502 198.701 32.1868 196.244 29.8529 194.247C27.6634 192.373 25.4505 191.077 23.3325 190.307C22.3393 189.945 21.3701 189.703 20.4289 189.564L16.9306 190.471L16.8081 190.492C15.0527 190.805 13.4659 191.56 12.0498 192.826C10.6421 194.093 9.40808 195.893 8.53012 198.306L-1.31242 225.348L28.7738 251.123L31.3335 252.055ZM27.5386 234.12L10.4401 219.472L12.5281 213.736L29.6261 228.385L27.5386 234.12Z" fill="white" fill-opacity="0.2"/>
<path d="M25.685 275.333C25.9488 275.678 26.2684 275.995 26.6343 276.276C27.118 276.646 27.6921 276.959 28.2978 277.18L28.3251 277.189C29.0644 277.459 29.8592 277.595 30.6118 277.587C31.4084 277.578 32.1445 277.421 32.8029 277.112C33.2668 276.897 33.6685 276.619 34.0335 276.266C34.5561 275.75 34.9527 275.121 35.2401 274.341L41.1036 258.232C41.3037 257.682 41.1627 257.059 40.7392 256.623C40.5593 256.437 40.3376 256.297 40.0996 256.21C39.7816 256.094 39.4332 256.071 39.0996 256.157L31.1869 258.207C31.0313 258.2 30.8736 258.214 30.7189 258.248C30.2001 258.369 29.7851 258.729 29.6096 259.211L25.1533 271.455C24.8846 272.203 24.8092 272.9 24.92 273.596C25.0231 274.217 25.2705 274.782 25.685 275.333Z" fill="white" fill-opacity="0.2"/>
<path d="M90.5664 208.574C90.706 206.46 90.5881 204.234 90.2181 201.981C89.488 197.477 87.7613 192.881 85.2601 188.902C83.5951 186.247 81.5929 183.868 79.3421 181.942C77.234 180.134 75.1219 178.906 73.1325 178.182C70.9105 177.377 68.8573 177.189 67.0172 177.494L27.4569 187.744C29.2047 188.657 30.9251 189.825 32.594 191.255C36.6537 194.736 39.8648 199.259 42.1013 204.169C44.3349 209.083 45.5954 214.39 45.6701 219.494C45.7129 222.447 45.3562 225.336 44.5393 228.031L44.5747 228.044L44.1349 229.252L35.344 253.405L79.3565 242.003L89.37 214.491C90.0272 212.685 90.4267 210.688 90.5664 208.574Z" fill="white" fill-opacity="0.2"/>
</g>
<g clip-path="url(#clip9_1240_1818)">
<path d="M136.612 290.373L145.438 266.124C146.819 262.338 147.085 257.798 146.328 253.168C145.577 248.541 143.81 243.838 141.241 239.746C139.529 237.019 137.466 234.563 135.132 232.565C132.942 230.691 130.729 229.396 128.611 228.625C127.618 228.263 126.649 228.021 125.708 227.883L122.209 228.789L122.087 228.81C120.332 229.123 118.745 229.878 117.329 231.144C115.921 232.411 114.687 234.212 113.809 236.624L103.966 263.666L134.053 289.441L136.612 290.373ZM132.817 272.438L115.719 257.79L117.807 252.054L134.905 266.703L132.817 272.438Z" fill="white" fill-opacity="0.2"/>
<path d="M130.964 313.652C131.228 313.997 131.547 314.313 131.913 314.594C132.397 314.965 132.971 315.277 133.577 315.498L133.604 315.508C134.343 315.777 135.138 315.913 135.891 315.905C136.687 315.897 137.423 315.739 138.082 315.431C138.546 315.216 138.947 314.938 139.312 314.585C139.835 314.069 140.231 313.44 140.519 312.66L146.382 296.55C146.582 296 146.441 295.378 146.018 294.941C145.838 294.756 145.616 294.615 145.378 294.528C145.06 294.413 144.712 294.39 144.378 294.476L136.466 296.526C136.31 296.518 136.152 296.532 135.998 296.567C135.479 296.687 135.064 297.047 134.888 297.53L130.432 309.773C130.163 310.521 130.088 311.218 130.199 311.914C130.302 312.535 130.549 313.1 130.964 313.652Z" fill="white" fill-opacity="0.2"/>
<path d="M195.845 246.892C195.984 244.779 195.866 242.552 195.496 240.299C194.766 235.795 193.04 231.199 190.538 227.22C188.873 224.565 186.871 222.186 184.62 220.26C182.512 218.452 180.4 217.225 178.411 216.501C176.189 215.695 174.136 215.507 172.296 215.813L132.735 226.062C134.483 226.975 136.203 228.143 137.872 229.573C141.932 233.055 145.143 237.577 147.38 242.488C149.613 247.401 150.874 252.708 150.948 257.813C150.991 260.765 150.634 263.655 149.818 266.349L149.853 266.362L149.413 267.571L140.622 291.723L184.635 280.321L194.648 252.809C195.306 251.003 195.705 249.007 195.845 246.892Z" fill="white" fill-opacity="0.2"/>
</g>
<g clip-path="url(#clip10_1240_1818)">
<path d="M239.318 327.755L248.144 303.505C249.525 299.72 249.791 295.18 249.034 290.55C248.283 285.923 246.515 281.22 243.946 277.127C242.235 274.401 240.171 271.944 237.837 269.947C235.648 268.073 233.435 266.777 231.317 266.006C230.324 265.645 229.354 265.403 228.413 265.264L224.915 266.171L224.792 266.192C223.037 266.505 221.45 267.26 220.034 268.526C218.627 269.793 217.392 271.593 216.514 274.006L206.672 301.048L236.758 326.823L239.318 327.755ZM235.523 309.82L218.424 295.172L220.512 289.436L237.61 304.085L235.523 309.82Z" fill="white" fill-opacity="0.2"/>
<path d="M233.669 351.033C233.933 351.379 234.253 351.695 234.619 351.976C235.102 352.347 235.676 352.659 236.282 352.88L236.309 352.89C237.049 353.159 237.844 353.295 238.596 353.287C239.393 353.279 240.129 353.121 240.787 352.812C241.251 352.597 241.653 352.319 242.018 351.967C242.54 351.451 242.937 350.821 243.224 350.042L249.088 333.932C249.288 333.382 249.147 332.759 248.724 332.323C248.544 332.138 248.322 331.997 248.084 331.91C247.766 331.795 247.418 331.772 247.084 331.858L239.171 333.908C239.016 333.9 238.858 333.914 238.703 333.948C238.184 334.069 237.769 334.429 237.594 334.911L233.138 347.155C232.869 347.903 232.794 348.6 232.904 349.296C233.007 349.917 233.255 350.482 233.669 351.033Z" fill="white" fill-opacity="0.2"/>
<path d="M298.55 284.274C298.69 282.161 298.572 279.934 298.202 277.681C297.472 273.177 295.745 268.581 293.244 264.602C291.579 261.947 289.577 259.568 287.326 257.642C285.218 255.834 283.106 254.606 281.116 253.882C278.894 253.077 276.841 252.889 275.001 253.194L235.441 263.444C237.189 264.357 238.909 265.525 240.578 266.955C244.638 270.437 247.849 274.959 250.085 279.87C252.319 284.783 253.579 290.09 253.654 295.194C253.697 298.147 253.34 301.037 252.523 303.731L252.559 303.744L252.119 304.952L243.328 329.105L287.34 317.703L297.354 290.191C298.011 288.385 298.411 286.388 298.55 284.274Z" fill="white" fill-opacity="0.2"/>
</g>
<g clip-path="url(#clip11_1240_1818)">
<path d="M344.596 366.072L353.422 341.823C354.803 338.038 355.069 333.498 354.312 328.868C353.561 324.241 351.793 319.538 349.224 315.445C347.512 312.718 345.449 310.262 343.115 308.265C340.926 306.39 338.713 305.095 336.595 304.324C335.602 303.963 334.632 303.721 333.691 303.582L330.193 304.489L330.07 304.51C328.315 304.823 326.728 305.577 325.312 306.844C323.904 308.111 322.67 309.911 321.792 312.323L311.95 339.366L342.036 365.141L344.596 366.072ZM340.801 348.138L323.702 333.49L325.79 327.753L342.888 342.402L340.801 348.138Z" fill="white" fill-opacity="0.2"/>
<path d="M338.948 389.351C339.212 389.696 339.531 390.013 339.897 390.293C340.381 390.664 340.955 390.977 341.561 391.197L341.588 391.207C342.327 391.476 343.122 391.613 343.874 391.605C344.671 391.596 345.407 391.438 346.066 391.13C346.529 390.915 346.931 390.637 347.296 390.284C347.819 389.768 348.215 389.139 348.503 388.359L354.366 372.249C354.566 371.7 354.425 371.077 354.002 370.641C353.822 370.455 353.6 370.314 353.362 370.228C353.044 370.112 352.696 370.089 352.362 370.175L344.45 372.225C344.294 372.218 344.136 372.231 343.982 372.266C343.463 372.387 343.048 372.747 342.872 373.229L338.416 385.473C338.147 386.221 338.072 386.918 338.183 387.613C338.286 388.235 338.533 388.8 338.948 389.351Z" fill="white" fill-opacity="0.2"/>
<path d="M403.829 322.592C403.968 320.478 403.85 318.252 403.48 315.999C402.75 311.495 401.023 306.899 398.522 302.92C396.857 300.265 394.855 297.886 392.604 295.96C390.496 294.152 388.384 292.924 386.395 292.2C384.173 291.395 382.12 291.207 380.279 291.512L340.719 301.762C342.467 302.675 344.187 303.843 345.856 305.273C349.916 308.755 353.127 313.277 355.363 318.188C357.597 323.101 358.858 328.408 358.932 333.512C358.975 336.465 358.618 339.354 357.802 342.049L357.837 342.062L357.397 343.27L348.606 367.423L392.619 356.021L402.632 328.509C403.289 326.703 403.689 324.706 403.829 322.592Z" fill="white" fill-opacity="0.2"/>
</g>
<g clip-path="url(#clip12_1240_1818)">
<path d="M31.3335 392.591L40.1594 368.342C41.5405 364.557 41.8064 360.017 41.0495 355.386C40.2984 350.76 38.5307 346.056 35.962 341.964C34.2502 339.237 32.1868 336.781 29.8529 334.783C27.6634 332.909 25.4505 331.614 23.3325 330.843C22.3393 330.481 21.3701 330.24 20.4289 330.101L16.9306 331.008L16.8081 331.029C15.0527 331.341 13.4659 332.096 12.0498 333.362C10.6421 334.63 9.40808 336.43 8.53012 338.842L-1.31242 365.884L28.7738 391.659L31.3335 392.591ZM27.5386 374.656L10.4401 360.009L12.5281 354.272L29.6261 368.921L27.5386 374.656Z" fill="white" fill-opacity="0.2"/>
<path d="M25.685 415.869C25.9488 416.215 26.2684 416.531 26.6343 416.812C27.118 417.183 27.6921 417.495 28.2978 417.716L28.3251 417.726C29.0644 417.995 29.8592 418.131 30.6118 418.123C31.4084 418.115 32.1445 417.957 32.8029 417.648C33.2668 417.433 33.6685 417.155 34.0335 416.803C34.5561 416.287 34.9527 415.657 35.2401 414.878L41.1036 398.768C41.3037 398.218 41.1627 397.595 40.7392 397.159C40.5593 396.973 40.3376 396.833 40.0996 396.746C39.7816 396.63 39.4332 396.608 39.0996 396.694L31.1869 398.744C31.0313 398.736 30.8736 398.75 30.7189 398.784C30.2001 398.905 29.7851 399.265 29.6096 399.747L25.1533 411.991C24.8846 412.739 24.8092 413.436 24.92 414.132C25.0231 414.753 25.2705 415.318 25.685 415.869Z" fill="white" fill-opacity="0.2"/>
<path d="M90.5664 349.11C90.706 346.997 90.5881 344.77 90.2181 342.517C89.488 338.013 87.7613 333.417 85.2601 329.438C83.5951 326.783 81.5929 324.404 79.3421 322.478C77.234 320.67 75.1219 319.443 73.1325 318.719C70.9105 317.913 68.8573 317.725 67.0172 318.031L27.4569 328.28C29.2047 329.193 30.9251 330.361 32.594 331.791C36.6537 335.273 39.8648 339.795 42.1013 344.706C44.3349 349.619 45.5954 354.926 45.6701 360.031C45.7129 362.983 45.3562 365.873 44.5393 368.567L44.5747 368.58L44.1349 369.789L35.344 393.941L79.3565 382.539L89.37 355.027C90.0272 353.221 90.4267 351.225 90.5664 349.11Z" fill="white" fill-opacity="0.2"/>
</g>
<g clip-path="url(#clip13_1240_1818)">
<path d="M136.612 430.909L145.438 406.66C146.819 402.875 147.085 398.334 146.328 393.704C145.577 389.078 143.81 384.374 141.241 380.282C139.529 377.555 137.466 375.099 135.132 373.101C132.942 371.227 130.729 369.932 128.611 369.161C127.618 368.799 126.649 368.557 125.708 368.419L122.209 369.325L122.087 369.346C120.332 369.659 118.745 370.414 117.329 371.68C115.921 372.948 114.687 374.748 113.809 377.16L103.966 404.202L134.053 429.977L136.612 430.909ZM132.817 412.974L115.719 398.327L117.807 392.59L134.905 407.239L132.817 412.974Z" fill="white" fill-opacity="0.2"/>
<path d="M130.964 454.188C131.228 454.533 131.547 454.85 131.913 455.13C132.397 455.501 132.971 455.814 133.577 456.034L133.604 456.044C134.343 456.313 135.138 456.45 135.891 456.441C136.687 456.433 137.423 456.275 138.082 455.967C138.546 455.752 138.947 455.474 139.312 455.121C139.835 454.605 140.231 453.976 140.519 453.196L146.382 437.086C146.582 436.536 146.441 435.914 146.018 435.477C145.838 435.292 145.616 435.151 145.378 435.065C145.06 434.949 144.712 434.926 144.378 435.012L136.466 437.062C136.31 437.055 136.152 437.068 135.998 437.103C135.479 437.223 135.064 437.584 134.888 438.066L130.432 450.309C130.163 451.058 130.088 451.755 130.199 452.45C130.302 453.071 130.549 453.637 130.964 454.188Z" fill="white" fill-opacity="0.2"/>
<path d="M195.845 387.428C195.984 385.315 195.866 383.088 195.496 380.835C194.766 376.331 193.04 371.735 190.538 367.757C188.873 365.101 186.871 362.722 184.62 360.796C182.512 358.988 180.4 357.761 178.411 357.037C176.189 356.232 174.136 356.043 172.296 356.349L132.735 366.598C134.483 367.511 136.203 368.679 137.872 370.11C141.932 373.591 145.143 378.114 147.38 383.024C149.613 387.937 150.874 393.244 150.948 398.349C150.991 401.301 150.634 404.191 149.818 406.885L149.853 406.898L149.413 408.107L140.622 432.26L184.635 420.857L194.648 393.345C195.306 391.54 195.705 389.543 195.845 387.428Z" fill="white" fill-opacity="0.2"/>
</g>
<g clip-path="url(#clip14_1240_1818)">
<path d="M239.318 468.291L248.144 444.042C249.525 440.256 249.791 435.716 249.034 431.086C248.283 426.459 246.515 421.756 243.946 417.663C242.235 414.937 240.171 412.481 237.837 410.483C235.648 408.609 233.435 407.314 231.317 406.543C230.324 406.181 229.354 405.939 228.413 405.801L224.915 406.707L224.792 406.728C223.037 407.041 221.45 407.796 220.034 409.062C218.627 410.329 217.392 412.13 216.514 414.542L206.672 441.584L236.758 467.359L239.318 468.291ZM235.523 450.356L218.424 435.708L220.512 429.972L237.61 444.621L235.523 450.356Z" fill="white" fill-opacity="0.2"/>
<path d="M233.669 491.57C233.933 491.915 234.253 492.232 234.619 492.512C235.102 492.883 235.676 493.196 236.282 493.416L236.309 493.426C237.049 493.695 237.844 493.832 238.596 493.823C239.393 493.815 240.129 493.657 240.787 493.349C241.251 493.134 241.653 492.856 242.018 492.503C242.54 491.987 242.937 491.358 243.224 490.578L249.088 474.468C249.288 473.919 249.147 473.296 248.724 472.86C248.544 472.674 248.322 472.533 248.084 472.447C247.766 472.331 247.418 472.308 247.084 472.394L239.171 474.444C239.016 474.437 238.858 474.45 238.703 474.485C238.184 474.605 237.769 474.966 237.594 475.448L233.138 487.691C232.869 488.44 232.794 489.137 232.904 489.832C233.007 490.454 233.255 491.019 233.669 491.57Z" fill="white" fill-opacity="0.2"/>
<path d="M298.55 424.81C298.69 422.697 298.572 420.47 298.202 418.217C297.472 413.713 295.745 409.117 293.244 405.139C291.579 402.483 289.577 400.104 287.326 398.178C285.218 396.37 283.106 395.143 281.116 394.419C278.894 393.614 276.841 393.425 275.001 393.731L235.441 403.98C237.189 404.893 238.909 406.062 240.578 407.492C244.638 410.973 247.849 415.496 250.085 420.406C252.319 425.319 253.579 430.626 253.654 435.731C253.697 438.683 253.34 441.573 252.523 444.267L252.559 444.28L252.119 445.489L243.328 469.642L287.34 458.239L297.354 430.727C298.011 428.922 298.411 426.925 298.55 424.81Z" fill="white" fill-opacity="0.2"/>
</g>
<g clip-path="url(#clip15_1240_1818)">
<path d="M344.596 506.609L353.422 482.36C354.803 478.575 355.069 474.034 354.312 469.404C353.561 464.778 351.793 460.074 349.224 455.982C347.512 453.255 345.449 450.799 343.115 448.801C340.926 446.927 338.713 445.632 336.595 444.861C335.602 444.499 334.632 444.257 333.691 444.119L330.193 445.025L330.07 445.046C328.315 445.359 326.728 446.114 325.312 447.38C323.904 448.648 322.67 450.448 321.792 452.86L311.95 479.902L342.036 505.677L344.596 506.609ZM340.801 488.674L323.702 474.026L325.79 468.29L342.888 482.939L340.801 488.674Z" fill="white" fill-opacity="0.2"/>
<path d="M338.948 529.887C339.212 530.232 339.531 530.549 339.897 530.83C340.381 531.2 340.955 531.513 341.561 531.734L341.588 531.743C342.327 532.013 343.122 532.149 343.874 532.141C344.671 532.132 345.407 531.975 346.066 531.666C346.529 531.451 346.931 531.173 347.296 530.82C347.819 530.304 348.215 529.675 348.503 528.895L354.366 512.785C354.566 512.236 354.425 511.613 354.002 511.177C353.822 510.991 353.6 510.851 353.362 510.764C353.044 510.648 352.696 510.625 352.362 510.711L344.45 512.761C344.294 512.754 344.136 512.767 343.982 512.802C343.463 512.923 343.048 513.283 342.872 513.765L338.416 526.009C338.147 526.757 338.072 527.454 338.183 528.149C338.286 528.771 338.533 529.336 338.948 529.887Z" fill="white" fill-opacity="0.2"/>
<path d="M403.829 463.128C403.968 461.015 403.85 458.788 403.48 456.535C402.75 452.031 401.023 447.435 398.522 443.457C396.857 440.801 394.855 438.422 392.604 436.496C390.496 434.688 388.384 433.461 386.395 432.737C384.173 431.932 382.12 431.743 380.279 432.049L340.719 442.298C342.467 443.211 344.187 444.379 345.856 445.81C349.916 449.291 353.127 453.813 355.363 458.724C357.597 463.637 358.858 468.944 358.932 474.049C358.975 477.001 358.618 479.891 357.802 482.585L357.837 482.598L357.397 483.807L348.606 507.959L392.619 496.557L402.632 469.045C403.289 467.239 403.689 465.243 403.829 463.128Z" fill="white" fill-opacity="0.2"/>
</g>
<g clip-path="url(#clip16_1240_1818)">
<path d="M31.3335 533.127L40.1594 508.878C41.5405 505.093 41.8064 500.553 41.0495 495.923C40.2984 491.296 38.5307 486.593 35.962 482.5C34.2502 479.773 32.1868 477.317 29.8529 475.319C27.6634 473.445 25.4505 472.15 23.3325 471.379C22.3393 471.018 21.3701 470.776 20.4289 470.637L16.9306 471.544L16.8081 471.565C15.0527 471.878 13.4659 472.632 12.0498 473.899C10.6421 475.166 9.40808 476.966 8.53012 479.378L-1.31242 506.421L28.7738 532.196L31.3335 533.127ZM27.5386 515.193L10.4401 500.545L12.5281 494.808L29.6261 509.457L27.5386 515.193Z" fill="white" fill-opacity="0.2"/>
<path d="M25.685 556.406C25.9488 556.751 26.2684 557.068 26.6343 557.348C27.118 557.719 27.6921 558.032 28.2978 558.252L28.3251 558.262C29.0644 558.531 29.8592 558.668 30.6118 558.659C31.4084 558.651 32.1445 558.493 32.8029 558.185C33.2668 557.97 33.6685 557.692 34.0335 557.339C34.5561 556.823 34.9527 556.194 35.2401 555.414L41.1036 539.304C41.3037 538.754 41.1627 538.132 40.7392 537.696C40.5593 537.51 40.3376 537.369 40.0996 537.283C39.7816 537.167 39.4332 537.144 39.0996 537.23L31.1869 539.28C31.0313 539.273 30.8736 539.286 30.7189 539.321C30.2001 539.441 29.7851 539.802 29.6096 540.284L25.1533 552.527C24.8846 553.276 24.8092 553.973 24.92 554.668C25.0231 555.29 25.2705 555.855 25.685 556.406Z" fill="white" fill-opacity="0.2"/>
<path d="M90.5664 489.646C90.706 487.533 90.5881 485.307 90.2181 483.054C89.488 478.549 87.7613 473.953 85.2601 469.975C83.5951 467.32 81.5929 464.94 79.3421 463.014C77.234 461.206 75.1219 459.979 73.1325 459.255C70.9105 458.45 68.8573 458.261 67.0172 458.567L27.4569 468.817C29.2047 469.729 30.9251 470.898 32.594 472.328C36.6537 475.809 39.8648 480.332 42.1013 485.242C44.3349 490.155 45.5954 495.462 45.6701 500.567C45.7129 503.52 45.3562 506.409 44.5393 509.104L44.5747 509.116L44.1349 510.325L35.344 534.478L79.3565 523.075L89.37 495.564C90.0272 493.758 90.4267 491.761 90.5664 489.646Z" fill="white" fill-opacity="0.2"/>
</g>
<g clip-path="url(#clip17_1240_1818)">
<path d="M136.612 571.446L145.438 547.197C146.819 543.411 147.085 538.871 146.328 534.241C145.577 529.614 143.81 524.911 141.241 520.819C139.529 518.092 137.466 515.636 135.132 513.638C132.942 511.764 130.729 510.469 128.611 509.698C127.618 509.336 126.649 509.094 125.708 508.956L122.209 509.862L122.087 509.883C120.332 510.196 118.745 510.951 117.329 512.217C115.921 513.484 114.687 515.285 113.809 517.697L103.966 544.739L134.053 570.514L136.612 571.446ZM132.817 553.511L115.719 538.863L117.807 533.127L134.905 547.776L132.817 553.511Z" fill="white" fill-opacity="0.2"/>
<path d="M130.964 594.725C131.228 595.07 131.547 595.386 131.913 595.667C132.397 596.038 132.971 596.35 133.577 596.571L133.604 596.581C134.343 596.85 135.138 596.986 135.891 596.978C136.687 596.97 137.423 596.812 138.082 596.504C138.546 596.289 138.947 596.011 139.312 595.658C139.835 595.142 140.231 594.513 140.519 593.733L146.382 577.623C146.582 577.073 146.441 576.451 146.018 576.014C145.838 575.829 145.616 575.688 145.378 575.601C145.06 575.486 144.712 575.463 144.378 575.549L136.466 577.599C136.31 577.591 136.152 577.605 135.998 577.64C135.479 577.76 135.064 578.12 134.888 578.603L130.432 590.846C130.163 591.594 130.088 592.291 130.199 592.987C130.302 593.608 130.549 594.173 130.964 594.725Z" fill="white" fill-opacity="0.2"/>
<path d="M195.845 527.965C195.984 525.851 195.866 523.625 195.496 521.372C194.766 516.867 193.04 512.272 190.538 508.293C188.873 505.638 186.871 503.259 184.62 501.333C182.512 499.525 180.4 498.297 178.411 497.573C176.189 496.768 174.136 496.579 172.296 496.885L132.735 507.135C134.483 508.047 136.203 509.216 137.872 510.646C141.932 514.127 145.143 518.65 147.38 523.56C149.613 528.474 150.874 533.781 150.948 538.885C150.991 541.838 150.634 544.727 149.818 547.422L149.853 547.435L149.413 548.643L140.622 572.796L184.635 561.393L194.648 533.882C195.306 532.076 195.705 530.079 195.845 527.965Z" fill="white" fill-opacity="0.2"/>
</g>
<g clip-path="url(#clip18_1240_1818)">
<path d="M239.317 608.827L248.143 584.577C249.524 580.792 249.79 576.252 249.033 571.622C248.282 566.995 246.514 562.292 243.945 558.199C242.234 555.473 240.17 553.016 237.836 551.019C235.647 549.145 233.434 547.849 231.316 547.079C230.323 546.717 229.353 546.475 228.412 546.336L224.914 547.243L224.791 547.264C223.036 547.577 221.449 548.332 220.033 549.598C218.626 550.865 217.391 552.665 216.514 555.078L206.671 582.12L236.757 607.895L239.317 608.827ZM235.522 590.892L218.423 576.244L220.511 570.508L237.609 585.157L235.522 590.892Z" fill="white" fill-opacity="0.2"/>
<path d="M233.669 632.105C233.933 632.451 234.252 632.767 234.618 633.048C235.102 633.419 235.676 633.731 236.282 633.952L236.309 633.962C237.048 634.231 237.843 634.367 238.596 634.359C239.392 634.351 240.128 634.193 240.787 633.884C241.251 633.669 241.652 633.391 242.017 633.039C242.54 632.523 242.937 631.893 243.224 631.114L249.088 615.004C249.288 614.454 249.147 613.832 248.723 613.395C248.543 613.21 248.321 613.069 248.083 612.982C247.766 612.867 247.417 612.844 247.084 612.93L239.171 614.98C239.015 614.972 238.857 614.986 238.703 615.021C238.184 615.141 237.769 615.501 237.594 615.983L233.137 628.227C232.868 628.975 232.793 629.672 232.904 630.368C233.007 630.989 233.254 631.554 233.669 632.105Z" fill="white" fill-opacity="0.2"/>
<path d="M298.55 565.346C298.689 563.233 298.571 561.007 298.201 558.753C297.471 554.249 295.745 549.653 293.244 545.675C291.579 543.02 289.576 540.64 287.326 538.714C285.217 536.906 283.105 535.679 281.116 534.955C278.894 534.15 276.841 533.961 275.001 534.267L235.44 544.517C237.188 545.429 238.908 546.598 240.577 548.028C244.637 551.509 247.848 556.032 250.085 560.942C252.318 565.855 253.579 571.162 253.653 576.267C253.696 579.22 253.34 582.109 252.523 584.804L252.558 584.816L252.118 586.025L243.327 610.178L287.34 598.775L297.353 571.264C298.011 569.458 298.41 567.461 298.55 565.346Z" fill="white" fill-opacity="0.2"/>
</g>
<g clip-path="url(#clip19_1240_1818)">
<path d="M344.596 647.146L353.422 622.897C354.803 619.112 355.069 614.572 354.312 609.941C353.561 605.315 351.793 600.611 349.224 596.519C347.512 593.792 345.449 591.336 343.115 589.338C340.926 587.464 338.713 586.169 336.595 585.398C335.602 585.036 334.632 584.795 333.691 584.656L330.193 585.562L330.07 585.583C328.315 585.896 326.728 586.651 325.312 587.917C323.904 589.185 322.67 590.985 321.792 593.397L311.95 620.439L342.036 646.214L344.596 647.146ZM340.801 629.211L323.702 614.564L325.79 608.827L342.888 623.476L340.801 629.211Z" fill="white" fill-opacity="0.2"/>
<path d="M338.947 670.424C339.211 670.769 339.531 671.086 339.896 671.367C340.38 671.738 340.954 672.05 341.56 672.271L341.587 672.281C342.327 672.55 343.121 672.686 343.874 672.678C344.671 672.669 345.407 672.512 346.065 672.203C346.529 671.988 346.931 671.71 347.296 671.357C347.818 670.842 348.215 670.212 348.502 669.433L354.366 653.323C354.566 652.773 354.425 652.15 354.001 651.714C353.822 651.528 353.6 651.388 353.362 651.301C353.044 651.185 352.695 651.163 352.362 651.248L344.449 653.298C344.293 653.291 344.136 653.305 343.981 653.339C343.462 653.46 343.047 653.82 342.872 654.302L338.416 666.546C338.147 667.294 338.071 667.991 338.182 668.687C338.285 669.308 338.533 669.873 338.947 670.424Z" fill="white" fill-opacity="0.2"/>
<path d="M403.829 603.665C403.968 601.551 403.85 599.325 403.48 597.072C402.75 592.568 401.023 587.972 398.522 583.993C396.857 581.338 394.855 578.959 392.604 577.033C390.496 575.225 388.384 573.997 386.395 573.273C384.173 572.468 382.12 572.28 380.279 572.585L340.719 582.835C342.467 583.748 344.187 584.916 345.856 586.346C349.916 589.828 353.127 594.35 355.363 599.261C357.597 604.174 358.858 609.481 358.932 614.585C358.975 617.538 358.618 620.427 357.802 623.122L357.837 623.135L357.397 624.343L348.606 648.496L392.619 637.094L402.632 609.582C403.289 607.776 403.689 605.779 403.829 603.665Z" fill="white" fill-opacity="0.2"/>
</g>
<g clip-path="url(#clip20_1240_1818)">
<path d="M31.3335 673.663L40.1594 649.414C41.5405 645.629 41.8064 641.089 41.0495 636.459C40.2984 631.832 38.5307 627.129 35.962 623.036C34.2502 620.309 32.1868 617.853 29.8529 615.856C27.6634 613.982 25.4505 612.686 23.3325 611.915C22.3393 611.554 21.3701 611.312 20.4289 611.173L16.9306 612.08L16.8081 612.101C15.0527 612.414 13.4659 613.169 12.0498 614.435C10.6421 615.702 9.40808 617.502 8.53012 619.915L-1.31242 646.957L28.7738 672.732L31.3335 673.663ZM27.5386 655.729L10.4401 641.081L12.5281 635.344L29.6261 649.993L27.5386 655.729Z" fill="white" fill-opacity="0.2"/>
<path d="M25.685 696.942C25.9488 697.287 26.2684 697.604 26.6343 697.884C27.118 698.255 27.6921 698.568 28.2978 698.788L28.3251 698.798C29.0644 699.067 29.8592 699.204 30.6118 699.196C31.4084 699.187 32.1445 699.029 32.8029 698.721C33.2668 698.506 33.6685 698.228 34.0335 697.875C34.5561 697.359 34.9527 696.73 35.2401 695.95L41.1036 679.84C41.3037 679.291 41.1627 678.668 40.7392 678.232C40.5593 678.046 40.3376 677.905 40.0996 677.819C39.7816 677.703 39.4332 677.68 39.0996 677.766L31.1869 679.816C31.0313 679.809 30.8736 679.822 30.7189 679.857C30.2001 679.977 29.7851 680.338 29.6096 680.82L25.1533 693.063C24.8846 693.812 24.8092 694.509 24.92 695.204C25.0231 695.826 25.2705 696.391 25.685 696.942Z" fill="white" fill-opacity="0.2"/>
<path d="M90.5664 630.182C90.706 628.069 90.5881 625.842 90.2181 623.589C89.488 619.085 87.7613 614.489 85.2601 610.511C83.5951 607.856 81.5929 605.476 79.3421 603.55C77.234 601.742 75.1219 600.515 73.1325 599.791C70.9105 598.986 68.8573 598.797 67.0172 599.103L27.4569 609.353C29.2047 610.265 30.9251 611.434 32.594 612.864C36.6537 616.345 39.8648 620.868 42.1013 625.778C44.3349 630.691 45.5954 635.998 45.6701 641.103C45.7129 644.056 45.3562 646.945 44.5393 649.639L44.5747 649.652L44.1349 650.861L35.344 675.014L79.3565 663.611L89.37 636.099C90.0272 634.294 90.4267 632.297 90.5664 630.182Z" fill="white" fill-opacity="0.2"/>
</g>
<g clip-path="url(#clip21_1240_1818)">
<path d="M136.612 711.981L145.438 687.732C146.819 683.947 147.085 679.407 146.328 674.777C145.577 670.15 143.81 665.447 141.241 661.354C139.529 658.627 137.466 656.171 135.132 654.173C132.942 652.299 130.729 651.004 128.611 650.233C127.618 649.872 126.649 649.63 125.708 649.491L122.209 650.398L122.087 650.419C120.332 650.732 118.745 651.486 117.329 652.753C115.921 654.02 114.687 655.82 113.809 658.232L103.966 685.275L134.053 711.05L136.612 711.981ZM132.817 694.047L115.719 679.399L117.807 673.662L134.905 688.311L132.817 694.047Z" fill="white" fill-opacity="0.2"/>
<path d="M130.964 735.26C131.228 735.605 131.547 735.922 131.913 736.203C132.397 736.573 132.971 736.886 133.577 737.107L133.604 737.116C134.343 737.386 135.138 737.522 135.891 737.514C136.687 737.505 137.423 737.348 138.082 737.039C138.546 736.824 138.947 736.546 139.312 736.193C139.835 735.677 140.231 735.048 140.519 734.268L146.382 718.159C146.582 717.609 146.441 716.986 146.018 716.55C145.838 716.364 145.616 716.224 145.378 716.137C145.06 716.021 144.712 715.998 144.378 716.084L136.466 718.134C136.31 718.127 136.152 718.141 135.998 718.175C135.479 718.296 135.064 718.656 134.888 719.138L130.432 731.382C130.163 732.13 130.088 732.827 130.199 733.523C130.302 734.144 130.549 734.709 130.964 735.26Z" fill="white" fill-opacity="0.2"/>
<path d="M195.845 668.501C195.984 666.387 195.866 664.161 195.496 661.908C194.766 657.404 193.04 652.808 190.538 648.829C188.873 646.174 186.871 643.795 184.62 641.869C182.512 640.061 180.4 638.833 178.411 638.109C176.189 637.304 174.136 637.116 172.296 637.421L132.735 647.671C134.483 648.584 136.203 649.752 137.872 651.182C141.932 654.663 145.143 659.186 147.38 664.096C149.613 669.01 150.874 674.317 150.948 679.421C150.991 682.374 150.634 685.263 149.818 687.958L149.853 687.971L149.413 689.179L140.622 713.332L184.635 701.93L194.648 674.418C195.306 672.612 195.705 670.615 195.845 668.501Z" fill="white" fill-opacity="0.2"/>
</g>
<g clip-path="url(#clip22_1240_1818)">
<path d="M239.318 749.364L248.144 725.114C249.525 721.329 249.791 716.789 249.034 712.159C248.283 707.532 246.515 702.829 243.946 698.736C242.235 696.01 240.171 693.554 237.837 691.556C235.648 689.682 233.435 688.387 231.317 687.616C230.324 687.254 229.354 687.012 228.413 686.874L224.915 687.78L224.792 687.801C223.037 688.114 221.45 688.869 220.034 690.135C218.627 691.402 217.392 693.203 216.514 695.615L206.672 722.657L236.758 748.432L239.318 749.364ZM235.523 731.429L218.424 716.781L220.512 711.045L237.61 725.694L235.523 731.429Z" fill="white" fill-opacity="0.2"/>
<path d="M233.669 772.643C233.933 772.988 234.253 773.304 234.619 773.585C235.102 773.956 235.676 774.268 236.282 774.489L236.309 774.499C237.049 774.768 237.844 774.904 238.596 774.896C239.393 774.888 240.129 774.73 240.787 774.422C241.251 774.206 241.653 773.929 242.018 773.576C242.54 773.06 242.937 772.431 243.224 771.651L249.088 755.541C249.288 754.991 249.147 754.369 248.724 753.932C248.544 753.747 248.322 753.606 248.084 753.519C247.766 753.404 247.418 753.381 247.084 753.467L239.171 755.517C239.016 755.509 238.858 755.523 238.703 755.558C238.184 755.678 237.769 756.038 237.594 756.52L233.138 768.764C232.869 769.512 232.794 770.209 232.904 770.905C233.007 771.526 233.255 772.091 233.669 772.643Z" fill="white" fill-opacity="0.2"/>
<path d="M298.55 705.883C298.69 703.77 298.572 701.543 298.202 699.29C297.472 694.786 295.745 690.19 293.244 686.211C291.579 683.556 289.577 681.177 287.326 679.251C285.218 677.443 283.106 676.216 281.116 675.492C278.894 674.686 276.841 674.498 275.001 674.803L235.441 685.053C237.189 685.966 238.909 687.134 240.578 688.564C244.638 692.046 247.849 696.568 250.085 701.479C252.319 706.392 253.579 711.699 253.654 716.804C253.697 719.756 253.34 722.646 252.523 725.34L252.559 725.353L252.119 726.561L243.328 750.714L287.34 739.312L297.354 711.8C298.011 709.994 298.411 707.998 298.55 705.883Z" fill="white" fill-opacity="0.2"/>
</g>
<g clip-path="url(#clip23_1240_1818)">
<path d="M344.596 787.682L353.422 763.433C354.803 759.648 355.069 755.108 354.312 750.477C353.561 745.851 351.793 741.147 349.224 737.055C347.512 734.328 345.449 731.872 343.115 729.874C340.926 728 338.713 726.705 336.595 725.934C335.602 725.572 334.632 725.331 333.691 725.192L330.193 726.099L330.07 726.12C328.315 726.433 326.728 727.187 325.312 728.453C323.904 729.721 322.67 731.521 321.792 733.933L311.95 760.975L342.036 786.75L344.596 787.682ZM340.801 769.747L323.702 755.1L325.79 749.363L342.888 764.012L340.801 769.747Z" fill="white" fill-opacity="0.2"/>
<path d="M338.948 810.96C339.212 811.306 339.531 811.622 339.897 811.903C340.381 812.274 340.955 812.586 341.561 812.807L341.588 812.817C342.327 813.086 343.122 813.222 343.874 813.214C344.671 813.206 345.407 813.048 346.066 812.739C346.529 812.524 346.931 812.246 347.296 811.894C347.819 811.378 348.215 810.748 348.503 809.969L354.366 793.859C354.566 793.309 354.425 792.686 354.002 792.25C353.822 792.065 353.6 791.924 353.362 791.837C353.044 791.722 352.696 791.699 352.362 791.785L344.45 793.835C344.294 793.827 344.136 793.841 343.982 793.875C343.463 793.996 343.048 794.356 342.872 794.838L338.416 807.082C338.147 807.83 338.072 808.527 338.183 809.223C338.286 809.844 338.533 810.409 338.948 810.96Z" fill="white" fill-opacity="0.2"/>
<path d="M403.829 744.201C403.968 742.088 403.85 739.862 403.48 737.608C402.75 733.104 401.023 728.508 398.522 724.53C396.857 721.875 394.855 719.495 392.604 717.569C390.496 715.761 388.384 714.534 386.395 713.81C384.173 713.005 382.12 712.816 380.279 713.122L340.719 723.372C342.467 724.284 344.187 725.453 345.856 726.883C349.916 730.364 353.127 734.887 355.363 739.797C357.597 744.71 358.858 750.017 358.932 755.122C358.975 758.075 358.618 760.964 357.802 763.659L357.837 763.671L357.397 764.88L348.606 789.033L392.619 777.63L402.632 750.119C403.289 748.313 403.689 746.316 403.829 744.201Z" fill="white" fill-opacity="0.2"/>
</g>
<g clip-path="url(#clip24_1240_1818)">
<path d="M31.3335 814.2L40.1594 789.951C41.5405 786.166 41.8064 781.626 41.0495 776.995C40.2984 772.369 38.5307 767.665 35.962 763.573C34.2502 760.846 32.1868 758.39 29.8529 756.392C27.6634 754.518 25.4505 753.223 23.3325 752.452C22.3393 752.091 21.3701 751.849 20.4289 751.71L16.9306 752.617L16.8081 752.638C15.0527 752.951 13.4659 753.705 12.0498 754.971C10.6421 756.239 9.40808 758.039 8.53012 760.451L-1.31242 787.493L28.7738 813.268L31.3335 814.2ZM27.5386 796.265L10.4401 781.618L12.5281 775.881L29.6261 790.53L27.5386 796.265Z" fill="white" fill-opacity="0.2"/>
<path d="M25.685 837.479C25.9488 837.824 26.2684 838.14 26.6343 838.421C27.118 838.792 27.6921 839.104 28.2978 839.325L28.3251 839.335C29.0644 839.604 29.8592 839.74 30.6118 839.732C31.4084 839.724 32.1445 839.566 32.8029 839.257C33.2668 839.042 33.6685 838.764 34.0335 838.412C34.5561 837.896 34.9527 837.266 35.2401 836.487L41.1036 820.377C41.3037 819.827 41.1627 819.205 40.7392 818.768C40.5593 818.583 40.3376 818.442 40.0996 818.355C39.7816 818.24 39.4332 818.217 39.0996 818.303L31.1869 820.353C31.0313 820.345 30.8736 820.359 30.7189 820.394C30.2001 820.514 29.7851 820.874 29.6096 821.356L25.1533 833.6C24.8846 834.348 24.8092 835.045 24.92 835.741C25.0231 836.362 25.2705 836.927 25.685 837.479Z" fill="white" fill-opacity="0.2"/>
<path d="M90.5664 770.719C90.706 768.606 90.5881 766.379 90.2181 764.126C89.488 759.622 87.7613 755.026 85.2601 751.047C83.5951 748.392 81.5929 746.013 79.3421 744.087C77.234 742.279 75.1219 741.052 73.1325 740.327C70.9105 739.522 68.8573 739.334 67.0172 739.639L27.4569 749.889C29.2047 750.802 30.9251 751.97 32.594 753.4C36.6537 756.882 39.8648 761.404 42.1013 766.315C44.3349 771.228 45.5954 776.535 45.6701 781.639C45.7129 784.592 45.3562 787.482 44.5393 790.176L44.5747 790.189L44.1349 791.397L35.344 815.55L79.3565 804.148L89.37 776.636C90.0272 774.83 90.4267 772.834 90.5664 770.719Z" fill="white" fill-opacity="0.2"/>
</g>
<g clip-path="url(#clip25_1240_1818)">
<path d="M136.612 852.518L145.438 828.269C146.819 824.484 147.085 819.944 146.328 815.313C145.577 810.687 143.81 805.983 141.241 801.891C139.529 799.164 137.466 796.708 135.132 794.71C132.942 792.836 130.729 791.541 128.611 790.77C127.618 790.408 126.649 790.167 125.708 790.028L122.209 790.935L122.087 790.956C120.332 791.268 118.745 792.023 117.329 793.289C115.921 794.557 114.687 796.357 113.809 798.769L103.966 825.811L134.053 851.586L136.612 852.518ZM132.817 834.583L115.719 819.936L117.807 814.199L134.905 828.848L132.817 834.583Z" fill="white" fill-opacity="0.2"/>
<path d="M195.845 809.037C195.984 806.924 195.866 804.697 195.496 802.444C194.766 797.94 193.04 793.344 190.538 789.366C188.873 786.711 186.871 784.331 184.62 782.405C182.512 780.597 180.4 779.37 178.411 778.646C176.189 777.841 174.136 777.652 172.296 777.958L132.735 788.208C134.483 789.12 136.203 790.289 137.872 791.719C141.932 795.2 145.143 799.723 147.38 804.633C149.613 809.546 150.874 814.853 150.948 819.958C150.991 822.911 150.634 825.8 149.818 828.494L149.853 828.507L149.413 829.716L140.622 853.869L184.635 842.466L194.648 814.954C195.306 813.149 195.705 811.152 195.845 809.037Z" fill="white" fill-opacity="0.2"/>
</g>
<g clip-path="url(#clip26_1240_1818)">
<path d="M239.318 889.9L248.144 865.651C249.525 861.866 249.791 857.325 249.034 852.695C248.283 848.069 246.515 843.365 243.946 839.273C242.235 836.546 240.171 834.09 237.837 832.092C235.648 830.218 233.435 828.923 231.317 828.152C230.324 827.79 229.354 827.548 228.413 827.41L224.915 828.316L224.792 828.337C223.037 828.65 221.45 829.405 220.034 830.671C218.627 831.939 217.392 833.739 216.514 836.151L206.672 863.193L236.758 888.968L239.318 889.9ZM235.523 871.965L218.424 857.317L220.512 851.581L237.61 866.23L235.523 871.965Z" fill="white" fill-opacity="0.2"/>
<path d="M298.55 846.42C298.69 844.306 298.572 842.08 298.202 839.827C297.472 835.323 295.745 830.727 293.244 826.748C291.579 824.093 289.577 821.714 287.326 819.788C285.218 817.98 283.106 816.752 281.116 816.028C278.894 815.223 276.841 815.034 275.001 815.34L235.441 825.59C237.189 826.503 238.909 827.671 240.578 829.101C244.638 832.582 247.849 837.105 250.085 842.015C252.319 846.929 253.579 852.236 253.654 857.34C253.697 860.293 253.34 863.182 252.523 865.877L252.559 865.89L252.119 867.098L243.328 891.251L287.34 879.849L297.354 852.337C298.011 850.531 298.411 848.534 298.55 846.42Z" fill="white" fill-opacity="0.2"/>
</g>
<g clip-path="url(#clip27_1240_1818)">
<path d="M403.829 884.737C403.968 882.624 403.85 880.398 403.48 878.145C402.75 873.64 401.023 869.045 398.522 865.066C396.857 862.411 394.855 860.032 392.604 858.106C390.496 856.298 388.384 855.07 386.395 854.346C384.173 853.541 382.12 853.352 380.279 853.658L340.719 863.908C342.467 864.82 344.187 865.989 345.856 867.419C349.916 870.9 353.127 875.423 355.363 880.333C357.597 885.246 358.858 890.553 358.932 895.658C358.975 898.611 358.618 901.5 357.802 904.195L357.837 904.208L357.397 905.416L348.606 929.569L392.619 918.166L402.632 890.655C403.289 888.849 403.689 886.852 403.829 884.737Z" fill="white" fill-opacity="0.2"/>
</g>
</g>
<defs>
<clipPath id="clip0_1240_1818">
<rect width="393" height="852" fill="white"/>
</clipPath>
<clipPath id="clip1_1240_1818">
<rect width="116.827" height="116.827" fill="white" transform="translate(111.235 -89.022) rotate(20)"/>
</clipPath>
<clipPath id="clip2_1240_1818">
<rect width="116.827" height="116.827" fill="white" transform="translate(213.94 -51.6406) rotate(20)"/>
</clipPath>
<clipPath id="clip3_1240_1818">
<rect width="116.827" height="116.827" fill="white" transform="translate(319.219 -13.3223) rotate(20)"/>
</clipPath>
<clipPath id="clip4_1240_1818">
<rect width="116.827" height="116.827" fill="white" transform="translate(5.95703 13.1963) rotate(20)"/>
</clipPath>
<clipPath id="clip5_1240_1818">
<rect width="116.827" height="116.827" fill="white" transform="translate(111.235 51.5142) rotate(20)"/>
</clipPath>
<clipPath id="clip6_1240_1818">
<rect width="116.827" height="116.827" fill="white" transform="translate(213.94 88.896) rotate(20)"/>
</clipPath>
<clipPath id="clip7_1240_1818">
<rect width="116.827" height="116.827" fill="white" transform="translate(319.219 127.214) rotate(20)"/>
</clipPath>
<clipPath id="clip8_1240_1818">
<rect width="116.827" height="116.827" fill="white" transform="translate(5.95703 153.732) rotate(20)"/>
</clipPath>
<clipPath id="clip9_1240_1818">
<rect width="116.827" height="116.827" fill="white" transform="translate(111.235 192.051) rotate(20)"/>
</clipPath>
<clipPath id="clip10_1240_1818">
<rect width="116.827" height="116.827" fill="white" transform="translate(213.94 229.432) rotate(20)"/>
</clipPath>
<clipPath id="clip11_1240_1818">
<rect width="116.827" height="116.827" fill="white" transform="translate(319.219 267.75) rotate(20)"/>
</clipPath>
<clipPath id="clip12_1240_1818">
<rect width="116.827" height="116.827" fill="white" transform="translate(5.95703 294.269) rotate(20)"/>
</clipPath>
<clipPath id="clip13_1240_1818">
<rect width="116.827" height="116.827" fill="white" transform="translate(111.235 332.587) rotate(20)"/>
</clipPath>
<clipPath id="clip14_1240_1818">
<rect width="116.827" height="116.827" fill="white" transform="translate(213.94 369.969) rotate(20)"/>
</clipPath>
<clipPath id="clip15_1240_1818">
<rect width="116.827" height="116.827" fill="white" transform="translate(319.219 408.286) rotate(20)"/>
</clipPath>
<clipPath id="clip16_1240_1818">
<rect width="116.827" height="116.827" fill="white" transform="translate(5.95703 434.805) rotate(20)"/>
</clipPath>
<clipPath id="clip17_1240_1818">
<rect width="116.827" height="116.827" fill="white" transform="translate(111.235 473.124) rotate(20)"/>
</clipPath>
<clipPath id="clip18_1240_1818">
<rect width="116.827" height="116.827" fill="white" transform="translate(213.94 510.505) rotate(20)"/>
</clipPath>
<clipPath id="clip19_1240_1818">
<rect width="116.827" height="116.827" fill="white" transform="translate(319.219 548.823) rotate(20)"/>
</clipPath>
<clipPath id="clip20_1240_1818">
<rect width="116.827" height="116.827" fill="white" transform="translate(5.95703 575.341) rotate(20)"/>
</clipPath>
<clipPath id="clip21_1240_1818">
<rect width="116.827" height="116.827" fill="white" transform="translate(111.235 613.66) rotate(20)"/>
</clipPath>
<clipPath id="clip22_1240_1818">
<rect width="116.827" height="116.827" fill="white" transform="translate(213.94 651.041) rotate(20)"/>
</clipPath>
<clipPath id="clip23_1240_1818">
<rect width="116.827" height="116.827" fill="white" transform="translate(319.219 689.359) rotate(20)"/>
</clipPath>
<clipPath id="clip24_1240_1818">
<rect width="116.827" height="116.827" fill="white" transform="translate(5.95703 715.878) rotate(20)"/>
</clipPath>
<clipPath id="clip25_1240_1818">
<rect width="116.827" height="116.827" fill="white" transform="translate(111.235 754.196) rotate(20)"/>
</clipPath>
<clipPath id="clip26_1240_1818">
<rect width="116.827" height="116.827" fill="white" transform="translate(213.94 791.578) rotate(20)"/>
</clipPath>
<clipPath id="clip27_1240_1818">
<rect width="116.827" height="116.827" fill="white" transform="translate(319.219 829.896) rotate(20)"/>
</clipPath>
</defs>
</svg>
