<svg width="90" height="37" viewBox="0 0 90 37" fill="none" xmlns="http://www.w3.org/2000/svg">
<rect width="90" height="28" rx="4" fill="white"/>
<path d="M17.19 17.51H12.63C11.94 17.51 11.7 17.52 11.4 17.55V16.26C11.77 16.32 11.95 16.33 12.65 16.33H17.2V11.97H12.82C12.11 11.97 11.9 11.98 11.54 12.02V10.72C11.91 10.78 12.1 10.79 12.83 10.79H17.64C18.16 10.79 18.16 10.79 18.51 10.77C18.48 11.04 18.48 11.14 18.48 11.6V17.09C18.48 17.59 18.49 17.87 18.53 18.12H17.19V17.51ZM22.94 11.21V13.23C24.45 12.95 26.66 12.06 27.31 11.45L28.11 12.58C28 12.62 27.98 12.63 27.9 12.67L27.64 12.8C26.16 13.56 24.61 14.08 22.94 14.39V15.71C22.93 15.77 22.93 15.83 22.93 15.87C22.93 16.43 22.97 16.65 23.11 16.79C23.28 16.96 23.85 17.05 24.82 17.05C25.49 17.05 26.41 16.99 27.14 16.89C27.62 16.83 27.84 16.78 28.28 16.65L28.34 17.98C28.13 17.98 28.08 17.99 27.02 18.09C26.43 18.15 25.17 18.21 24.56 18.21C23.3 18.21 22.61 18.08 22.22 17.78C21.94 17.57 21.79 17.25 21.73 16.76C21.71 16.59 21.7 16.42 21.7 15.84L21.69 11.2C21.69 10.69 21.69 10.53 21.65 10.28H22.99C22.95 10.52 22.94 10.7 22.94 11.21ZM28.7 9.44C29.34 9.44 29.86 9.96 29.86 10.59C29.86 11.23 29.34 11.75 28.7 11.75C28.07 11.75 27.55 11.23 27.55 10.59C27.55 9.96 28.07 9.44 28.7 9.44ZM28.7 9.94C28.34 9.94 28.05 10.23 28.05 10.59C28.05 10.95 28.34 11.25 28.7 11.25C29.07 11.25 29.36 10.95 29.36 10.59C29.36 10.23 29.07 9.94 28.7 9.94ZM29.9092 14.86V13.47C30.3492 13.53 30.5392 13.54 31.5292 13.54H36.8592C37.8492 13.54 38.0392 13.53 38.4792 13.47V14.86C38.0792 14.81 37.9692 14.81 36.8492 14.81H31.5392C30.4192 14.81 30.3092 14.81 29.9092 14.86ZM41.2392 10.01L42.6392 10.03C42.5792 10.32 42.5592 10.61 42.5192 11.38C42.4792 12.31 42.4192 14.34 42.4192 15.05C42.4192 16 42.4792 16.36 42.6792 16.66C42.9092 16.99 43.3892 17.18 44.0192 17.18C45.0992 17.18 45.9692 16.57 46.4392 15.47C46.6592 14.95 46.7892 14.48 46.8992 13.79C47.4392 14.23 47.6192 14.34 48.1092 14.56C47.7092 15.91 47.4092 16.56 46.9192 17.11C46.1692 17.96 45.1792 18.38 43.9192 18.38C43.2292 18.38 42.5892 18.22 42.1692 17.94C41.4792 17.48 41.1892 16.71 41.1892 15.37C41.1892 14.85 41.2092 13.85 41.2692 11.34C41.2792 11.04 41.2792 10.83 41.2792 10.69C41.2792 10.41 41.2692 10.27 41.2392 10.01ZM58.1892 16.94L57.5092 18.11C57.0692 17.62 56.3792 17.11 55.6592 16.74C55.4392 16.62 55.3592 16.59 55.1192 16.49C55.1192 16.54 55.1192 16.58 55.1192 16.6C55.1192 17.23 54.9392 17.66 54.5592 17.95C54.1792 18.24 53.6392 18.38 52.9092 18.38C51.4492 18.38 50.6092 17.81 50.6092 16.82C50.6092 15.73 51.5992 15.09 53.2792 15.09C53.5192 15.09 53.6892 15.1 53.9492 15.13C53.9492 15.01 53.9492 15.01 53.9392 14.89C53.9392 14.84 53.9392 14.77 53.9392 14.67C53.9292 14.53 53.9292 14.53 53.9192 14.13C53.4392 14.14 53.1292 14.15 52.9192 14.15C52.3092 14.15 51.9392 14.14 51.1092 14.08C50.9792 14.07 50.8792 14.07 50.7292 14.07L50.7492 12.99C51.1792 13.09 52.1292 13.16 53.0792 13.16C53.2792 13.16 53.6192 13.15 53.8992 13.14C53.8992 13.05 53.8992 12.71 53.8892 12.14C53.5692 12.15 53.4092 12.15 53.2592 12.15C52.7692 12.15 51.4792 12.1 50.8092 12.05C50.6992 12.04 50.6192 12.04 50.5892 12.04C50.5492 12.04 50.4992 12.04 50.4292 12.04L50.4392 10.93C50.9492 11.06 51.9792 11.14 53.1292 11.14C53.2892 11.14 53.6292 11.13 53.8792 11.12C53.8692 10.12 53.8692 10.11 53.8292 9.86H55.0992C55.0492 10.13 55.0392 10.26 55.0292 11.08C56.3892 11 57.2592 10.89 57.9092 10.7L57.9592 11.81C57.7392 11.82 57.7392 11.82 57.1692 11.9C56.2892 12.02 55.8992 12.05 55.0192 12.1C55.0292 12.35 55.0292 12.47 55.0392 13.09C55.5392 13.06 55.5392 13.06 56.4592 12.96C57.0892 12.88 57.2492 12.86 57.6992 12.74L57.7292 13.84C57.5592 13.85 57.3092 13.88 57.0792 13.91C56.9292 13.93 56.4792 13.98 55.7292 14.05C55.5892 14.06 55.4392 14.07 55.0492 14.09C55.0792 15.06 55.0792 15.06 55.0892 15.3C55.9692 15.56 56.7492 15.95 57.8292 16.71C57.9992 16.82 58.0492 16.86 58.1892 16.94ZM53.9692 16.17C53.6392 16.1 53.4392 16.08 53.1392 16.08C52.3292 16.08 51.8392 16.34 51.8392 16.77C51.8392 17.14 52.2692 17.37 52.9792 17.37C53.3992 17.37 53.7092 17.25 53.8492 17.05C53.9292 16.92 53.9692 16.71 53.9692 16.41C53.9692 16.37 53.9692 16.17 53.9692 16.17ZM61.2392 10.01L62.6392 10.03C62.5792 10.32 62.5592 10.61 62.5192 11.38C62.4792 12.31 62.4192 14.34 62.4192 15.05C62.4192 16 62.4792 16.36 62.6792 16.66C62.9092 16.99 63.3892 17.18 64.0192 17.18C65.0992 17.18 65.9692 16.57 66.4392 15.47C66.6592 14.95 66.7892 14.48 66.8992 13.79C67.4392 14.23 67.6192 14.34 68.1092 14.56C67.7092 15.91 67.4092 16.56 66.9192 17.11C66.1692 17.96 65.1792 18.38 63.9192 18.38C63.2292 18.38 62.5892 18.22 62.1692 17.94C61.4792 17.48 61.1892 16.71 61.1892 15.37C61.1892 14.85 61.2092 13.85 61.2692 11.34C61.2792 11.04 61.2792 10.83 61.2792 10.69C61.2792 10.41 61.2692 10.27 61.2392 10.01ZM70.1292 12.52L70.1492 11.36C70.5092 11.42 70.9092 11.45 71.4892 11.45C71.6092 11.45 71.7192 11.45 71.9492 11.44C72.0392 10.96 72.1392 10.19 72.1392 9.91C72.1392 9.87 72.1392 9.81 72.1292 9.73L73.4492 9.85C73.3792 10.08 73.3792 10.08 73.2592 10.81C73.2092 11.09 73.1992 11.15 73.1592 11.38C73.8992 11.31 74.3692 11.23 74.8692 11.08L74.9192 12.23C74.8392 12.24 74.8392 12.24 74.5992 12.28C74.0892 12.38 73.2892 12.48 72.9592 12.49C72.8492 13.11 72.5992 14.17 72.3392 15.08C72.0492 16.12 71.8792 16.62 71.2192 18.39L69.9592 17.9C70.6492 16.63 71.4192 14.3 71.7492 12.52C71.6792 12.53 71.6392 12.53 71.6192 12.53H71.0392C70.9892 12.53 70.8892 12.53 70.7192 12.52C70.5392 12.51 70.3992 12.51 70.3192 12.51C70.2692 12.51 70.2192 12.51 70.1292 12.52ZM78.0592 12.74L78.0792 13.93C77.5992 13.88 77.3192 13.86 76.8192 13.86C75.8292 13.86 75.1692 13.93 74.1792 14.15L74.0892 13.05C75.5092 12.78 75.9892 12.73 77.0692 12.73C77.3392 12.73 77.4292 12.73 78.0592 12.74ZM74.1192 14.84L75.1092 15.24C74.7092 15.74 74.5892 15.99 74.5892 16.34C74.5892 16.85 75.0892 17.11 76.0892 17.11C76.8192 17.11 77.7792 16.95 78.3592 16.74L78.4492 17.97C78.2692 17.99 78.1892 18 77.9592 18.04C77.1292 18.16 76.6892 18.2 76.0992 18.2C75.2092 18.2 74.5692 18.07 74.0892 17.8C73.6592 17.55 73.3792 17.07 73.3792 16.57C73.3792 16.04 73.5692 15.59 74.1192 14.84Z" fill="#CC0000"/>
<path d="M57 37L51.8038 28L62.1962 28L57 37Z" fill="white"/>
</svg>
