<svg width="25" height="45" viewBox="0 0 25 45" fill="none" xmlns="http://www.w3.org/2000/svg">
<path d="M9.375 3.75C10.3906 3.75 11.25 4.60938 11.25 5.625V9.375C11.25 10.4297 10.3906 11.25 9.375 11.25H5.625C4.57031 11.25 3.75 10.4297 3.75 9.375V5.625C3.75 4.60938 4.57031 3.75 5.625 3.75H9.375ZM8.75 6.25H6.25V8.75H8.75V6.25ZM9.375 13.75C10.3906 13.75 11.25 14.6094 11.25 15.625V19.375C11.25 20.4297 10.3906 21.25 9.375 21.25H5.625C4.57031 21.25 3.75 20.4297 3.75 19.375V15.625C3.75 14.6094 4.57031 13.75 5.625 13.75H9.375ZM8.75 16.25H6.25V18.75H8.75V16.25ZM13.75 5.625C13.75 4.60938 14.5703 3.75 15.625 3.75H19.375C20.3906 3.75 21.25 4.60938 21.25 5.625V9.375C21.25 10.4297 20.3906 11.25 19.375 11.25H15.625C14.5703 11.25 13.75 10.4297 13.75 9.375V5.625ZM16.25 8.75H18.75V6.25H16.25V8.75ZM17.5 20H18.75V21.25H17.5V20ZM21.25 21.25H20V20H21.25V21.25ZM20 13.75H21.25V18.75H17.5V17.5H16.25V21.25H13.75V13.75H17.5V15H20V13.75Z" fill="#2E2E2E"/>
<path d="M12.336 35.976L11.364 36.996C11.124 36.684 11.016 36.576 10.224 35.784C9.528 36.18 8.892 36.348 8.016 36.348C6.744 36.348 5.676 35.94 4.896 35.148C4.008 34.248 3.54 32.94 3.54 31.404C3.54 28.38 5.328 26.4 8.052 26.4C10.764 26.4 12.504 28.332 12.504 31.344C12.504 32.172 12.372 32.892 12.12 33.564C11.904 34.104 11.712 34.404 11.22 34.98L11.556 35.304C11.832 35.568 12.06 35.76 12.336 35.976ZM8.16 33.876L9.144 32.916C9.348 33.168 9.588 33.408 10.08 33.888C10.608 33.24 10.824 32.52 10.824 31.32C10.824 30.132 10.488 29.148 9.864 28.524C9.384 28.044 8.748 27.792 8.016 27.792C7.284 27.792 6.648 28.044 6.156 28.524C5.532 29.148 5.196 30.144 5.196 31.38C5.196 33.552 6.312 34.956 8.04 34.956C8.448 34.956 8.784 34.884 9.12 34.716C8.748 34.356 8.508 34.14 8.16 33.876ZM21.9827 36.144H20.0027C19.9787 35.856 19.7747 35.244 19.3787 34.224C18.7307 32.568 18.3107 32.124 17.3867 32.124H15.5987V34.572C15.5987 35.292 15.6227 35.676 15.6947 36.144H13.9067C13.9787 35.64 14.0027 35.316 14.0027 34.584V28.116C14.0027 27.48 13.9787 27.12 13.9067 26.556C14.4107 26.58 14.7827 26.592 15.4427 26.592H18.3227C20.1467 26.592 21.1907 27.504 21.1907 29.088C21.1907 29.856 20.9867 30.456 20.5787 30.876C20.2427 31.224 19.9307 31.38 19.2467 31.572C20.0027 31.812 20.2307 32.148 21.4187 34.956C21.5147 35.172 21.8147 35.82 21.9827 36.144ZM15.5987 30.756H18.0107C18.4547 30.756 18.8747 30.6 19.1507 30.324C19.4027 30.072 19.5347 29.724 19.5347 29.268C19.5347 28.404 19.0427 27.96 18.0587 27.96H15.5987V30.756Z" fill="#2E2E2E"/>
</svg>
