<svg width="20" height="20" viewBox="0 0 20 20" fill="none" xmlns="http://www.w3.org/2000/svg">
<path d="M11 3V10.5938L13.2812 8.3125C13.6562 7.90625 14.3125 7.90625 14.6875 8.3125C15.0938 8.6875 15.0938 9.34375 14.6875 9.71875L10.6875 13.7188C10.3125 14.125 9.65625 14.125 9.28125 13.7188L5.28125 9.71875C4.875 9.34375 4.875 8.6875 5.28125 8.3125C5.65625 7.90625 6.3125 7.90625 6.6875 8.3125L9 10.5938V3C9 2.46875 9.4375 2 10 2C10.5312 2 11 2.46875 11 3ZM4 13H7.15625L8.5625 14.4375C9.34375 15.2188 10.625 15.2188 11.4062 14.4375L12.8125 13H16C17.0938 13 18 13.9062 18 15V16C18 17.125 17.0938 18 16 18H4C2.875 18 2 17.125 2 16V15C2 13.9062 2.875 13 4 13ZM15.5 14.75C15.0625 14.75 14.75 15.0938 14.75 15.5C14.75 15.9375 15.0625 16.25 15.5 16.25C15.9062 16.25 16.25 15.9375 16.25 15.5C16.25 15.0938 15.9062 14.75 15.5 14.75Z" fill="#2E2E2E"/>
</svg>
