<svg width="25" height="48" viewBox="0 0 25 48" fill="none" xmlns="http://www.w3.org/2000/svg">
<path d="M21.25 16.25C21.9141 16.25 22.5 16.8359 22.5 17.5V21.25C22.5 21.9531 21.9141 22.5 21.25 22.5H3.75C3.04688 22.5 2.5 21.9531 2.5 21.25V17.5C2.5 16.8359 3.04688 16.25 3.75 16.25H8.94531L10.7031 18.0469C11.1719 18.5156 11.7969 18.75 12.5 18.75C13.1641 18.75 13.7891 18.5156 14.2578 18.0469L16.0156 16.25H21.25ZM19.375 20.3125C19.8828 20.3125 20.3125 19.9219 20.3125 19.375C20.3125 18.8672 19.8828 18.4375 19.375 18.4375C18.8281 18.4375 18.4375 18.8672 18.4375 19.375C18.4375 19.9219 18.8281 20.3125 19.375 20.3125ZM11.6016 17.1484L6.60156 12.1484C6.09375 11.6797 6.09375 10.8594 6.60156 10.3906C7.07031 9.88281 7.89062 9.88281 8.35938 10.3906L11.25 13.2422V3.75C11.25 3.08594 11.7969 2.5 12.5 2.5C13.1641 2.5 13.75 3.08594 13.75 3.75V13.2422L16.6016 10.3906C17.0703 9.88281 17.8906 9.88281 18.3594 10.3906C18.8672 10.8594 18.8672 11.6797 18.3594 12.1484L13.3594 17.1484C13.125 17.3828 12.8125 17.5 12.5 17.5C12.1484 17.5 11.8359 17.3828 11.6016 17.1484Z" fill="#2E2E2E"/>
<path d="M7.78 34.296V33.312H6.508C5.98 33.312 5.608 33.324 5.284 33.36C5.32 33 5.332 32.7 5.332 32.196V30.444C5.332 29.988 5.32 29.7 5.284 29.352C5.632 29.4 5.968 29.412 6.616 29.412H10.444C11.02 29.412 11.416 29.4 11.764 29.352C11.728 29.724 11.716 29.964 11.716 30.516V32.22C11.716 32.724 11.728 33.012 11.764 33.348C11.632 33.336 11.632 33.336 11.416 33.336C11.368 33.336 11.272 33.336 11.152 33.324C10.924 33.312 10.732 33.312 10.576 33.312H9.052V34.296H11.152C11.596 34.296 12.064 34.272 12.46 34.224V35.568C12.016 35.52 11.56 35.496 11.188 35.496H9.58C10.084 36.12 10.348 36.384 10.864 36.816C11.512 37.356 12.028 37.68 12.784 38.04C12.436 38.496 12.256 38.772 11.98 39.324C11.128 38.748 10.876 38.556 10.456 38.184C9.844 37.644 9.508 37.248 9.016 36.48C9.04 36.876 9.052 37.44 9.052 37.764V38.88C9.052 39.264 9.076 39.612 9.124 39.984H7.708C7.756 39.6 7.78 39.264 7.78 38.868V37.74C7.78 37.644 7.792 37.212 7.804 36.468C7.324 37.272 6.976 37.692 6.268 38.328C5.728 38.808 5.368 39.072 4.828 39.396C4.528 38.808 4.456 38.7 4.012 38.208C4.792 37.8 5.416 37.368 6.076 36.768C6.544 36.348 6.76 36.108 7.228 35.496H5.8C5.332 35.496 4.876 35.52 4.492 35.568V34.236C4.876 34.272 5.26 34.296 5.8 34.296H7.78ZM6.592 30.588V32.136H10.432V30.588H6.592ZM2.68 38.568V35.16C2.68 34.764 2.68 34.488 2.704 33.84C2.404 34.332 2.212 34.596 1.78 35.052C1.552 34.32 1.492 34.152 1.204 33.6C2.092 32.724 2.74 31.716 3.232 30.42C3.46 29.82 3.628 29.208 3.688 28.788L5.032 29.22C4.96 29.388 4.96 29.388 4.852 29.76C4.6 30.576 4.372 31.116 3.928 31.992V38.58C3.928 39.096 3.94 39.492 3.988 39.972H2.608C2.656 39.492 2.68 39.132 2.68 38.568ZM20.2 35.292V34.92C20.2 34.728 20.188 34.536 20.164 34.368H20.656C21.124 34.092 21.4 33.864 21.82 33.456H18.76C18.28 33.456 17.992 33.468 17.68 33.516V32.256C17.98 32.292 18.22 32.304 18.772 32.304H22.192C22.612 32.304 22.948 32.292 23.188 32.268L23.968 33.012C23.86 33.132 23.86 33.132 23.62 33.372C22.996 34.008 22.396 34.5 21.496 35.112V35.292H23.14C23.728 35.292 24.124 35.268 24.496 35.22V36.54C24.16 36.492 23.692 36.468 23.092 36.468H21.496V38.676C21.496 39.636 21.16 39.888 19.9 39.888C19.612 39.888 19.192 39.876 18.76 39.84C18.64 39.156 18.592 38.988 18.424 38.58C19.012 38.664 19.348 38.7 19.756 38.7C20.116 38.7 20.2 38.64 20.2 38.388V36.468H18.304C17.704 36.468 17.284 36.492 16.924 36.54V35.22C17.284 35.268 17.68 35.292 18.28 35.292H20.2ZM16.624 31.26H15.088C14.452 31.26 13.984 31.284 13.612 31.32V29.988C13.972 30.036 14.404 30.06 15.136 30.06H17.188C17.392 29.544 17.512 29.148 17.56 28.764L19.024 28.908C18.952 29.064 18.952 29.076 18.868 29.328C18.82 29.46 18.712 29.736 18.592 30.06H22.876C23.632 30.06 24.064 30.036 24.388 29.988V31.32C23.98 31.284 23.404 31.26 22.9 31.26H18.052C17.56 32.256 17.032 33.096 16.396 33.912V38.688C16.396 39.204 16.408 39.54 16.468 39.948H15.028C15.076 39.6 15.1 39.288 15.1 38.688V35.328C14.764 35.64 14.572 35.82 14.02 36.264C13.84 35.796 13.612 35.412 13.324 35.028C14.092 34.464 14.572 34.044 15.088 33.468C15.076 33.144 15.076 33.012 15.04 32.736H15.688C16.072 32.22 16.324 31.836 16.624 31.26Z" fill="#2E2E2E"/>
</svg>
