<svg width="393" height="367" viewBox="0 0 393 367" fill="none" xmlns="http://www.w3.org/2000/svg">
<path d="M-40 0H433L354.866 360.694C354.069 364.374 350.813 367 347.047 367H51.8504C48.1314 367 44.9029 364.437 44.0591 360.815L-40 0Z" fill="#CC0000"/>
<path d="M34.236 137.783C33.0912 132.774 36.8971 128 42.0349 128H351.196C356.259 128 360.049 132.644 359.033 137.605L340.809 226.605C340.047 230.327 336.772 233 332.972 233H62.3777C58.6463 233 55.4103 230.42 54.5789 226.783L34.236 137.783Z" fill="#CCCCCC"/>
<path d="M34.2493 137.791C33.0982 132.78 36.9048 128 42.0462 128H351.216C356.273 128 360.061 132.633 359.056 137.589L354.799 158.589C354.043 162.319 350.765 165 346.959 165H46.8706C43.1423 165 39.9084 162.425 39.0736 158.791L34.2493 137.791Z" fill="#4D4D4D"/>
</svg>
