<svg width="105" height="87" viewBox="0 0 105 87" fill="none" xmlns="http://www.w3.org/2000/svg">
<path d="M46.5986 54.9108L37.9687 59.4745C37.0591 60.1787 30.5588 62.6787 33.6114 69.1065C35.2419 70.798 35.5337 71.1458 38.5589 72.9109C40.5749 74.0871 39.6846 73.6646 42.0591 74.6788C44.2866 75.6301 45.9599 75.7579 47.8881 76.3211C48.7923 76.5853 49.6506 76.805 50.4631 76.9855L53.1739 77.1687L53.2712 77.1788C54.6623 77.3194 55.8173 77.2849 56.7191 77.051C57.6135 76.8154 60.0591 75.6788 61.0591 75.1788L72.977 66.1726L48.929 55.5915L46.5986 54.9108ZM47.0591 58.6787L64.4853 66.5266L62.5591 67.1787L45.5591 59.6787L47.0591 58.6787Z" fill="#E26969"/>
<path d="M73.5711 86.3241C73.8649 86.5121 74.193 86.6632 74.5461 86.7744C75.0128 86.9213 75.5318 86.9996 76.0494 86.9996H76.0726C76.7043 86.9996 77.3414 86.8843 77.9069 86.6715C78.5056 86.4463 79.0177 86.1252 79.4297 85.7117C79.7206 85.4221 79.9474 85.102 80.1258 84.7356C80.3784 84.2029 80.5048 83.6192 80.5076 82.952V69.1879C80.5076 68.7183 80.2302 68.2873 79.7909 68.0744C79.6042 67.9837 79.3983 67.9385 79.195 67.9385C78.9233 67.9385 78.6542 68.0169 78.4261 68.1733L73.0193 71.8927C72.8999 71.9299 72.7846 71.9834 72.6775 72.0521C72.3191 72.2855 72.105 72.6713 72.105 73.0831V83.5439C72.1077 84.1824 72.2422 84.7289 72.5168 85.2231C72.7652 85.6637 73.1071 86.022 73.5711 86.3241Z" fill="#E26969"/>
<path d="M104.188 18.1414C103.713 16.5088 103.013 14.8613 102.115 13.2631C100.328 10.0655 97.7629 7.07224 94.7834 4.75739C92.7981 3.21141 90.6342 1.96623 88.4073 1.13123C86.3203 0.346056 84.3898 0 82.6901 0C80.7926 0.00274793 79.1918 0.42428 77.8875 1.16017L50.856 19.7561C52.4252 19.9648 54.0439 20.3739 55.6958 20.9945C59.7145 22.5062 63.379 25.0365 66.4147 28.127C69.449 31.2205 71.8573 34.8781 73.3153 38.7087C74.1584 40.9247 74.6827 43.2025 74.8063 45.4597H74.8366V46.4922V67.1282L104.911 46.4399V22.9342C104.911 21.3913 104.664 19.7752 104.188 18.1414Z" fill="#E26969"/>
<path d="M43.9246 31.6187L45.4246 26.5L48.4246 22L52.9246 22.5L56.4046 24.5L60.4246 27L63.9246 30L66.4246 34L68.9246 38.5L43.9246 52V31.6187Z" fill="#E26969"/>
<path d="M15.2929 28.9448C12.79 29.4983 10.313 27.9178 9.7597 25.4157C9.39194 23.7527 9.96804 22.103 11.1303 21.0206C11.355 20.8114 11.4033 20.8125 11.4033 20.8125C11.4807 20.7541 11.5152 20.6545 11.4894 20.5606C11.4653 20.4672 11.3859 20.3978 11.2895 20.3853C11.2895 20.3853 11.219 20.368 10.8932 20.3337C7.53521 19.9819 4.18166 20.4551 2.78739 21.1298C2.1036 21.4607 1.70376 21.9078 1.59949 22.4591C1.57304 22.5991 0.960824 25.9362 1.86537 30.0265C2.84144 34.4402 5.26066 38.0225 8.86127 40.3874C15.0162 44.4305 20.552 42.6788 24.6938 41.1865C25.9228 41.7873 27.1959 42.3775 28.4933 42.9437L29.0327 41.708L29.4171 40.8247L29.5711 40.4716C28.3683 39.9478 27.2246 39.4201 26.0976 38.8727C26.0582 38.5953 26.0179 38.3216 25.9785 38.04C25.7884 36.6576 25.5919 35.2276 25.2713 33.7778C24.6191 30.8284 23.3883 27.2777 19.8258 24.242C19.5116 23.9739 19.2609 23.7939 19.2609 23.7939C19.1854 23.7347 19.0828 23.7253 18.9991 23.7699C18.9146 23.8156 18.8654 23.9058 18.873 24.0012C18.873 24.0012 18.9439 24.2455 18.9251 24.6336C18.8299 26.6757 17.3847 28.4822 15.2929 28.9448Z" fill="#E26969"/>
</svg>
