<svg width="36" height="42" viewBox="0 0 36 42" fill="none" xmlns="http://www.w3.org/2000/svg">
<path d="M2.184 31.5L2.1 29.976C2.268 29.984 2.532 29.992 2.892 30C3.26 30 3.68 30.004 4.152 30.012C4.624 30.012 5.108 30.012 5.604 30.012C6.108 30.004 6.584 30 7.032 30C7.48 29.992 7.856 29.984 8.16 29.976V27C7.912 27 7.576 27.004 7.152 27.012C6.736 27.012 6.28 27.016 5.784 27.024C5.288 27.024 4.796 27.028 4.308 27.036C3.828 27.044 3.396 27.056 3.012 27.072C2.636 27.08 2.356 27.092 2.172 27.108L2.124 25.596C2.316 25.612 2.608 25.624 3 25.632C3.392 25.64 3.84 25.644 4.344 25.644C4.848 25.644 5.368 25.644 5.904 25.644C6.448 25.636 6.972 25.632 7.476 25.632C7.98 25.624 8.424 25.616 8.808 25.608C9.2 25.6 9.492 25.592 9.684 25.584V31.38C9.236 31.38 8.724 31.384 8.148 31.392C7.58 31.392 6.988 31.396 6.372 31.404C5.764 31.412 5.18 31.424 4.62 31.44C4.06 31.448 3.564 31.456 3.132 31.464C2.708 31.472 2.392 31.484 2.184 31.5ZM17.22 32.784C16.58 32.784 16.076 32.744 15.708 32.664C15.34 32.576 15.08 32.42 14.928 32.196C14.776 31.972 14.7 31.644 14.7 31.212V24.12H16.188C16.18 24.312 16.168 24.584 16.152 24.936C16.144 25.28 16.136 25.672 16.128 26.112C16.128 26.544 16.128 26.988 16.128 27.444C16.608 27.292 17.116 27.12 17.652 26.928C18.196 26.736 18.716 26.54 19.212 26.34C19.716 26.14 20.14 25.952 20.484 25.776L21.276 27.12C20.94 27.264 20.556 27.412 20.124 27.564C19.7 27.708 19.252 27.852 18.78 27.996C18.308 28.14 17.844 28.28 17.388 28.416C16.932 28.544 16.512 28.664 16.128 28.776V30.648C16.128 30.832 16.148 30.972 16.188 31.068C16.236 31.156 16.328 31.216 16.464 31.248C16.6 31.28 16.8 31.296 17.064 31.296C17.408 31.296 17.796 31.288 18.228 31.272C18.66 31.256 19.104 31.236 19.56 31.212C20.016 31.18 20.452 31.144 20.868 31.104C21.284 31.064 21.644 31.02 21.948 30.972C21.908 31.116 21.872 31.292 21.84 31.5C21.816 31.7 21.796 31.9 21.78 32.1C21.772 32.292 21.768 32.444 21.768 32.556C21.344 32.596 20.864 32.636 20.328 32.676C19.792 32.708 19.252 32.736 18.708 32.76C18.164 32.776 17.668 32.784 17.22 32.784ZM22.62 26.4C22.3 26.4 22.02 26.284 21.78 26.052C21.548 25.82 21.432 25.54 21.432 25.212C21.432 24.884 21.548 24.604 21.78 24.372C22.02 24.14 22.3 24.024 22.62 24.024C22.948 24.024 23.228 24.14 23.46 24.372C23.7 24.604 23.82 24.884 23.82 25.212C23.82 25.54 23.7 25.82 23.46 26.052C23.228 26.284 22.948 26.4 22.62 26.4ZM22.62 25.896C22.812 25.896 22.972 25.828 23.1 25.692C23.236 25.556 23.304 25.396 23.304 25.212C23.304 25.028 23.236 24.868 23.1 24.732C22.972 24.596 22.812 24.528 22.62 24.528C22.436 24.528 22.276 24.596 22.14 24.732C22.012 24.868 21.948 25.028 21.948 25.212C21.948 25.396 22.012 25.556 22.14 25.692C22.276 25.828 22.436 25.896 22.62 25.896ZM25.104 29.22C25.112 29.108 25.116 28.956 25.116 28.764C25.116 28.572 25.116 28.38 25.116 28.188C25.116 27.996 25.112 27.844 25.104 27.732C25.256 27.74 25.524 27.748 25.908 27.756C26.3 27.764 26.764 27.772 27.3 27.78C27.844 27.788 28.424 27.796 29.04 27.804C29.656 27.804 30.272 27.804 30.888 27.804C31.504 27.804 32.084 27.8 32.628 27.792C33.18 27.784 33.656 27.776 34.056 27.768C34.456 27.76 34.74 27.748 34.908 27.732C34.9 27.836 34.892 27.984 34.884 28.176C34.884 28.368 34.884 28.564 34.884 28.764C34.892 28.956 34.896 29.104 34.896 29.208C34.696 29.2 34.4 29.192 34.008 29.184C33.624 29.176 33.172 29.168 32.652 29.16C32.14 29.152 31.592 29.148 31.008 29.148C30.432 29.148 29.848 29.148 29.256 29.148C28.664 29.148 28.1 29.152 27.564 29.16C27.028 29.168 26.544 29.176 26.112 29.184C25.688 29.192 25.352 29.204 25.104 29.22Z" fill="white"/>
<rect x="8.47619" y="0.47619" width="12.381" height="16.1905" rx="1.42857" stroke="white" stroke-width="0.952381"/>
<rect x="14.1905" y="4.28576" width="12.381" height="15.2381" rx="1.42857" fill="white" stroke="white" stroke-width="0.952381"/>
</svg>
