<svg width="414" height="49" viewBox="0 0 414 49" fill="none" xmlns="http://www.w3.org/2000/svg">
<g clip-path="url(#clip0_1321_2336)">
<path d="M100.291 41.0398C103.021 39.0498 104.751 35.6898 104.751 32.3198C104.751 28.4598 102.521 24.6498 99.0608 22.6598C96.8808 32.0998 91.5308 39.4398 84.3808 43.1398C81.3708 44.6898 78.4608 45.0198 75.8408 43.8598C74.3308 43.1998 72.2708 41.7098 71.3208 38.5098C69.9208 33.4298 72.3808 28.1298 75.4508 24.5998C79.2408 21.2898 80.3608 20.6298 82.9308 19.5798V12.0198H75.0108V8.37977H82.9908V2.00977H87.1208V8.35977H100.351V11.9998H87.1208V18.3998C88.9108 18.0698 90.6908 17.8498 92.4208 17.8498C93.5908 17.8498 94.7108 17.9598 95.7708 18.1298C95.9408 16.6898 95.9408 15.3698 95.9408 15.3698H100.071C100.011 16.1998 99.9608 17.5798 99.7408 19.2298C105.381 21.5498 108.891 26.4598 108.891 32.3098C108.891 36.6698 106.831 40.9198 103.371 43.6298C100.521 45.9498 96.8408 47.0498 92.1008 47.0498H91.9908V43.4598C94.7808 43.2898 97.6308 42.9598 100.301 41.0298L100.291 41.0398ZM79.6508 26.0198C76.7508 28.6698 74.2408 33.5798 75.2408 37.3898C75.6308 38.9398 76.4708 40.0398 77.5308 40.4798C79.0408 41.1398 81.1608 40.8698 83.0008 39.8198V23.6398C81.7208 24.4698 80.6008 25.1898 79.6508 26.0098V26.0198ZM95.1608 21.5498C92.8708 21.2698 89.9708 21.2698 87.1208 22.0998V36.7298C90.9708 32.9198 93.9308 27.4598 95.1608 21.5498Z" fill="#2E2E2E" stroke="#2E2E2E" stroke-miterlimit="10"/>
<path d="M122.561 31.2096V6.25957H126.581V31.7596C126.581 36.6196 127.031 37.3396 130.151 41.4196L127.031 43.7896C123.121 39.0996 122.571 37.3896 122.571 31.1996L122.561 31.2096ZM161.841 14.1596V17.6896H153.251V27.0696C153.251 39.1096 153.361 41.1996 145.491 47.6096L142.481 44.8996C148.901 39.0996 149.061 38.4396 149.061 27.0696V17.6896H134.161V14.1596H149.061V3.05957H153.251V14.1596H161.841Z" fill="#2E2E2E" stroke="#2E2E2E" stroke-miterlimit="10"/>
<path d="M198.171 22.5999C202.361 22.5999 205.541 23.8699 207.821 26.4599C211.781 30.9899 211.611 37.9399 207.371 42.4699C203.461 46.5499 196.771 46.3899 193.081 46.2799V42.5799C198.101 42.6899 202.121 41.9199 204.181 39.7099C206.911 36.6699 207.141 32.1499 204.631 29.1699C202.961 27.1799 200.501 26.1299 197.321 26.1299C194.751 26.1299 190.511 26.9599 188.221 28.4499V39.6599C188.221 42.1399 187.441 43.9699 185.931 45.0699C184.311 46.2299 181.971 46.1699 180.181 45.4599C177.281 44.3599 174.541 41.3199 174.491 37.7299C174.431 35.4099 175.381 33.1499 177.171 31.3799C179.231 29.4499 181.411 27.7399 184.151 26.2999V14.2099H175.671V10.3499H184.151V3.10986H188.221V10.3399H195.921V14.1999H188.221V24.7399C190.511 23.2499 195.361 22.5899 198.151 22.5899L198.171 22.5999ZM178.921 36.0199C178.141 38.6099 179.701 41.0999 181.651 41.8199C183.601 42.5399 184.161 41.6499 184.161 39.7799V30.6199C181.821 32.1099 179.581 33.7699 178.911 36.0299L178.921 36.0199ZM198.841 17.8499V14.1499C207.101 14.1499 208.831 14.5899 213.181 19.1699L210.061 21.7599C206.881 18.5599 206.491 17.8399 198.841 17.8399V17.8499Z" fill="#2E2E2E" stroke="#2E2E2E" stroke-miterlimit="10"/>
<path d="M253.351 11.3399C257.931 12.5499 261.441 14.9299 263.791 18.4099C267.641 23.8799 268.091 31.1099 264.911 36.6799C261.841 42.1499 255.701 45.7299 248.501 46.3399L248.051 42.4799C253.851 41.6499 258.261 39.8899 261.271 34.6999C263.731 30.4999 263.331 24.9299 260.381 20.5099C258.591 17.9199 255.691 15.8699 252.401 14.8799C251.451 18.5799 250.281 22.2199 248.831 25.9799C247.711 28.9099 246.261 32.3299 244.141 35.3099C244.871 36.7499 245.651 38.0199 246.541 39.2299L243.081 41.4399C242.411 40.4999 241.851 39.7299 241.291 38.5699C239.061 40.8299 236.441 42.3199 233.481 42.3199C227.621 42.3199 224.501 36.2499 225.281 29.4599C225.841 24.2199 228.461 19.5199 232.651 15.8799C231.981 12.9499 231.421 9.85994 230.981 6.21994L235.111 5.44994C235.441 8.31994 235.891 11.0299 236.391 13.6799C241.301 10.8099 245.761 10.6399 249.281 10.6399C249.731 8.20994 250.281 5.77994 250.451 2.68994H254.581C254.301 4.83994 254.021 7.98994 253.351 11.3599V11.3399ZM233.771 20.1199C231.311 22.9899 229.811 26.4699 229.421 29.8899C229.251 31.0999 229.091 35.1899 231.211 37.5599C233.331 39.7699 237.071 37.5599 239.361 35.0199C237.801 31.9299 235.621 26.8999 233.781 20.1099L233.771 20.1199ZM242.081 31.3199C243.361 28.8399 244.371 26.4099 245.091 24.4699C246.491 20.8799 247.431 17.2899 248.271 14.0899C243.581 14.0899 241.411 15.0299 237.281 17.1799C238.511 22.0899 240.131 26.7299 242.081 31.3099V31.3199Z" fill="#2E2E2E" stroke="#2E2E2E" stroke-miterlimit="10"/>
<path d="M290.681 3.82959V27.7896H286.491V3.82959H290.681ZM294.091 44.2396L296.711 47.7696C308.821 38.7696 311.721 35.3496 311.721 17.7896V3.82959H307.311V17.7996C307.311 33.9196 305.021 35.9596 294.081 44.2396H294.091Z" fill="#2E2E2E" stroke="#2E2E2E" stroke-miterlimit="10"/>
<path d="M346.931 8.40967V12.6097H331.421V8.40967H346.931ZM332.921 45.4597V41.3697C350.221 41.3697 353.511 35.2997 363.331 17.4097L367.291 19.5597C357.691 37.1697 353.401 45.4497 332.921 45.4497V45.4597Z" fill="#2E2E2E" stroke="#2E2E2E" stroke-miterlimit="10"/>
<path d="M408.701 14.3798H395.081C392.741 18.7398 389.441 22.0498 382.131 27.1298L379.561 23.8198C393.011 14.3198 393.061 9.46977 393.061 2.00977H397.521C397.521 6.36977 397.241 8.24977 396.681 10.3498H413.141V14.0998C413.141 25.7998 405.551 35.1298 385.571 47.4398L383.111 43.9598C401.471 32.5298 408.441 24.3598 408.671 14.3698L408.701 14.3798Z" fill="#2E2E2E" stroke="#2E2E2E" stroke-miterlimit="10"/>
<path d="M25.2402 12.5V25.8" stroke="#CC0000" stroke-width="25" stroke-miterlimit="10" stroke-linecap="round"/>
<path d="M12.5 21.7695L25.15 25.8795" stroke="#CC0000" stroke-width="25" stroke-miterlimit="10" stroke-linecap="round"/>
<path d="M25.1807 25.8296L37.7007 21.3696" stroke="#CC0000" stroke-width="25" stroke-miterlimit="10" stroke-linecap="round"/>
<path d="M25.5801 26.1196L34.3701 36.2696" stroke="#CC0000" stroke-width="25" stroke-miterlimit="10" stroke-linecap="round"/>
<path d="M24.8405 26.3999L17.0205 36.4999" stroke="#CC0000" stroke-width="25" stroke-miterlimit="10" stroke-linecap="round"/>
<path d="M49.6007 33.9596C47.7107 34.9196 37.1207 41.1296 29.1207 35.4396C27.2707 34.1296 21.8307 30.7596 22.8407 27.7796C23.5707 25.6196 25.9707 24.5296 28.0607 24.5496C31.7607 24.5796 35.6607 28.4996 35.7707 31.7096C35.8007 32.6596 35.5007 34.6296 33.1107 34.6296" stroke="white" stroke-width="0.75" stroke-miterlimit="10" stroke-linecap="round"/>
<path d="M0.980469 33.8995C2.87047 34.8595 13.4605 41.0695 21.4605 35.3795C23.3105 34.0695 28.7505 30.6995 27.7405 27.7195C27.0105 25.5595 24.6105 24.4695 22.5205 24.4895C18.8205 24.5195 14.9205 28.4395 14.8105 31.6495C14.7805 32.5995 15.0805 34.5695 17.4705 34.5695" stroke="white" stroke-width="0.75" stroke-miterlimit="10" stroke-linecap="round"/>
</g>
<defs>
<clipPath id="clip0_1321_2336">
<rect width="413.66" height="49" fill="white"/>
</clipPath>
</defs>
</svg>
