<svg width="161" height="118" viewBox="0 0 161 118" fill="none" xmlns="http://www.w3.org/2000/svg">
<g clip-path="url(#clip0_1119_1339)">
<path d="M156.643 33.4822L148.745 30.609C146.141 29.6624 144.249 27.3879 143.791 24.657L142.404 16.3677C142.309 15.7932 141.838 15.3566 141.259 15.3034C140.679 15.2502 140.136 15.5938 139.937 16.1413L137.065 24.0399C136.118 26.6421 133.844 28.5342 131.111 28.9912L122.821 30.3793C122.247 30.4756 121.81 30.9455 121.757 31.5258C121.704 32.106 122.048 32.6474 122.595 32.8469L130.494 35.72C133.098 36.6657 134.99 38.9411 135.447 41.672L136.834 49.9615C136.93 50.5361 137.401 50.9727 137.981 51.026C138.561 51.0791 139.103 50.7355 139.302 50.1879L142.174 42.2892C143.12 39.687 145.395 37.7939 148.127 37.3379L156.417 35.9499C156.991 35.8535 157.428 35.3835 157.481 34.8033C157.535 34.2231 157.191 33.6816 156.643 33.4822Z" fill="white"/>
<path d="M123.439 57.136L118.613 55.3812C117.023 54.8033 115.867 53.4136 115.588 51.7455L114.739 46.6811C114.681 46.329 114.394 46.0635 114.039 46.0309C113.686 45.9985 113.354 46.2073 113.233 46.5429L111.478 51.3685C110.899 52.9578 109.51 54.114 107.841 54.3928L102.776 55.2403C102.426 55.2994 102.159 55.5871 102.126 55.941C102.094 56.295 102.305 56.6266 102.638 56.7484L107.464 58.5031C109.054 59.081 110.21 60.4708 110.49 62.139L111.338 67.2033C111.395 67.5554 111.683 67.8211 112.037 67.8536C112.392 67.8861 112.723 67.6772 112.844 67.3415L114.6 62.516C115.177 60.9265 116.567 59.7703 118.236 59.4915L123.301 58.6441C123.651 58.585 123.918 58.2973 123.951 57.9433C123.983 57.5895 123.772 57.2578 123.439 57.136Z" fill="white"/>
</g>
<rect y="12.3857" width="75.7377" height="107.052" rx="3" transform="rotate(-9.41227 0 12.3857)" fill="white"/>
<rect x="10.0505" y="19.5776" width="16.0214" height="21.1192" rx="2" transform="rotate(-9.41227 10.0505 19.5776)" fill="#CC0000"/>
<rect x="33.759" y="15.6475" width="8.01072" height="10.1955" rx="2" transform="rotate(-9.41227 33.759 15.6475)" fill="#CC0000"/>
<rect x="45.9727" y="13.623" width="8.01072" height="10.1955" rx="2" transform="rotate(-9.41227 45.9727 13.623)" fill="#CC0000"/>
<rect x="58.186" y="11.5986" width="8.01072" height="10.1955" rx="2" transform="rotate(-9.41227 58.186 11.5986)" fill="#CC0000"/>
<rect x="24.4648" y="102.08" width="56.8033" height="6.55422" rx="2" transform="rotate(-9.41227 24.4648 102.08)" fill="#CC0000"/>
<defs>
<clipPath id="clip0_1119_1339">
<rect width="55" height="55" fill="white" transform="translate(105.25 12) rotate(5.24199)"/>
</clipPath>
</defs>
</svg>
