<svg width="451" height="112" viewBox="0 0 451 112" fill="none" xmlns="http://www.w3.org/2000/svg">
<path d="M442.424 0H211.375C206.638 0 202.799 3.86024 202.799 8.62209C202.799 13.3839 206.638 17.2442 211.375 17.2442H442.424C447.16 17.2442 451 13.3839 451 8.62209C451 3.86024 447.16 0 442.424 0Z" fill="#E0CBA2"/>
<path d="M398.029 31.4456H109.471C104.734 31.4456 100.895 35.3058 100.895 40.0676C100.895 44.8295 104.734 48.6897 109.471 48.6897H398.029C402.766 48.6897 406.605 44.8295 406.605 40.0676C406.605 35.3058 402.766 31.4456 398.029 31.4456Z" fill="#E0CBA2"/>
<path d="M225.5 62.8906H8.57605C3.83963 62.8906 0 66.7509 0 71.5127C0 76.2746 3.83963 80.1348 8.57605 80.1348H225.5C230.236 80.1348 234.076 76.2746 234.076 71.5127C234.076 66.7509 230.236 62.8906 225.5 62.8906Z" fill="#E0CBA2"/>
<path d="M340.518 94.3359H72.1385C67.4021 94.3359 63.5625 98.1962 63.5625 102.958C63.5625 107.72 67.4021 111.58 72.1385 111.58H340.518C345.255 111.58 349.094 107.72 349.094 102.958C349.094 98.1962 345.255 94.3359 340.518 94.3359Z" fill="#E0CBA2"/>
<path d="M199.516 71.006V39.5608H190.94V71.006H199.516Z" fill="#E0CBA2"/>
<path d="M138.58 102.714V71.269H130.004V102.714H138.58Z" fill="#E0CBA2"/>
<path d="M304.963 39.9462V8.50098H296.387V39.9462H304.963Z" fill="#E0CBA2"/>
</svg>
