<svg width="282" height="200" viewBox="0 0 282 200" fill="none" xmlns="http://www.w3.org/2000/svg">
<g filter="url(#filter0_d_2102_2096)">
<path d="M274.204 158.406L253.249 45.0589C252.888 43.1205 251.382 41.6244 249.476 41.3268L218.165 36.4123C214.399 15.6926 196.685 0 175.377 0C151.331 0 131.835 19.9878 131.835 44.6407C131.835 58.7809 138.26 71.3849 148.271 79.5569L118.592 133.303C117.031 136.126 118.71 139.681 121.832 140.188L269.05 163.867C272.149 164.366 274.793 161.567 274.212 158.406H274.204Z" fill="white"/>
<path d="M253.476 100.678C254.684 106.598 255.939 112.51 257.092 118.446C258.112 123.658 258.975 128.894 260.003 134.099C260.984 139.085 262.09 144.04 263.118 149.019C263.306 149.936 263.478 150.869 263.533 151.794C263.62 153.21 262.992 153.757 261.556 153.515C256.786 152.719 252.024 151.834 247.254 151.078C242.469 150.322 237.667 149.735 232.882 148.979C230.434 148.593 228.033 147.949 225.593 147.539C221.522 146.855 217.442 146.252 213.363 145.625C209.84 145.086 206.31 144.571 202.787 144.008C198.26 143.284 193.734 142.536 189.215 141.78C181.322 140.461 173.446 139.077 165.545 137.815C158.9 136.753 152.24 135.868 145.595 134.814C141.492 134.171 137.404 133.367 133.317 132.635C133.168 132.611 133.026 132.538 132.877 132.506C130.045 131.911 129.778 131.251 131.261 128.589C134.242 123.232 137.2 117.867 140.205 112.534C144.277 105.295 148.364 98.0643 152.475 90.8574C153.879 88.3962 155.401 86.0153 156.868 83.5943C156.978 83.4977 157.088 83.4093 157.198 83.3127V83.3288C159.583 82.0821 161.991 80.8837 164.337 79.5806C167.577 77.787 170.77 75.9128 173.987 74.0709C174.858 73.5722 175.579 73.8055 176.097 74.6259C176.701 75.5831 177.243 76.5805 177.839 77.5376C180.208 81.3421 182.57 85.1466 184.97 88.927C185.567 89.86 186.273 90.1737 187.395 89.4257C192.015 86.3451 196.715 83.4012 201.343 80.3447C203.211 79.1141 204.042 79.0819 205.627 80.8434C209.518 85.1466 213.355 89.4981 217.222 93.8174C218.548 95.2974 219.568 95.4663 221.192 94.3804C222.275 93.6565 223.287 92.812 224.283 91.9594C227.037 89.5785 229.736 87.1333 232.513 84.7847C233.941 83.5782 234.404 83.6425 235.698 85.0903C238.405 88.1146 241.033 91.2113 243.763 94.2115C245.623 96.2626 247.717 98.0964 249.451 100.244C250.377 101.386 251.279 101.37 252.401 101.145C252.777 101.072 253.13 100.847 253.491 100.686L253.476 100.678Z" fill="#60C9DB"/>
<path d="M253.477 100.678C253.116 100.839 252.763 101.064 252.387 101.137C251.265 101.354 250.363 101.378 249.437 100.236C247.703 98.0882 245.608 96.2543 243.749 94.2033C241.027 91.195 238.391 88.0983 235.684 85.0821C234.389 83.6343 233.927 83.5699 232.499 84.7764C229.721 87.1251 227.023 89.5783 224.269 91.9511C223.28 92.8037 222.261 93.6563 221.178 94.3722C219.546 95.458 218.526 95.2811 217.208 93.8091C213.34 89.4898 209.496 85.1384 205.613 80.8352C204.02 79.0737 203.189 79.1059 201.329 80.3365C196.7 83.401 191.993 86.3369 187.38 89.4175C186.258 90.1655 185.544 89.8438 184.956 88.9188C182.555 85.1384 180.194 81.3339 177.825 77.5294C177.228 76.5722 176.687 75.5748 176.083 74.6177C175.565 73.7972 174.843 73.564 173.973 74.0627C170.756 75.8966 167.563 77.7787 164.323 79.5724C161.969 80.8754 159.561 82.0739 157.184 83.3206C157.921 81.72 158.666 80.1274 159.396 78.5267C159.796 77.642 160.165 76.7492 160.549 75.8644C160.816 75.6392 161.169 75.4703 161.334 75.1887C162.244 73.6364 163.099 72.0599 163.978 70.4914C166.574 65.8584 169.171 61.2255 171.768 56.5925C174.177 52.2973 176.585 47.9941 179.009 43.707C180.9 40.369 180.319 40.2966 184.281 41.0607C184.579 41.117 184.893 41.101 185.199 41.1492C189.514 41.8731 193.837 42.597 198.144 43.3451C202.129 44.0368 206.107 44.7687 210.085 45.4766C213.191 45.9672 216.29 46.4578 219.397 46.9404C222.551 47.4311 225.705 47.8976 228.858 48.3882C230.035 48.5732 231.204 48.8065 232.373 49.0237C235.817 49.6511 239.261 50.2463 242.69 50.946C243.074 51.0265 243.529 51.6699 243.639 52.1284C244.306 55.0562 244.871 58.0081 245.498 60.9439C246.51 65.6895 247.593 70.419 248.566 75.1646C249.735 80.9076 250.833 86.6666 251.939 92.4176C252.473 95.1685 252.967 97.9193 253.477 100.67V100.678Z" fill="#F0FDD6"/>
<path d="M210.084 45.4771C206.106 44.7612 202.121 44.0373 198.143 43.3456C193.828 42.5976 189.513 41.8817 185.198 41.1498C184.9 41.1015 184.586 41.1176 184.28 41.0613C180.319 40.2972 180.899 40.3615 179.008 43.7075C176.584 47.9947 174.176 52.2979 171.767 56.593C169.17 61.226 166.574 65.859 163.977 70.492C163.098 72.0604 162.243 73.6369 161.333 75.1893C161.168 75.4708 160.815 75.6397 160.548 75.8649C156.892 74.1678 153.848 71.6019 151.205 68.5696C147.658 64.5077 145.03 59.8667 143.673 54.5661C142.308 49.2414 142.073 43.9006 143.155 38.4231C144.199 33.1547 146.34 28.4734 149.463 24.2667C153.935 18.2423 159.756 14.0838 166.895 12.073C172.512 10.4884 178.122 10.2069 183.927 11.6789C189.168 13.006 193.805 15.2903 197.869 18.7812C204.357 24.3472 208.311 31.4414 209.527 40.08C209.566 40.3374 209.644 40.5867 209.707 40.8361C209.77 41.0452 209.833 41.2543 209.895 41.4634C209.958 42.7986 210.029 44.1338 210.092 45.4771H210.084Z" fill="#F64635"/>
</g>
<g filter="url(#filter1_d_2102_2096)">
<path d="M142.649 143.01C140.695 144.138 138.601 144.088 137.2 143.958C136.861 143.928 136.525 143.887 136.186 143.858C134.876 143.722 133.636 143.592 132.559 143.679C128.551 144.02 124.289 144.414 120.089 145.13C118.011 145.484 115.947 145.962 113.779 146.472C111.502 147.007 109.149 147.557 106.743 147.951C99.7362 149.103 93.2365 152.02 86.0753 155.431C79.2033 158.703 72.5732 162.231 67.0036 165.249C63.5977 167.093 59.8912 167.58 55.6658 166.742C48.932 165.398 43.2128 161.89 38.3813 158.705C35.0055 156.484 31.1743 153.671 28.3169 149.657C26.5715 147.208 25.0379 144.289 23.5056 140.487C20.8887 133.985 22.3943 127.734 23.7483 123.599C25.6826 117.729 29.9154 114.102 33.8048 111.34C34.4289 110.895 35.0763 110.474 35.7299 110.097C39.7719 107.763 44.2537 106.782 49.0525 107.186C50.9137 107.342 52.7771 107.666 54.668 108.152C54.2453 106.518 53.8682 104.847 53.6393 103.138C52.9017 97.6938 53.6777 92.0985 55.9555 86.5284C57.2119 83.4548 59.2188 80.6148 62.0919 77.8477C64.0742 75.933 66.2517 74.2907 68.5675 72.9537C71.1817 71.4443 74.0115 70.3084 76.9776 69.5728C82.8267 68.1213 91.5604 66.761 99.815 71.6416C105.295 74.8834 109.501 79.9696 112.303 86.7585C113.089 88.6621 113.534 90.5471 113.793 92.4074C115.116 91.2866 116.548 90.2721 118.068 89.3944C120.185 88.1722 122.552 87.1533 125.108 86.3633C132.181 84.1771 139.08 85.0032 145.616 88.828C151.265 92.1322 155.107 97.3911 157.022 104.448C158.417 109.588 158.39 115.005 156.948 121.022C156.188 124.184 155.227 127.539 153.33 130.635C151.957 132.883 150.327 134.867 148.749 136.792L147.905 137.824C146.77 139.222 145.494 140.588 144 142.004C143.589 142.392 143.132 142.731 142.649 143.01Z" fill="#3C9D63"/>
<path d="M70.3945 76.1175C72.7175 74.7764 75.2032 73.7827 77.8364 73.1266C84.6477 71.439 91.6186 71.0775 97.9147 74.7971C103.118 77.8703 106.575 82.562 108.896 88.1729C110.498 92.0475 110.435 96.0569 110.492 100.092C110.496 100.427 110.522 100.75 110.556 101.482C111.449 100.356 112.117 99.5102 112.784 98.6647C114.822 96.1075 117.199 94.1057 119.891 92.5513C121.83 91.4316 123.926 90.5503 126.169 89.8569C132.419 87.9199 138.291 88.8039 143.723 91.9794C148.845 94.9774 151.913 99.7339 153.453 105.42C154.783 110.316 154.548 115.223 153.358 120.184C152.641 123.191 151.773 126.134 150.178 128.736C148.708 131.144 146.828 133.319 145.038 135.517C143.938 136.875 142.73 138.146 141.463 139.347C141.254 139.543 141.042 139.702 140.815 139.834C139.856 140.387 138.724 140.412 137.57 140.299C135.807 140.133 134.013 139.863 132.264 140.018C127.997 140.387 123.714 140.793 119.492 141.503C115.023 142.26 110.634 143.583 106.16 144.315C98.4445 145.586 91.4446 148.801 84.4975 152.107C77.9828 155.211 71.5931 158.581 65.2513 162.017C62.3579 163.584 59.3872 163.721 56.4047 163.132C50.4763 161.952 45.3808 158.902 40.4121 155.627C36.9713 153.359 33.6887 150.84 31.31 147.507C29.4884 144.943 28.0899 142.012 26.9117 139.085C24.9948 134.321 25.6477 129.53 27.2376 124.704C28.7739 120.032 32.124 117.008 35.9251 114.306C36.4609 113.922 37.0028 113.581 37.5569 113.261C40.9596 111.296 44.7034 110.497 48.7132 110.831C52.0853 111.11 55.3128 112.008 58.4299 113.289C58.9783 113.517 59.5754 113.633 60.0304 113.765C59.0626 109.956 57.7864 106.334 57.2786 102.617C56.5982 97.5992 57.4397 92.5766 59.3527 87.8841C60.4966 85.0914 62.3577 82.655 64.6292 80.47C66.4066 78.7581 68.3344 77.3069 70.3803 76.1257M66.734 69.7774C64.1625 71.2621 61.7425 73.0913 59.5369 75.21C56.2885 78.3441 53.9966 81.5929 52.5406 85.1575C50.0319 91.3117 49.1649 97.5043 49.9783 103.572C49.7863 103.551 49.5873 103.535 49.3883 103.518C43.8229 103.049 38.6133 104.197 33.8963 106.921C33.1433 107.356 32.3894 107.838 31.674 108.354C27.2986 111.472 22.5138 115.587 20.2483 122.474C18.709 127.158 17.0133 134.261 20.0779 141.866C21.721 145.942 23.3817 149.098 25.2948 151.788C28.4989 156.287 32.6674 159.357 36.3175 161.758C41.4385 165.132 47.5224 168.862 54.9051 170.329C59.9358 171.332 64.5916 170.701 68.7271 168.463C74.2611 165.466 80.8303 161.964 87.6272 158.726C94.5276 155.437 100.777 152.627 107.3 151.557C109.826 151.141 112.237 150.576 114.576 150.033C116.697 149.541 118.699 149.071 120.664 148.734C124.73 148.05 128.901 147.661 132.829 147.328C133.552 147.268 134.622 147.382 135.758 147.497C136.109 147.529 136.463 147.569 136.806 147.606C138.72 147.787 141.592 147.839 144.469 146.178C145.207 145.751 145.897 145.24 146.52 144.646C148.128 143.116 149.515 141.63 150.749 140.11C151.027 139.771 151.305 139.432 151.583 139.093C153.24 137.075 154.952 134.987 156.456 132.522C158.618 128.982 159.682 125.297 160.521 121.844C162.111 115.215 162.126 109.204 160.565 103.465C158.419 95.5646 153.9 89.4103 147.488 85.6542C140.135 81.3517 132.018 80.3837 124.03 82.8543C121.207 83.7233 118.586 84.8606 116.235 86.2181C116.185 86.2469 116.135 86.2756 116.086 86.3043C115.964 85.9797 115.843 85.6551 115.704 85.3317C112.589 77.8032 107.88 72.1245 101.702 68.4778C94.6274 64.2964 86.2625 63.4902 76.1013 66.0035C72.795 66.8228 69.6425 68.0887 66.73 69.7703L66.734 69.7774Z" fill="white"/>
<path d="M87.1018 100.266C88.234 103.998 89.4383 107.708 90.4801 111.465C91.7022 115.879 92.7802 120.338 93.9008 124.772C94.0189 125.24 94.0326 125.739 94.0787 126.229C94.1873 127.434 93.6357 128.25 92.4906 128.564C91.3527 128.873 90.6708 128.168 90.0691 127.323C87.6467 123.931 86.3895 119.998 85.0409 116.136C83.3616 111.358 82.0274 106.455 80.5856 101.595C80.0734 99.8711 80.8294 98.1948 82.292 97.5289C83.6834 96.904 85.0688 97.4661 86.0733 99.0747C86.3315 99.4892 86.5654 99.9271 86.8095 100.35C86.9069 100.322 87.0003 100.287 87.0977 100.258L87.1018 100.266Z" fill="#EFCD4B"/>
<path d="M123.198 122.379C122.582 122.331 121.571 122.548 121.017 122.145C120.443 121.725 119.999 120.694 120.049 119.961C120.137 118.783 120.553 117.585 121.04 116.477C122.538 113.067 123.463 109.32 126.259 106.617C127.299 105.612 128.496 104.667 129.792 104.041C132.113 102.927 133.913 104.339 133.37 106.86C133.08 108.211 132.429 109.544 131.663 110.71C129.36 114.219 126.924 117.645 124.519 121.091C124.251 121.48 123.831 121.769 123.194 122.372L123.198 122.379Z" fill="#EFCC4B"/>
<path d="M49.3927 132.961C48.4919 131.499 48.9233 130.179 49.7814 129.139C50.8423 127.859 52.4693 128.348 53.61 128.863C56.0273 129.966 58.2958 131.418 60.6088 132.75C62.5013 133.846 64.3674 134.995 66.2659 136.068C67.4331 136.728 68.2278 137.613 67.9833 138.994C67.7317 140.445 66.4707 140.524 65.3285 140.564C60.7567 140.733 56.8473 139.064 53.3624 136.276C52.0101 135.197 50.7166 134.056 49.3957 132.95L49.3927 132.961Z" fill="#EDCC4C"/>
</g>
<defs>
<filter id="filter0_d_2102_2096" x="118" y="0" width="163.293" height="168.925" filterUnits="userSpaceOnUse" color-interpolation-filters="sRGB">
<feFlood flood-opacity="0" result="BackgroundImageFix"/>
<feColorMatrix in="SourceAlpha" type="matrix" values="0 0 0 0 0 0 0 0 0 0 0 0 0 0 0 0 0 0 127 0" result="hardAlpha"/>
<feOffset dx="7" dy="5"/>
<feComposite in2="hardAlpha" operator="out"/>
<feColorMatrix type="matrix" values="0 0 0 0 0 0 0 0 0 0 0 0 0 0 0 0 0 0 0.25 0"/>
<feBlend mode="normal" in2="BackgroundImageFix" result="effect1_dropShadow_2102_2096"/>
<feBlend mode="normal" in="SourceGraphic" in2="effect1_dropShadow_2102_2096" result="shape"/>
</filter>
<filter id="filter1_d_2102_2096" x="18.3711" y="64.5796" width="143.354" height="110.212" filterUnits="userSpaceOnUse" color-interpolation-filters="sRGB">
<feFlood flood-opacity="0" result="BackgroundImageFix"/>
<feColorMatrix in="SourceAlpha" type="matrix" values="0 0 0 0 0 0 0 0 0 0 0 0 0 0 0 0 0 0 127 0" result="hardAlpha"/>
<feOffset dy="4"/>
<feComposite in2="hardAlpha" operator="out"/>
<feColorMatrix type="matrix" values="0 0 0 0 0 0 0 0 0 0 0 0 0 0 0 0 0 0 0.25 0"/>
<feBlend mode="normal" in2="BackgroundImageFix" result="effect1_dropShadow_2102_2096"/>
<feBlend mode="normal" in="SourceGraphic" in2="effect1_dropShadow_2102_2096" result="shape"/>
</filter>
</defs>
</svg>
