<svg width="451" height="236" viewBox="0 0 451 236" fill="none" xmlns="http://www.w3.org/2000/svg">
<path d="M442.424 0H211.375C206.638 0 202.799 3.86024 202.799 8.62209C202.799 13.3839 206.638 17.2442 211.375 17.2442H442.424C447.16 17.2442 451 13.3839 451 8.62209C451 3.86024 447.16 0 442.424 0Z" fill="#E0CBA2"/>
<path d="M398.029 31.4456H109.471C104.734 31.4456 100.895 35.3058 100.895 40.0676C100.895 44.8295 104.734 48.6897 109.471 48.6897H398.029C402.766 48.6897 406.605 44.8295 406.605 40.0676C406.605 35.3058 402.766 31.4456 398.029 31.4456Z" fill="#E0CBA2"/>
<path d="M225.5 62.8906H8.57605C3.83963 62.8906 0 66.7509 0 71.5127C0 76.2746 3.83963 80.1348 8.57605 80.1348H225.5C230.236 80.1348 234.076 76.2746 234.076 71.5127C234.076 66.7509 230.236 62.8906 225.5 62.8906Z" fill="#E0CBA2"/>
<path d="M340.518 94.3359H72.1385C67.4021 94.3359 63.5625 98.1962 63.5625 102.958C63.5625 107.72 67.4021 111.58 72.1385 111.58H340.518C345.255 111.58 349.094 107.72 349.094 102.958C349.094 98.1962 345.255 94.3359 340.518 94.3359Z" fill="#E0CBA2"/>
<path d="M199.516 71.006V39.5608H190.94V71.006H199.516Z" fill="#E0CBA2"/>
<path d="M138.58 102.714V71.269H130.004V102.714H138.58Z" fill="#E0CBA2"/>
<path d="M304.963 39.9462V8.50098H296.387V39.9462H304.963Z" fill="#E0CBA2"/>
<g filter="url(#filter0_d_2102_2118)">
<path d="M176.649 179.01C174.695 180.138 172.601 180.088 171.2 179.958C170.861 179.928 170.525 179.887 170.186 179.858C168.876 179.722 167.636 179.592 166.559 179.679C162.551 180.02 158.289 180.414 154.089 181.13C152.011 181.484 149.947 181.962 147.779 182.472C145.502 183.007 143.149 183.557 140.743 183.951C133.736 185.103 127.236 188.02 120.075 191.431C113.203 194.703 106.573 198.231 101.004 201.249C97.5977 203.093 93.8912 203.58 89.6658 202.742C82.932 201.398 77.2128 197.89 72.3813 194.705C69.0055 192.484 65.1743 189.671 62.3169 185.657C60.5715 183.208 59.0379 180.289 57.5056 176.487C54.8887 169.985 56.3943 163.734 57.7483 159.599C59.6826 153.729 63.9154 150.102 67.8048 147.34C68.4289 146.895 69.0763 146.474 69.7299 146.097C73.7719 143.763 78.2537 142.782 83.0525 143.186C84.9137 143.342 86.7771 143.666 88.668 144.152C88.2453 142.518 87.8682 140.847 87.6393 139.138C86.9017 133.694 87.6777 128.098 89.9555 122.528C91.2119 119.455 93.2188 116.615 96.0919 113.848C98.0742 111.933 100.252 110.291 102.568 108.954C105.182 107.444 108.011 106.308 110.978 105.573C116.827 104.121 125.56 102.761 133.815 107.642C139.295 110.883 143.501 115.97 146.303 122.759C147.089 124.662 147.534 126.547 147.793 128.407C149.116 127.287 150.548 126.272 152.068 125.394C154.185 124.172 156.552 123.153 159.108 122.363C166.181 120.177 173.08 121.003 179.616 124.828C185.265 128.132 189.107 133.391 191.022 140.448C192.417 145.588 192.39 151.005 190.948 157.022C190.188 160.184 189.227 163.539 187.33 166.635C185.957 168.883 184.327 170.867 182.749 172.792L181.905 173.824C180.77 175.222 179.494 176.588 178 178.004C177.589 178.392 177.132 178.731 176.649 179.01Z" fill="#3C9D63"/>
<path d="M104.395 112.118C106.717 110.776 109.203 109.783 111.836 109.127C118.648 107.439 125.619 107.078 131.915 110.797C137.118 113.87 140.575 118.562 142.896 124.173C144.498 128.048 144.435 132.057 144.492 136.092C144.496 136.427 144.522 136.75 144.556 137.482C145.449 136.356 146.117 135.51 146.784 134.665C148.822 132.107 151.199 130.106 153.891 128.551C155.83 127.432 157.926 126.55 160.169 125.857C166.419 123.92 172.291 124.804 177.723 127.979C182.845 130.977 185.913 135.734 187.453 141.42C188.783 146.316 188.548 151.223 187.358 156.184C186.641 159.191 185.773 162.134 184.178 164.736C182.708 167.144 180.828 169.319 179.038 171.517C177.938 172.875 176.73 174.146 175.463 175.347C175.254 175.543 175.042 175.702 174.815 175.834C173.856 176.387 172.724 176.412 171.57 176.299C169.807 176.133 168.013 175.863 166.264 176.018C161.997 176.387 157.714 176.793 153.492 177.503C149.023 178.26 144.634 179.583 140.16 180.315C132.445 181.586 125.445 184.801 118.497 188.107C111.983 191.211 105.593 194.581 99.2513 198.017C96.3579 199.584 93.3872 199.721 90.4047 199.132C84.4763 197.952 79.3808 194.902 74.4121 191.627C70.9713 189.359 67.6887 186.84 65.31 183.507C63.4884 180.943 62.0899 178.012 60.9117 175.085C58.9948 170.321 59.6477 165.53 61.2376 160.704C62.7739 156.032 66.124 153.008 69.9251 150.306C70.4609 149.922 71.0028 149.581 71.5569 149.261C74.9596 147.296 78.7034 146.497 82.7132 146.831C86.0853 147.11 89.3128 148.008 92.4299 149.289C92.9783 149.517 93.5754 149.633 94.0304 149.765C93.0626 145.956 91.7864 142.334 91.2786 138.617C90.5982 133.599 91.4397 128.577 93.3527 123.884C94.4966 121.091 96.3577 118.655 98.6292 116.47C100.407 114.758 102.334 113.307 104.38 112.126M100.734 105.777C98.1625 107.262 95.7425 109.091 93.5369 111.21C90.2885 114.344 87.9966 117.593 86.5406 121.157C84.0319 127.312 83.1649 133.504 83.9783 139.572C83.7863 139.551 83.5873 139.535 83.3883 139.518C77.8229 139.049 72.6133 140.197 67.8963 142.921C67.1433 143.356 66.3894 143.838 65.674 144.354C61.2986 147.472 56.5138 151.587 54.2483 158.474C52.709 163.158 51.0133 170.261 54.0779 177.866C55.721 181.942 57.3817 185.098 59.2948 187.788C62.4989 192.287 66.6674 195.357 70.3175 197.758C75.4385 201.132 81.5224 204.862 88.9051 206.329C93.9358 207.332 98.5916 206.701 102.727 204.463C108.261 201.466 114.83 197.964 121.627 194.726C128.528 191.437 134.777 188.627 141.3 187.557C143.826 187.141 146.237 186.576 148.576 186.033C150.697 185.541 152.699 185.071 154.664 184.734C158.73 184.05 162.901 183.661 166.829 183.328C167.552 183.268 168.622 183.382 169.758 183.497C170.109 183.529 170.463 183.569 170.806 183.606C172.72 183.787 175.592 183.839 178.469 182.178C179.207 181.751 179.897 181.24 180.52 180.646C182.128 179.116 183.515 177.63 184.749 176.11C185.027 175.771 185.305 175.432 185.583 175.093C187.24 173.075 188.952 170.987 190.456 168.522C192.618 164.982 193.682 161.297 194.521 157.844C196.111 151.215 196.126 145.204 194.565 139.465C192.419 131.565 187.9 125.41 181.488 121.654C174.135 117.352 166.018 116.384 158.03 118.854C155.207 119.723 152.586 120.861 150.235 122.218C150.185 122.247 150.135 122.276 150.086 122.304C149.964 121.98 149.843 121.655 149.704 121.332C146.589 113.803 141.88 108.125 135.702 104.478C128.627 100.296 120.263 99.4902 110.101 102.004C106.795 102.823 103.643 104.089 100.73 105.77L100.734 105.777Z" fill="white"/>
<path d="M121.102 136.266C122.234 139.998 123.438 143.708 124.48 147.465C125.702 151.879 126.78 156.338 127.901 160.772C128.019 161.24 128.033 161.739 128.079 162.229C128.187 163.434 127.636 164.25 126.491 164.564C125.353 164.873 124.671 164.168 124.069 163.323C121.647 159.931 120.389 155.998 119.041 152.136C117.362 147.358 116.027 142.455 114.586 137.595C114.073 135.871 114.829 134.195 116.292 133.529C117.683 132.904 119.069 133.466 120.073 135.075C120.332 135.489 120.565 135.927 120.809 136.35C120.907 136.322 121 136.287 121.098 136.258L121.102 136.266Z" fill="#EFCD4B"/>
<path d="M157.198 158.379C156.582 158.331 155.571 158.548 155.017 158.145C154.443 157.725 153.999 156.694 154.049 155.961C154.137 154.783 154.553 153.585 155.04 152.477C156.538 149.067 157.463 145.32 160.259 142.617C161.299 141.612 162.496 140.667 163.792 140.041C166.113 138.927 167.913 140.339 167.37 142.86C167.08 144.211 166.429 145.544 165.663 146.71C163.36 150.219 160.924 153.645 158.519 157.091C158.251 157.48 157.831 157.769 157.194 158.372L157.198 158.379Z" fill="#EFCC4B"/>
<path d="M83.3927 168.961C82.4919 167.499 82.9233 166.179 83.7814 165.139C84.8423 163.859 86.4693 164.348 87.61 164.863C90.0273 165.966 92.2958 167.418 94.6088 168.75C96.5013 169.846 98.3674 170.995 100.266 172.068C101.433 172.728 102.228 173.613 101.983 174.994C101.732 176.445 100.471 176.524 99.3285 176.564C94.7567 176.733 90.8473 175.064 87.3624 172.276C86.0101 171.197 84.7166 170.056 83.3957 168.95L83.3927 168.961Z" fill="#EDCC4C"/>
</g>
<defs>
<filter id="filter0_d_2102_2118" x="52.3711" y="100.58" width="143.354" height="110.212" filterUnits="userSpaceOnUse" color-interpolation-filters="sRGB">
<feFlood flood-opacity="0" result="BackgroundImageFix"/>
<feColorMatrix in="SourceAlpha" type="matrix" values="0 0 0 0 0 0 0 0 0 0 0 0 0 0 0 0 0 0 127 0" result="hardAlpha"/>
<feOffset dy="4"/>
<feComposite in2="hardAlpha" operator="out"/>
<feColorMatrix type="matrix" values="0 0 0 0 0 0 0 0 0 0 0 0 0 0 0 0 0 0 0.25 0"/>
<feBlend mode="normal" in2="BackgroundImageFix" result="effect1_dropShadow_2102_2118"/>
<feBlend mode="normal" in="SourceGraphic" in2="effect1_dropShadow_2102_2118" result="shape"/>
</filter>
</defs>
</svg>
